<svg width="58" height="63" viewBox="0 0 58 63" fill="none" xmlns="http://www.w3.org/2000/svg">
                <mask id="mask0_0_141" style="mask-type:alpha" maskUnits="userSpaceOnUse" x="0" y="0" width="58" height="63">
                <rect y="0.599976" width="58" height="61.625" fill="white"/>
                </mask>
                <g mask="url(#mask0_0_141)">
                <mask id="mask1_0_141" style="mask-type:alpha" maskUnits="userSpaceOnUse" x="0" y="0" width="58" height="62">
                <rect y="0.95723" width="57.8993" height="60.4167" fill="white"/>
                </mask>
                <g mask="url(#mask1_0_141)">
                <path fill-rule="evenodd" clip-rule="evenodd" d="M33.1714 7.60388C33.4483 7.6094 33.7253 7.62153 34.001 7.64471C34.0894 7.65243 34.4329 7.63809 34.4972 7.69656C34.4852 7.68663 33.8801 7.59175 34.3467 7.68112C34.9528 7.79696 35.5514 7.92385 36.1423 8.10368C36.4127 8.18533 36.6799 8.27581 36.9459 8.37179C37.0527 8.41041 37.1585 8.45012 37.2643 8.49205C37.3013 8.5064 37.829 8.70059 37.4485 8.56157C37.0702 8.42365 37.5903 8.62556 37.6294 8.64322C37.7592 8.70279 37.889 8.76347 38.0177 8.82636C38.3022 8.96427 38.5823 9.10881 38.8603 9.25996C39.9005 9.82707 40.9918 10.4703 41.8892 11.2537C41.8401 11.2106 41.4694 10.9138 41.8019 11.1886C41.912 11.279 42.0233 11.3684 42.1323 11.46C42.3274 11.6233 42.5215 11.7899 42.7123 11.9587C43.1702 12.3647 43.6139 12.7861 44.0424 13.2231C44.4479 13.6368 44.8405 14.0649 45.2155 14.5073C45.4019 14.7281 45.5818 14.9543 45.7639 15.1771C45.8423 15.273 46.0626 15.5268 45.7007 15.0887C45.8282 15.2422 45.9417 15.411 46.0583 15.5732C46.7429 16.5221 47.3622 17.5183 47.9237 18.5466C48.4765 19.5584 48.9736 20.5998 49.4283 21.6601C49.4806 21.7816 49.752 22.299 49.4544 21.7197C49.5056 21.8201 49.5449 21.9416 49.5864 22.0452C49.7051 22.342 49.8164 22.6422 49.9211 22.9445C50.1511 23.6086 50.3485 24.2839 50.5414 24.9602C50.9448 26.378 51.3471 27.7847 51.8933 29.1551C52.1539 29.8071 52.3884 30.4702 52.5857 31.1454C52.6936 31.5151 52.7895 31.889 52.8713 32.2653C52.8985 32.3899 52.9247 32.5157 52.9487 32.6415C52.9738 32.7707 53.0969 33.619 53.0098 32.9306C54.2276 32.2234 55.4454 31.5162 56.6632 30.8089C56.5313 30.7229 56.3285 30.6268 56.226 30.5066C56.2642 30.5518 56.6338 30.8586 56.3013 30.5563C56.0799 30.3554 55.8575 30.1591 55.6438 29.9494C55.1685 29.4827 54.7138 28.9951 54.2516 28.5151C53.3467 27.5751 52.4613 26.6162 51.5837 25.6509C49.8054 23.6947 48.0415 21.7242 46.2588 19.7724C44.4883 17.8327 42.7231 15.8843 41.0637 13.8454C40.6626 13.3521 40.2603 12.8579 39.8787 12.3482C39.9267 12.4133 40.1807 12.7509 39.9135 12.3912C39.8002 12.2389 39.6868 12.0867 39.5745 11.9344C39.3837 11.6762 39.194 11.417 39.0032 11.1588C38.1082 9.94733 37.2043 8.7425 36.2721 7.55975C35.4119 6.46857 34.5473 5.34097 33.5367 4.38661C33.1212 3.99383 32.6862 3.62311 32.2795 3.2215C32.2065 3.14978 31.7017 2.53302 31.6505 2.54075C31.7628 2.52309 31.9394 2.97436 31.7573 2.67425C31.6526 2.50214 31.5458 2.33553 31.4531 2.15569C30.3455 3.27667 29.2389 4.39653 28.1312 5.51751C28.5193 5.73044 28.8965 5.95883 29.2628 6.20818C29.4481 6.33507 29.6313 6.46526 29.8113 6.59876C29.8974 6.66276 30.001 6.73005 30.0816 6.80398C29.6062 6.36927 30.0303 6.76978 30.1241 6.847C30.8797 7.47148 31.597 8.1423 32.3046 8.82195C33.7275 10.1868 35.1742 11.5118 36.6493 12.8203C38.2215 14.2161 39.7828 15.6272 41.2808 17.1046C42.0396 17.8538 42.7831 18.6206 43.5016 19.4105C43.8396 19.7823 44.1733 20.1585 44.4991 20.5413C44.6628 20.7323 44.8252 20.9243 44.9844 21.1195C45.0639 21.2178 45.1425 21.3171 45.2221 21.4141C45.6254 21.9106 44.9244 21.0026 45.306 21.5201C46.0049 22.4689 46.6547 23.4509 47.2728 24.456C47.528 24.8697 47.7906 25.2802 48.0393 25.6983C48.1625 25.9068 48.2551 26.2003 48.4067 26.3835C48.3598 26.3272 48.2421 25.8374 48.3227 26.2047C48.3717 26.4287 48.3674 26.805 48.3271 26.0569C49.5449 25.3497 50.7628 24.6424 51.9805 23.9352C51.6524 23.7874 51.3547 23.6086 51.0539 23.4111C50.6853 23.1695 51.3973 23.7135 51.0637 23.4232C50.9089 23.2886 50.7551 23.1552 50.6068 23.014C50.0813 22.5175 49.5983 21.9768 49.0826 21.4693C47.7481 20.1564 46.1509 19.1005 44.6541 17.9884C44.3204 17.7401 43.9868 17.4919 43.6576 17.2392C43.5562 17.1619 43.4525 17.0858 43.3533 17.0053C43.3719 17.0197 43.6804 17.2668 43.4668 17.0924C43.2673 16.9302 43.0655 16.7713 42.8681 16.6081C42.19 16.0465 41.5315 15.4607 40.8501 14.9034C39.4687 13.7748 38.0524 12.6803 36.7845 11.417C35.4097 10.0477 34.1853 8.52957 32.7091 7.26516C31.922 8.63438 31.1337 10.0036 30.3465 11.3717C30.4141 11.3816 30.5002 11.4236 30.5647 11.4258C30.3574 11.4203 29.9192 11.1764 30.2997 11.3419C30.3739 11.3739 30.6758 11.6133 30.304 11.3331C29.9366 11.0573 30.2463 11.2967 30.3149 11.3607C30.6889 11.7038 31.0236 12.0911 31.3463 12.4817C31.9339 13.1934 32.5063 13.9148 33.0984 14.6232C33.5541 15.1683 33.9999 15.7222 34.4394 16.2804C34.64 16.5352 34.8406 16.7924 35.039 17.0494C35.159 17.2038 35.2778 17.3594 35.3967 17.5139C35.5634 17.7312 35.5547 17.7203 35.3726 17.4818C35.4315 17.5592 35.4915 17.6375 35.5504 17.7147C36.5196 18.9879 37.4801 20.2678 38.4624 21.53C39.3521 22.6719 40.2428 23.8128 41.1238 24.9602C41.2437 25.1168 41.3647 25.2735 41.4846 25.4314C41.1303 24.9635 41.5326 25.4942 41.5849 25.5637C41.7845 25.8264 41.984 26.0889 42.1824 26.3526C42.6589 26.9848 43.1331 27.6181 43.6041 28.2547C44.4665 29.4209 45.318 30.596 46.1542 31.782C46.9588 32.9229 47.8245 34.0581 48.5069 35.2795C48.7043 35.6337 48.8842 35.999 49.0521 36.3674C49.1001 36.4744 49.147 36.5815 49.195 36.6885C49.3007 36.9367 49.2877 36.9036 49.1557 36.5892C49.2004 36.6985 49.2451 36.8077 49.2887 36.9169C49.5503 37.5711 49.7956 38.2321 50.0574 38.8863C50.2569 39.3849 50.4661 39.8804 50.6788 40.3747C50.7114 40.4497 50.742 40.5259 50.7758 40.6009C50.4368 39.8649 50.7268 40.4927 50.7889 40.6637C50.8914 40.9462 50.9601 41.232 51.044 41.5199C51.1868 42.012 51.0517 40.9329 51.0364 41.4239C51.0157 42.0903 51.1629 41.0002 51.055 41.3853C52.2444 40.8955 53.4327 40.4067 54.6222 39.9169C54.3769 39.7546 54.3769 39.5814 54.6888 39.9907C54.6255 39.9068 54.5121 39.8384 54.4347 39.7657C54.2462 39.5892 54.0706 39.3993 53.9026 39.203C53.8405 39.1301 53.7839 39.0462 53.7184 38.9779C54.1796 39.4522 53.8492 39.1522 53.7424 39C53.5668 38.7527 53.4001 38.5001 53.2376 38.2431C52.6936 37.3803 52.2182 36.4744 51.6808 35.6072C50.2285 33.2649 48.6356 31.0053 47.0613 28.7468C43.8167 24.0952 40.595 19.427 37.3416 14.7821C36.4345 13.4867 35.5482 12.1782 34.6476 10.8774C34.182 10.2055 33.6969 9.5358 33.1464 8.93229C32.9174 8.68072 32.6743 8.44571 32.4115 8.22947C32.3919 8.21402 32.3722 8.19747 32.3526 8.18202C31.7759 7.73187 31.6973 7.67008 32.1149 7.99556C32.0364 7.93378 31.9623 7.86757 31.8892 7.79917C31.7149 7.6105 31.7475 7.66015 31.9873 7.94591C31.5033 9.14963 31.0203 10.3523 30.5363 11.556C30.3945 11.5725 30.2539 11.5902 30.1121 11.6067C29.6542 11.5196 29.5495 11.5063 29.8003 11.5648C29.1254 11.3254 29.4668 11.4269 29.6586 11.5284C29.8647 11.6365 29.7251 11.7413 29.4863 11.3827C29.5528 11.4821 29.7055 11.5769 29.7926 11.6608C30.1384 11.9951 30.4534 12.3581 30.8056 12.6857C31.8293 13.639 32.8323 14.6144 33.8048 15.6207C35.7607 17.6452 37.6077 19.7956 39.3739 21.9912C39.5745 22.2405 39.7926 22.4865 39.9747 22.7514C39.6378 22.2603 40.0062 22.7944 40.0629 22.8705C40.1785 23.026 40.2929 23.1817 40.4053 23.3383C40.8141 23.9066 41.2044 24.4869 41.5664 25.086C42.2838 26.2743 42.9052 27.5177 43.5551 28.7435C43.7001 29.0171 43.8483 29.2897 43.9836 29.5688C44.0555 29.7155 44.1776 29.903 44.2113 30.063C44.0991 29.5368 44.1394 29.8877 44.2059 30.0565C44.4501 30.6875 44.6508 31.3352 44.8175 31.9916C44.9625 32.561 45.0804 33.138 45.1828 33.7162C45.2449 34.067 45.3005 34.4189 45.3528 34.772C45.3704 34.8901 45.3878 35.0092 45.4041 35.1273C45.4205 35.2464 45.4379 35.3657 45.4531 35.4848C45.4062 35.1306 45.4019 35.0931 45.4379 35.3722C45.4913 35.7859 45.5447 36.1998 45.6003 36.6123C45.608 36.6653 45.6146 36.7183 45.6222 36.7712C45.6614 37.078 45.5633 36.2394 45.5622 36.32C45.5579 36.6819 45.6517 37.0681 45.6767 37.4311C45.7018 37.793 45.7149 38.1559 45.7007 38.5178C45.6962 38.6237 45.6875 38.7297 45.681 38.8355C45.6571 39.2548 45.7956 38.242 45.7236 38.5332C45.6472 38.8443 45.378 39.3541 45.7813 38.5839C45.7574 38.6293 45.7344 38.6744 45.7062 38.7185C45.9612 38.3203 45.9307 38.339 46.3363 38.0876C46.3166 38.0986 46.2981 38.1095 46.2785 38.1217C46.5653 37.9463 46.8759 37.8591 47.2107 37.8591C47.5094 37.8724 47.8169 37.933 48.0774 38.0876C48.6226 38.4097 48.4633 38.3501 48.2595 38.1923C48.6727 38.5123 48.5343 38.6039 48.4088 38.3589C48.2966 38.1394 48.1766 37.9264 48.073 37.7014C47.5879 36.6443 46.9469 35.6691 46.3014 34.7058C44.7891 32.4496 43.3719 30.1314 41.8618 27.8741C40.256 25.4733 38.5606 23.132 36.7507 20.8823C35.7488 19.6367 34.6978 18.4329 33.6402 17.2358C32.515 15.9615 31.367 14.7722 30.0184 13.7372C29.7032 13.4945 29.3817 13.2607 29.06 13.0267C28.9357 12.9362 28.8126 12.8468 28.6893 12.7553C28.576 12.6714 27.9109 12.2853 28.4429 12.5765C27.8782 12.2676 27.3887 11.5615 26.97 11.0782C26.5382 10.5795 26.1152 10.0621 25.6105 9.6384C25.2812 9.36257 24.9291 9.10329 24.5758 8.85725C24.1625 8.56929 24.9672 9.25665 24.6314 8.89477C24.566 8.83629 24.505 8.7734 24.4471 8.7072C24.639 8.89477 24.7666 9.11984 24.8309 9.38244C23.6415 10.307 22.4531 11.2327 21.2636 12.1573C21.8436 12.4662 22.4062 12.8072 22.948 13.1811C23.0778 13.2706 23.2064 13.3622 23.334 13.4559C23.4071 13.5088 23.8202 13.8277 23.5291 13.5971C23.238 13.3654 23.6469 13.6942 23.7156 13.7505C23.8584 13.8686 23.9991 13.9877 24.1397 14.109C25.1679 15.0027 26.1109 15.9914 26.9984 17.0262C27.4377 17.5392 27.864 18.0633 28.2805 18.5963C28.3808 18.7243 28.48 18.8522 28.5792 18.9813C28.8594 19.3432 28.3186 18.6348 28.5934 19.0012C28.8039 19.2825 29.0142 19.5638 29.2224 19.8463C30.0271 20.9397 30.8099 22.0496 31.609 23.1475C32.4725 24.3347 33.2892 25.5329 33.9717 26.8381C34.3303 27.5254 34.6563 28.2283 34.9649 28.9388C35.1535 29.3734 34.8199 28.5724 34.9954 29.0127C35.0619 29.1792 35.1284 29.3448 35.1938 29.5125C35.3344 29.8744 35.4707 30.2396 35.6016 30.6048C36.6504 33.522 37.5619 36.534 38.3 39.5472C38.5104 40.4056 38.6958 41.2716 38.8429 42.1433C38.88 42.3629 38.9094 42.5835 38.9465 42.802C38.9945 43.0889 38.9291 42.6343 38.9247 42.6233C38.9628 42.7347 38.9574 42.888 38.9716 43.005C39.0229 43.454 39.0511 43.9053 39.1024 44.3543C39.1755 44.9876 39.279 45.6155 39.3815 46.2443C39.3967 46.3393 39.4121 46.4341 39.4273 46.529C39.4928 46.9427 39.4492 46.4573 39.4164 46.4462C39.4666 46.4628 39.4524 46.9891 39.4513 47.0618C39.4425 48.1895 39.4132 49.2167 40.0073 50.2329C40.6244 51.2898 41.9349 51.7102 43.0394 51.238C44.1089 50.7812 44.8132 49.5145 44.4457 48.3395C43.4373 45.1222 41.8946 42.1036 40.3148 39.1423C38.7524 36.2129 37.2011 33.2792 35.6758 30.3301C34.1646 27.4073 32.6732 24.4747 31.1981 21.5333C29.7414 18.6282 28.3689 15.6791 26.8894 12.7851C26.1643 11.3662 25.4251 9.89878 24.4733 8.62004C24.107 8.12796 23.7221 7.64802 23.382 7.13717C23.2174 6.89114 23.0756 6.63737 22.935 6.37699C22.7212 5.9798 23.1508 6.96727 23.0201 6.56346C22.8467 6.03054 23.0364 7.11622 23.0483 6.7775C21.667 7.35674 20.2845 7.93598 18.9031 8.51523C19.1332 8.71824 19.3437 8.93889 19.541 9.1728C19.6446 9.29527 19.7351 9.4376 19.8462 9.55345C19.8462 9.55345 19.5562 9.16397 19.7132 9.38244C19.7765 9.4696 19.8419 9.55565 19.9062 9.64171C20.4176 10.3313 20.9485 10.9977 21.5024 11.6531C22.561 12.9031 23.6349 14.141 24.65 15.4276C24.7698 15.5787 24.8877 15.7321 25.0064 15.8843C25.1766 16.1028 24.9356 15.7882 24.9203 15.7718C24.9847 15.8402 25.0381 15.9295 25.0948 16.0045C25.3314 16.3234 25.5658 16.6445 25.7991 16.9666C26.2406 17.5768 26.6745 18.1914 27.1008 18.8114C27.9415 20.0338 28.7515 21.2773 29.5213 22.5461C30.2855 23.8072 31.0094 25.0937 31.6843 26.4066C32.0375 27.094 32.3765 27.788 32.7026 28.4886C32.8541 28.8152 33.0025 29.1418 33.1475 29.4717C33.2204 29.6372 33.2925 29.8026 33.3633 29.9682C33.3993 30.0509 33.4342 30.1348 33.4701 30.2176C33.6315 30.596 33.4451 30.1303 33.4353 30.1337C33.505 30.1171 34.2072 32.1142 34.2747 32.2972C34.556 33.0619 34.8286 33.8298 35.0891 34.601C35.6092 36.1456 36.0802 37.7068 36.4727 39.289C36.7006 40.2048 36.9022 41.1282 37.0724 42.0573C37.1542 42.5052 37.2293 42.9553 37.2958 43.4066C37.3079 43.4905 37.3471 43.6129 37.3372 43.6968C37.3569 43.5247 37.2893 43.3117 37.3274 43.6251C37.3548 43.8535 37.3819 44.0819 37.406 44.3102C37.5052 45.226 37.587 46.144 37.6164 47.0652C37.6305 47.4999 37.6196 47.9357 37.6426 48.3705C37.6535 48.569 37.6698 48.7677 37.673 48.9662C37.6741 49.0479 37.6622 49.1384 37.6709 49.2188C37.7003 49.5057 37.7974 48.643 37.6719 49.1273C39.025 48.7655 40.378 48.4047 41.7299 48.0428C41.6198 47.9534 41.5141 47.8607 41.4149 47.7592C41.3418 47.6841 41.0715 47.3422 41.3222 47.682C41.5903 48.045 41.2775 47.6037 41.2241 47.5153C41.1325 47.3665 41.0496 47.213 40.9712 47.0575C40.9122 46.9394 40.8697 46.8048 40.8021 46.6923C41.1499 47.2726 40.8981 46.9173 40.8206 46.7022C40.7018 46.3701 40.5983 46.0325 40.5023 45.6927C40.1644 44.4945 39.931 43.2709 39.496 42.1036C38.1506 38.4913 36.6308 34.9442 35.0433 31.4345C33.541 28.1135 31.9645 24.8278 30.424 21.5255C28.9237 18.3116 27.4475 15.0833 25.7915 11.9465C24.9225 10.2993 23.9337 8.72485 23.0418 7.09195C22.1336 5.43034 21.1981 3.8206 19.5988 2.74487C18.8868 2.26602 17.8642 2.32119 17.1479 2.74487C16.3498 3.21819 16.0379 3.97837 15.9453 4.86655C15.8428 5.8463 16.3334 6.85363 16.7564 7.69767C17.1347 8.45124 17.4597 9.23128 17.8118 9.99808C18.5805 11.6685 19.3894 13.3179 20.1679 14.984C20.568 15.8413 20.9572 16.703 21.3344 17.5713C21.5002 17.9519 21.6648 18.3337 21.8273 18.7165C21.9155 18.9228 22.0028 19.1303 22.09 19.3366C22.1271 19.4259 22.1642 19.5143 22.2023 19.6036C22.3201 19.8827 22.0377 19.2042 22.2176 19.6401C22.9088 21.3193 23.5749 23.0073 24.1964 24.7142C25.4557 28.1664 26.5502 31.685 27.3669 35.273C27.574 36.1843 27.7637 37.1011 27.9327 38.0213C28.0079 38.4317 28.0787 38.8432 28.1464 39.2548C28.1824 39.4765 28.215 39.6984 28.2511 39.919C28.2663 40.0128 28.2337 40.2423 28.2641 39.9852C28.3034 39.6542 28.2871 40.1771 28.2968 40.2665C28.5029 42.1477 28.4855 44.0421 28.5814 45.9299C28.6915 48.0703 28.9554 50.1942 28.9467 52.3413C28.9423 53.3453 28.9292 54.3493 28.9379 55.3522C28.9413 55.7307 28.9858 56.1047 29.0132 56.482C29.0273 56.6796 29.0383 56.877 29.0327 57.0745C29.0305 57.143 29.0186 57.2157 29.0219 57.2841C28.9979 56.748 29.1026 56.834 28.9936 57.111C30.5547 57.111 32.1149 57.111 33.6762 57.111C32.6044 53.7932 31.5775 50.4591 30.6606 47.0928C29.7447 43.731 28.9914 40.3283 28.2543 36.9235C27.5174 33.5175 26.7934 30.106 25.9211 26.7321C25.0774 23.4664 24.3359 20.1718 23.4321 16.9214C22.9229 15.0932 22.3364 13.297 21.68 11.5174C21.0084 9.69688 20.362 7.83448 19.3676 6.16294C18.8334 5.26485 17.6494 4.69774 16.6257 5.03315C15.5768 5.37628 14.8856 6.28101 14.843 7.40308C14.7853 8.9058 15.5005 10.4052 15.8766 11.834C16.3051 13.4592 16.7161 15.0877 17.1315 16.7162C17.9437 19.896 18.6819 23.0933 19.3305 26.3117C19.9902 29.5831 20.5702 32.8711 21.1044 36.1667C21.3617 37.7565 21.6146 39.3475 21.8491 40.9407C21.9068 41.3368 21.9657 41.7329 22.0158 42.129C21.9352 41.4946 22.0192 42.1687 22.0322 42.2713C22.0573 42.471 22.0813 42.6696 22.1052 42.8693C22.2089 43.7343 22.3004 44.6014 22.3811 45.4697C22.5556 47.3388 22.6787 49.2123 22.7551 51.0879C22.7911 51.965 22.8183 52.8422 22.8488 53.7205C22.863 54.1441 22.8738 54.5689 22.8641 54.9937C22.8597 55.1724 22.8532 55.3522 22.8401 55.5309C22.8325 55.6479 22.8215 55.7649 22.8096 55.8807C22.863 55.5133 22.8673 55.4647 22.8237 55.7351C24.1768 55.3733 25.5298 55.0124 26.8817 54.6505C26.9439 54.7355 27.006 54.8204 27.067 54.9054C26.9417 54.6748 26.9548 54.731 27.1041 55.072C27.1074 55.0698 26.9645 54.6495 26.9548 54.6185C26.8501 54.2777 26.7388 53.9411 26.6211 53.6057C26.3594 52.8533 26.0924 52.103 25.823 51.3538C25.3062 49.9173 24.7775 48.4851 24.263 47.0476C23.2304 44.1602 22.3157 41.2309 21.413 38.3005C19.5836 32.3657 17.6865 26.4596 15.423 20.6772C14.7951 19.0729 14.1343 17.4818 13.5217 15.871C12.8337 14.0617 12.3071 11.8395 10.2334 11.2294C9.65888 11.0606 8.87171 11.1455 8.36255 11.4776C7.79998 11.845 7.49035 12.3184 7.24613 12.9461C6.86781 13.9204 7.13711 14.9321 7.47291 15.8656C7.78472 16.7305 8.1227 17.5812 8.4803 18.4275C8.75614 19.0806 9.04505 19.7293 9.33179 20.377C9.4877 20.7301 9.64361 21.0843 9.79624 21.4384C9.83659 21.5322 10.1113 22.1214 9.84967 21.5608C9.93144 21.7352 9.99467 21.9205 10.0666 22.0993C11.2103 24.9712 12.2744 27.8763 13.2251 30.8188C14.1769 33.7624 15.0349 36.7492 15.688 39.7756C16.0249 41.3346 16.2975 42.908 16.5231 44.4879C16.5417 44.6192 16.5602 44.7504 16.5788 44.8818C16.6726 45.5493 16.5144 44.3477 16.5962 45.0175C16.6453 45.4125 16.6943 45.8075 16.7401 46.2024C16.8317 46.9945 16.9124 47.7867 16.9865 48.5801C17.149 50.3222 17.2634 52.0688 17.4106 53.813C17.4848 54.7024 17.5643 55.5905 17.6342 56.4798C17.6668 56.8936 17.6952 57.3073 17.741 57.72C17.7573 57.8668 17.7584 58.0223 17.7824 58.1668C17.7781 58.4393 17.7998 58.3631 17.8467 57.9395C17.7792 58.1911 17.8129 58.1139 17.9459 57.7068C19.3437 57.7068 20.7414 57.7068 22.1391 57.7068C21.8033 57.0888 21.4926 56.4588 21.2059 55.8156C21.1284 55.6425 21.0444 55.4681 20.978 55.2905C21.0062 55.3655 21.1709 55.7715 21.0041 55.349C20.8526 54.965 20.7021 54.5799 20.5582 54.1927C20.0731 52.8774 19.6446 51.5414 19.2107 50.2075C18.2806 47.3521 17.2918 44.5154 16.2899 41.6854C14.3175 36.1136 12.499 30.4249 9.9805 25.0749C9.39939 23.8403 8.71688 22.6553 8.16195 21.4098C7.95261 20.9386 7.73566 20.4697 7.44673 20.0427C6.8362 19.1402 6.16568 18.6028 5.16701 18.177C4.65131 17.9574 3.74967 18.1284 3.29612 18.4252C2.7499 18.7817 2.38357 19.2627 2.17969 19.8938C1.92894 20.6705 1.90385 21.5266 2.09792 22.32C2.19932 22.7325 2.47734 23.1045 2.56892 23.506C2.55038 23.4266 2.40973 23.0217 2.5482 23.474C2.59727 23.6352 2.65178 23.7939 2.70302 23.9539C3.06717 25.0727 3.44112 26.187 3.8249 27.2981C4.57281 29.4639 5.19753 31.6717 5.76338 33.8927C6.91687 38.4196 7.87412 43.0095 8.77358 47.5948C9.02326 48.8702 9.26311 50.1479 9.48117 51.4289C9.69376 52.6712 9.81369 53.9323 10.1495 55.1503C11.5025 54.3538 12.8556 53.556 14.2074 52.7594C14.359 52.9393 14.4636 53.1434 14.5237 53.3707C14.4931 53.278 14.4658 53.1831 14.444 53.0871C14.3895 52.8819 14.3372 52.6845 14.2641 52.4847C14.0603 51.9276 13.8172 51.3825 13.5697 50.8441C13.4638 50.6124 13.3538 50.3828 13.248 50.1512C13.1968 50.0398 12.8326 49.2652 13.1161 49.8699C12.9275 49.4672 12.7781 49.0401 12.608 48.6286C11.7816 46.6316 10.8952 44.8023 9.57056 43.0899C8.98291 42.3298 7.71167 42.2427 6.91797 42.5813C6.05229 42.951 5.4025 43.8468 5.4254 44.8265C5.50716 48.3627 6.14061 51.9044 7.20034 55.2718C8.19574 54.2644 9.19116 53.2571 10.1876 52.2486C10.264 52.2751 10.8374 52.574 10.5147 52.3722C10.2563 52.21 10.9585 52.808 10.7513 52.5486C10.5932 52.3512 10.1538 51.73 10.6161 52.4395C10.3545 52.0368 10.0732 51.644 9.80496 51.2446C9.07668 50.16 8.23173 48.9552 6.90161 48.6043C6.41753 48.4763 5.84296 48.4565 5.35671 48.5922C4.44307 48.847 3.91865 49.5885 3.57305 50.4171C3.2198 51.2633 3.1304 52.1934 3.20018 53.1047C3.25032 53.7623 3.33645 54.4078 3.32338 55.0686C3.31466 55.5111 3.37898 54.463 3.29939 55.0709C3.2656 55.3279 3.41387 54.8215 3.42368 54.805C3.30702 55.0025 3.22308 55.0477 3.71696 54.5457C3.83252 54.4288 3.9481 54.3108 4.06367 54.1938C4.40382 54.0977 4.74289 54.0007 5.08305 53.9046C5.00892 53.9046 5.76011 54.0106 5.53334 53.9521C5.3687 53.9091 5.89966 54.0956 5.89639 54.1088C5.89748 54.1044 5.72086 54.0173 5.70668 54.0095C5.31092 53.7966 4.89662 53.5384 4.46488 53.4182C3.55342 53.1644 2.5155 53.5208 1.88423 54.2203C1.38816 54.7708 1.15921 55.3997 1.06436 56.1147C1.04473 56.2603 1.02402 56.4081 1.00658 56.5549C0.965146 56.9069 1.05673 56.2592 1.0491 56.2515C1.05891 56.2614 1.02184 56.407 1.0153 56.4214C0.98259 56.5427 1.00549 56.4986 1.08508 56.2857C1.15267 56.087 1.26606 55.9149 1.42415 55.7726C0.609722 56.7568 0.399301 58.2958 1.42415 59.248C2.32252 60.0833 3.98735 60.3006 4.85846 59.248C5.29021 58.7263 5.62709 58.1823 5.74048 57.5004C5.783 57.2456 5.81026 56.9863 5.84296 56.7303C5.85605 56.631 5.89312 56.3209 5.83642 56.77C5.77973 57.2157 5.80916 56.9222 5.84515 56.8307C5.77428 57.0084 5.38941 57.7387 5.04489 57.9098C4.22829 57.9098 3.4106 57.9098 2.59399 57.9098C3.4106 58.2859 4.14543 58.8166 5.08305 58.82C6.57235 58.8255 7.64408 57.6836 8.00495 56.3022C8.24916 55.3666 8.18484 54.4508 8.09218 53.5064C8.05619 53.139 8.02131 52.7694 8.03221 52.3987C8.03438 52.2961 8.04093 52.1945 8.05074 52.093C7.98969 52.4957 7.98641 52.5652 8.04093 52.3026C8.11942 52.0534 8.0889 52.1095 7.94716 52.4693C7.99077 52.3777 8.04093 52.2895 8.09762 52.2045C7.39876 52.6105 6.69991 53.0154 6.00106 53.4214C6.44914 53.3685 5.35344 53.2548 5.67289 53.3651C5.60966 53.3431 5.00128 53.0408 5.34908 53.2548C4.66985 52.8367 4.96857 52.9228 5.11467 53.0894C5.19863 53.1842 5.28585 53.2825 5.37306 53.3751C5.64127 53.6575 5.00565 52.8632 5.25314 53.214C5.31746 53.3055 5.38396 53.3971 5.44829 53.4898C5.60311 53.7138 5.75247 53.9433 5.90293 54.1706C6.69772 55.3688 7.4958 56.4997 8.89569 56.9918C10.6292 57.6008 12.4238 55.6887 11.883 53.9687C11.3935 52.414 10.9977 50.832 10.7099 49.2266C10.6357 48.8139 10.5725 48.4002 10.5104 47.9854C10.4308 47.4558 10.5583 48.452 10.4973 47.8729C10.4777 47.682 10.4537 47.491 10.434 47.2992C10.3512 46.4782 10.301 45.6551 10.2814 44.8299C8.90005 45.4091 7.5176 45.9884 6.13625 46.5676C5.73394 46.0468 6.21365 46.6934 6.28343 46.7971C6.41535 46.9945 6.54182 47.1954 6.66393 47.4007C6.87653 47.757 7.07278 48.1222 7.25812 48.4929C7.47072 48.9177 7.66697 49.3491 7.85558 49.785C7.90792 49.9052 8.24154 50.6444 7.95806 50.0198C8.0442 50.2097 8.11725 50.406 8.19574 50.5991C8.60677 51.6065 9.04942 52.595 9.49424 53.587C9.53349 53.6741 9.57165 53.7612 9.60981 53.8485C9.48879 53.5549 9.47898 53.5362 9.58037 53.7932C9.64579 53.9951 9.70576 54.1904 9.76027 54.3957C9.94453 55.0886 10.2465 55.7395 10.7731 56.236C11.5341 56.9553 12.7944 57.2213 13.7158 56.62C14.6207 56.0297 15.1298 54.9264 14.8322 53.8451C14.5476 52.8135 14.4243 51.7521 14.2587 50.6963C14.0798 49.5598 13.8662 48.4267 13.6514 47.2969C13.2153 45.0108 12.7356 42.7336 12.2493 40.4575C11.3128 36.074 10.3348 31.6916 8.98182 27.4172C8.59806 26.2025 8.16522 25.0043 7.764 23.7962C7.5634 23.1905 7.37805 22.5781 7.16872 21.9758C7.07823 21.7154 6.98882 21.4428 6.86236 21.1967C6.75006 20.9838 6.73262 20.9673 6.80785 21.1482C6.87217 21.327 6.86889 21.3115 6.80021 21.0997C6.80785 21.2111 6.75661 21.6259 6.81984 21.2376C6.80239 21.3402 6.78387 21.4428 6.76642 21.5466C6.78931 21.4285 6.82092 21.3137 6.86236 21.2012C5.86695 21.7738 4.87154 22.3454 3.87504 22.9179C3.74422 22.865 3.61229 22.812 3.48147 22.7602C3.68207 22.8937 3.60467 22.8297 3.24924 22.5715C3.28848 22.6355 3.38879 22.7304 3.44767 22.7811C3.66571 22.9699 3.10205 22.2405 3.32229 22.63C3.38552 22.7426 3.45748 22.8495 3.51963 22.9621C3.74313 23.367 3.92084 23.7951 4.11164 24.2166C4.59679 25.2934 5.19972 26.3195 5.70668 27.3875C6.00106 28.0087 6.28561 28.6343 6.56036 29.2654C6.68465 29.5512 6.81003 29.8368 6.92778 30.126C6.72281 29.6217 6.85472 29.9505 6.89834 30.0587C6.9921 30.2903 7.08695 30.5221 7.17962 30.7548C7.67679 32.0038 8.13796 33.2649 8.58823 34.5316C10.5431 40.0315 12.5622 45.5117 14.3787 51.0603C15.3958 54.1673 16.3814 57.3084 17.9448 60.1892C18.8476 61.8541 21.2014 61.7096 22.138 60.1892C22.6286 59.3914 22.6776 58.4824 22.5784 57.5776C22.4933 56.8054 22.4531 56.0264 22.3876 55.2529C22.2502 53.6278 22.1293 52.0015 21.9973 50.3763C21.7325 47.1138 21.3726 43.8524 20.7948 40.6306C19.6893 34.4664 17.6995 28.4544 15.4623 22.6256C14.8048 20.9144 14.1082 19.2218 13.3668 17.5459C13.1836 17.1332 13.0016 16.7206 12.8239 16.3058C12.8185 16.2925 12.5743 15.7067 12.7214 16.0652C12.8534 16.3875 12.5786 15.7056 12.5546 15.6437C12.3943 15.2345 12.2504 14.8207 12.1011 14.4081C12.0444 14.2514 11.9953 14.077 11.9266 13.9258C11.8601 13.6545 11.8568 13.7075 11.9179 14.0847C11.8361 14.4632 11.8394 14.5195 11.9288 14.2558C10.9334 14.8285 9.93798 15.3999 8.94149 15.9725C8.63839 15.8832 8.14886 15.5842 8.05183 15.2499C8.07254 15.2841 8.09326 15.3172 8.11397 15.3514C8.22628 15.5753 8.19574 15.4893 8.02131 15.0932C8.09108 15.3039 8.18157 15.5091 8.26552 15.7144C8.56207 16.4447 8.83791 17.1829 9.1192 17.9199C9.66214 19.3465 10.2585 20.7521 10.8135 22.1743C11.9299 25.0363 12.9656 27.9292 13.9457 30.842C15.8821 36.5914 17.4803 42.4534 19.5126 48.1707C20.0905 49.797 20.6912 51.4156 21.2745 53.0397C21.5656 53.8517 21.8643 54.6626 22.1336 55.4813C22.4553 56.4588 22.7464 57.346 23.4462 58.1304C24.5998 59.4235 27.1979 58.8553 27.5042 57.0458C27.7844 55.3886 27.6984 53.7635 27.6448 52.093C27.5925 50.4204 27.502 48.7477 27.3724 47.0796C27.0998 43.5832 26.6135 40.1154 26.0694 36.6521C25.0305 30.0488 23.8267 23.4652 22.2078 16.9799C21.752 15.1539 21.2832 13.3301 20.81 11.5085C20.5931 10.6733 20.3958 9.82818 20.1254 9.00951C20.0065 8.65094 19.879 8.29566 19.7776 7.93157C19.7351 7.77821 19.7034 7.62265 19.6652 7.46817C19.6184 7.19676 19.6281 7.26847 19.6936 7.68112C19.6882 7.59065 19.6882 7.50017 19.6947 7.4086C18.1868 7.82233 16.678 8.23498 15.1701 8.64873C15.3544 8.95876 15.5278 9.2732 15.6891 9.59537C15.8548 9.92637 16.1655 10.392 16.2222 10.7627C16.2211 10.7528 16.0533 10.3379 16.1536 10.6027C16.1862 10.6888 16.2222 10.7748 16.2561 10.8598C16.3236 11.0319 16.3902 11.204 16.4555 11.3761C16.6071 11.7744 16.7532 12.1749 16.9003 12.5754C17.4629 14.1047 17.995 15.6394 18.4529 17.2038C19.3993 20.4388 20.1265 23.7333 20.9637 26.9981C22.6776 33.6764 23.8944 40.4717 25.6366 47.1424C26.6277 50.9389 27.7844 54.6903 28.9892 58.4216C29.3108 59.4157 30.2376 60.2752 31.3311 60.2256C32.4867 60.1737 33.2565 59.4753 33.673 58.4216C33.9847 57.6317 33.8812 56.727 33.8147 55.9017C33.7481 55.0776 33.7885 54.2401 33.7928 53.4137C33.8015 51.5182 33.7253 49.6426 33.566 47.7537C33.4047 45.8339 33.3884 43.9131 33.2847 41.99C33.1757 39.962 32.8596 37.9507 32.4681 35.9603C31.0149 28.5537 28.3198 21.4516 25.2953 14.5713C24.4624 12.678 23.5543 10.8201 22.67 8.95104C22.2209 8.00218 21.7783 7.04892 21.3563 6.08682C21.197 5.72493 21.0194 5.37628 20.8471 5.02212C20.8155 4.95703 20.7894 4.87427 20.749 4.8158C21.0357 5.22623 20.8733 5.14127 20.8002 4.9162C20.7817 4.85661 20.7718 4.76614 20.7425 4.71318C20.7774 5.13024 20.7926 5.24167 20.7872 5.04859C20.7839 4.99012 20.7872 4.93164 20.7981 4.87317C19.5802 5.58039 18.3624 6.28762 17.1445 6.99486C17.4848 7.22324 16.7238 6.60758 17.1523 6.99817C17.258 7.09526 17.3594 7.19676 17.4564 7.30268C17.5218 7.37439 17.5818 7.45273 17.6483 7.52334C17.825 7.7098 17.4946 7.31261 17.4968 7.31702C17.5971 7.48804 17.7312 7.64581 17.8391 7.81351C18.2065 8.38283 18.5205 8.98414 18.8454 9.57883C19.6304 11.0153 20.5048 12.3989 21.2799 13.8421C22.9437 16.9391 24.4188 20.1332 25.9037 23.3195C27.4366 26.6108 29.0077 29.8843 30.5133 33.1887C31.2776 34.8658 32.0266 36.5506 32.7484 38.2474C32.8399 38.4626 32.9315 38.6789 33.022 38.8951C33.2085 39.3354 32.9043 38.6071 33.0863 39.0485C33.2652 39.481 33.4418 39.9135 33.6173 40.3471C33.9651 41.211 34.3053 42.0793 34.6346 42.951C35.1447 44.3014 35.4403 45.6894 35.8349 47.0751C36.2917 48.6761 36.9688 50.448 38.2912 51.5259C38.9858 52.0919 39.7479 52.4108 40.6539 52.1581C41.4618 51.933 42.1355 51.2677 42.3503 50.4413C42.5825 49.5444 42.4866 48.6761 42.48 47.768C42.4746 46.9119 42.4244 46.0578 42.347 45.205C42.1781 43.3602 41.9218 41.5189 41.5424 39.7061C40.8577 36.4303 39.8143 33.2307 38.6194 30.1116C36.3266 24.1294 33.0874 18.6514 29.2836 13.5342C28.0832 11.919 26.7967 10.3798 25.4948 8.84953C25.2027 8.5064 24.9116 8.16327 24.6216 7.81904C24.4722 7.6425 24.3283 7.46045 24.1779 7.28502C24.0099 7.08753 24.3392 7.50017 24.3305 7.48804C24.2727 7.40198 24.2051 7.32033 24.144 7.23647C23.5836 6.48071 23.0418 5.67528 22.3342 5.0508C21.583 4.38881 20.629 4.13836 19.6817 4.54217C18.7768 4.92833 18.2229 5.79444 18.189 6.78742C18.1432 8.14671 18.9632 9.36588 19.7394 10.4008C20.5059 11.4214 21.1775 12.4695 21.7978 13.5894C23.3537 16.3985 24.6652 19.3455 26.0989 22.2196C29.1091 28.2547 32.1825 34.2589 35.3574 40.2091C36.2045 41.7969 37.0637 43.379 37.854 44.9964C38.0535 45.4047 38.2487 45.8151 38.4384 46.2289C38.5332 46.4352 38.6259 46.6416 38.7175 46.8489C38.7568 46.9373 38.795 47.0266 38.8332 47.1149C38.856 47.1678 39.0218 47.5617 38.8996 47.2661C38.7819 46.9803 38.9061 47.2826 38.9247 47.3289C38.9727 47.448 39.0207 47.5661 39.0676 47.6864C39.1492 47.8938 39.2278 48.1023 39.3052 48.312C39.4687 48.7567 39.6203 49.2046 39.762 49.6569C41.2415 49.0258 42.721 48.3948 44.2005 47.7636C43.9682 47.3653 44.3378 48.1873 44.2179 47.7626C44.2267 47.7934 44.2332 48.2645 44.2725 48.0262C44.2844 47.9534 44.2725 47.8629 44.2746 47.7879C44.2855 47.4061 44.3204 47.0299 44.291 46.647C44.2484 46.1097 44.1655 45.5746 44.0806 45.0428C44.05 44.853 44.0173 44.6633 43.9857 44.4735C43.9704 44.3786 43.9573 44.2827 43.9399 44.1877C43.8734 43.8346 43.9769 44.6268 43.9486 44.2683C43.8069 42.4611 43.5397 40.6605 43.1353 38.894C42.4342 35.8301 41.4955 32.7806 40.4642 29.8148C39.4012 26.7597 38.0874 23.7874 36.1707 21.178C34.4644 18.8544 32.8334 16.4713 31.004 14.2425C28.9576 11.7491 26.5688 9.44312 23.7145 7.92275C22.8369 7.45494 21.8141 7.49245 21.0172 8.11471C20.3086 8.66859 19.8037 9.78735 20.1471 10.6976C20.543 11.748 21.1349 12.3735 22.0104 13.0256C22.1227 13.1095 22.2372 13.19 22.3505 13.2717C22.4128 13.3168 22.7889 13.5772 22.4171 13.3136C22.0442 13.0487 22.4258 13.3445 22.4781 13.3953C22.645 13.5585 22.8041 13.7295 22.96 13.9028C23.4093 14.4004 23.8278 14.9255 24.2945 15.4054C24.9235 16.052 25.6595 16.5849 26.3835 17.1156C26.655 17.3143 26.9285 17.5106 27.1979 17.7114C27.32 17.803 27.4443 17.8923 27.5642 17.9884C27.0802 17.5999 27.5675 18.0016 27.647 18.0689C28.2565 18.5918 28.8093 19.1832 29.3533 19.7735C30.3804 20.889 31.3791 22.0375 32.3559 23.1993C32.841 23.7763 33.3153 24.36 33.782 24.9525C33.9749 25.1974 34.1744 25.4391 34.3576 25.6917C33.9967 25.1942 34.3696 25.7083 34.4306 25.7899C34.5812 25.9885 34.7294 26.1883 34.8777 26.389C35.7651 27.5883 36.622 28.8119 37.4561 30.0509C39.0937 32.4838 40.6342 34.9806 42.2576 37.4233C42.938 38.4472 43.5005 39.5008 44.0674 40.5876C44.9462 42.2724 46.8553 43.3878 48.6629 42.3993C50.7628 41.2518 50.681 38.4714 50.4214 36.4039C50.3823 36.0938 50.3398 35.7837 50.2983 35.4737C50.2688 35.2552 50.2416 34.9176 50.3582 35.9261C50.3376 35.744 50.3124 35.5631 50.2885 35.381C50.1751 34.5084 50.0628 33.6356 49.9189 32.7684C49.6866 31.3738 49.3682 29.9903 48.8493 28.6739C48.2464 27.1437 47.4581 25.7049 46.6819 24.2596C45.9896 22.9699 45.2308 21.7308 44.3641 20.5525C42.2686 17.7037 39.9332 14.9796 37.4943 12.4265C36.3452 11.2239 35.1099 10.1161 33.9389 8.93889C33.4091 8.406 32.9272 7.89075 32.3166 7.44501C31.4095 6.78191 30.3281 6.57118 29.2378 6.82273C27.7681 7.16256 26.9363 9.14412 27.7866 10.4328C28.045 10.8234 28.3186 11.1786 28.673 11.4776C28.8671 11.6409 29.0939 11.8108 29.2825 11.9554C28.7145 11.5218 29.1701 11.8792 29.2737 11.9763C29.4863 12.1749 29.6869 12.3879 29.8766 12.6096C29.9834 12.7343 30.1252 12.8711 30.2081 13.0145C30.1514 12.9418 30.0958 12.8678 30.0391 12.795C30.1089 12.8887 30.1764 12.9826 30.2441 13.0775C31.0737 14.2415 31.8599 15.4386 32.6786 16.6103C34.3216 18.9636 35.958 21.3214 37.5837 23.687C40.8349 28.4158 44.2582 33.0309 47.3404 37.8767C48.7719 40.1264 49.8676 42.6497 52.1605 44.1657C53.495 45.0483 55.3157 44.1591 55.7278 42.6972C56.1857 41.072 55.5403 39.4788 54.9111 38.0102C54.885 37.9507 54.7956 37.6638 54.7509 37.6395C54.788 37.7289 54.8251 37.8183 54.8621 37.9087C54.8186 37.8018 54.7749 37.6947 54.7313 37.5866C54.6222 37.3152 54.5176 37.0427 54.4118 36.7701C54.0913 35.9405 53.7652 35.113 53.4142 34.2965C52.8408 32.9625 52.0645 31.7942 51.2447 30.6059C50.3463 29.3029 49.4272 28.0153 48.4928 26.7377C46.5794 24.1206 44.6061 21.5476 42.6141 18.9924C42.1748 18.4297 41.7342 17.8669 41.2992 17.301C41.2426 17.227 40.8425 16.7118 41.2087 17.1829C41.09 17.0296 40.9734 16.8739 40.8555 16.7184C40.62 16.4084 40.3845 16.0972 40.149 15.7861C39.1199 14.429 38.0917 13.0708 37.0157 11.7513C36.2699 10.8377 35.523 9.92306 34.7719 9.01392C33.9836 8.05846 32.9109 6.83376 31.6298 6.64068C30.5875 6.48401 29.4286 6.73447 28.8877 7.77048C28.4113 8.68182 28.4299 10.0301 29.2671 10.7484C30.581 11.8737 31.6963 13.1977 32.8944 14.4434C34.133 15.731 35.5133 16.8496 36.8968 17.9706C38.4373 19.2197 39.9234 20.5282 41.5054 21.7242C42.2195 22.2637 42.9434 22.791 43.6619 23.3262C44.0205 23.5932 44.3902 23.8536 44.7336 24.1405C44.6704 24.0874 44.3465 23.8304 44.6965 24.1139C44.7663 24.1702 44.8371 24.2254 44.9059 24.2827C45.0628 24.413 45.2155 24.5476 45.3649 24.6865C46.6906 25.9234 47.8343 27.4273 49.5242 28.1885C50.3419 28.5571 51.1629 28.6696 51.9751 28.1885C52.6827 27.7692 53.2245 26.9175 53.1776 26.0668C53.109 24.8179 52.5627 23.7554 51.913 22.7205C51.3537 21.8289 50.8118 20.9286 50.2154 20.0615C48.8798 18.1163 47.3415 16.3322 45.7029 14.6442C42.6938 11.5438 39.3335 8.83629 36.2306 5.83858C34.495 4.16153 32.7015 2.45028 30.5766 1.28517C29.6597 0.782058 28.3743 0.853774 27.634 1.66913C26.8773 2.50324 26.7367 3.64296 27.2545 4.64699C27.8269 5.75582 28.7351 6.62745 29.6433 7.45273C30.546 8.2736 31.3322 9.18715 32.1041 10.1338C32.5139 10.6369 32.9174 11.1466 33.3142 11.6597C33.3186 11.6652 33.7089 12.1738 33.4811 11.8748C33.2532 11.5769 33.6402 12.0856 33.6457 12.0922C33.8801 12.4022 34.1134 12.7145 34.3456 13.0267C35.232 14.2193 36.1064 15.4198 37.0277 16.5849C40.3333 20.761 44.0533 24.6093 47.6196 28.5548C48.6269 29.6692 49.6408 30.7758 50.6799 31.8592C51.7854 33.0122 52.8659 34.1839 54.2091 35.0623C54.9297 35.5333 55.936 35.4913 56.6599 35.0623C57.3261 34.6683 57.9682 33.768 57.8625 32.9405C57.6619 31.3716 57.3326 29.8733 56.7799 28.3915C56.2968 27.0996 55.8336 25.8264 55.4574 24.4957C54.691 21.7893 53.7359 19.181 52.4374 16.6831C50.0268 12.0425 46.4028 8.01653 41.9098 5.36746C39.2517 3.79964 36.2634 2.76362 33.1692 2.69853C31.899 2.67204 30.6834 3.84819 30.7412 5.15561C30.8034 6.50056 31.8108 7.57519 33.1714 7.60388V7.60388Z" fill="#CDE5F2"/>
                <path fill-rule="evenodd" clip-rule="evenodd" d="M15.4709 29.318C14.5824 29.318 13.8596 30.0671 13.8596 30.9884C13.8596 31.8876 14.5824 32.6202 15.4709 32.6202C16.3595 32.6202 17.0824 31.8887 17.0824 30.9884C17.0824 30.0682 16.3595 29.318 15.4709 29.318V29.318Z" fill="#284764"/>
                <path fill-rule="evenodd" clip-rule="evenodd" d="M42.4477 29.318C41.5591 29.318 40.8352 30.0671 40.8352 30.9884C40.8352 31.8876 41.558 32.6202 42.4477 32.6202C43.3362 32.6202 44.059 31.8887 44.059 30.9884C44.059 30.0682 43.3362 29.318 42.4477 29.318V29.318Z" fill="#284764"/>
                <path fill-rule="evenodd" clip-rule="evenodd" d="M28.9596 29.318C28.071 29.318 27.3481 30.0671 27.3481 30.9884C27.3481 31.8876 28.071 32.6202 28.9596 32.6202C29.8481 32.6202 30.571 31.8887 30.571 30.9884C30.571 30.0682 29.8481 29.318 28.9596 29.318V29.318Z" fill="#284764"/>
                <path fill-rule="evenodd" clip-rule="evenodd" d="M28.9584 2.28651C13.3415 2.28651 0.635631 15.1446 0.635631 30.9486C0.635631 35.2283 1.62013 39.4408 3.56189 43.469L3.90968 44.1895L3.829 44.5624L0.622548 59.3711C0.597472 59.4881 0.671609 59.6051 0.789357 59.6304C0.820974 59.6371 0.853683 59.6371 0.883119 59.6304L15.8338 56.2542L16.5512 56.6095C20.6189 58.6264 24.7936 59.6492 28.9584 59.6492C44.5752 59.6492 57.2811 46.7734 57.2811 30.9486C57.28 15.1446 44.5752 2.28651 28.9584 2.28651V2.28651ZM28.9584 59.2101C24.399 59.2101 19.8493 58.0516 15.8001 55.8615C15.7565 55.8383 15.7008 55.8317 15.6474 55.8427L1.09248 59.1107L4.31965 44.3362C4.33163 44.2833 4.32401 44.2281 4.29892 44.1818C2.15657 40.1072 1.06958 35.6542 1.06958 30.9486C1.06958 15.3862 13.5803 2.72563 28.9584 2.72563C44.3365 2.72563 56.8472 15.3862 56.8472 30.9486C56.8461 46.5319 44.3365 59.2101 28.9584 59.2101V59.2101Z" fill="#284764"/>
                <path fill-rule="evenodd" clip-rule="evenodd" d="M28.9587 60.2759C24.698 60.2759 20.4318 59.2322 16.279 57.1734L15.7557 56.9141L1.01646 60.2428C0.903077 60.2693 0.776607 60.2705 0.655588 60.2428C0.206401 60.1436 -0.080337 59.6934 0.0177863 59.2388L3.26021 44.269L3.00727 43.7439C1.0241 39.6295 0.0177863 35.3245 0.0177863 30.9497C0.0177863 14.8004 13.0006 1.66214 28.9587 1.66214C44.9169 1.66214 57.8985 14.8004 57.8985 30.9486C57.8985 47.12 44.9169 60.2759 28.9587 60.2759V60.2759ZM15.7011 55.2128C15.8384 55.2128 15.9714 55.2459 16.0914 55.3099C20.0513 57.4525 24.5006 58.5857 28.9586 58.5857C43.9955 58.5857 56.2292 46.1877 56.2292 30.9497C56.2292 15.7328 43.9955 3.35242 28.9586 3.35242C13.9217 3.35242 1.68799 15.7328 1.68799 30.9497C1.68799 35.5528 2.7499 39.9054 4.84538 43.8895C4.93914 44.0682 4.9664 44.2746 4.92388 44.4731L1.90604 58.2888L15.5147 55.2338C15.5768 55.2194 15.6389 55.2128 15.7011 55.2128V55.2128Z" fill="#284764"/>
                </g>
                </g>
                </svg>