<svg width="58" height="56" viewBox="0 0 58 56" fill="none" xmlns="http://www.w3.org/2000/svg">
                <mask id="mask0_0_156" style="mask-type:alpha" maskUnits="userSpaceOnUse" x="0" y="0" width="58" height="56">
                <rect y="0.622192" width="58" height="54.7778" fill="white"/>
                </mask>
                <g mask="url(#mask0_0_156)">
                <mask id="mask1_0_156" style="mask-type:alpha" maskUnits="userSpaceOnUse" x="0" y="0" width="58" height="55">
                <rect y="0.939743" width="57.2578" height="53.7037" fill="white"/>
                </mask>
                <g mask="url(#mask1_0_156)">
                <path fill-rule="evenodd" clip-rule="evenodd" d="M52.751 11.8759C52.751 12.4902 52.747 13.1043 52.749 13.7186C52.75 13.9928 52.7589 14.2652 52.7759 14.5395C52.7828 14.6608 52.7937 14.783 52.7977 14.9043C52.8136 15.3634 52.6476 15.426 52.9925 14.6886C53.237 14.444 53.4814 14.1996 53.727 13.9541C53.8254 13.9133 53.9238 13.8726 54.0221 13.8318C54.385 13.8318 54.7477 13.8318 55.1094 13.8318C55.4185 13.8836 55.6431 14.0326 55.7833 14.279C55.7147 14.1886 55.6461 14.0982 55.5765 14.0077C55.4314 13.817 55.2863 13.6251 55.1402 13.4343C54.7795 12.9632 54.4207 12.4881 54.0291 12.0419C53.9546 11.9574 53.6892 11.7577 53.6693 11.6364C53.878 11.9087 53.9148 11.9565 53.7807 11.7766C53.7279 11.7049 53.6753 11.6343 53.6216 11.5628C53.3454 11.1951 53.073 10.8184 52.7629 10.4775C52.3594 10.0353 51.8595 9.62877 51.2692 9.4777C50.2673 9.22029 49.2089 9.69635 48.7159 10.5958C48.0738 11.7675 48.7616 13.1024 49.2078 14.2234C49.9662 16.1276 50.8696 17.9654 51.7164 19.8299C51.8188 20.0554 51.9201 20.282 52.0186 20.5096C52.0314 20.5395 52.264 21.102 52.103 20.7064C52.2899 21.1666 52.4727 21.6268 52.6476 22.0919C52.7997 22.4984 52.9736 22.8959 53.1535 23.2905C53.3026 23.6165 53.0054 22.8253 53.1655 23.3571C53.1873 23.4237 53.2042 23.4922 53.2181 23.5609C53.1465 23.3034 53.1416 23.044 53.2032 22.7837C54.3432 22.4825 55.4831 22.1813 56.6231 21.8812C56.5098 21.742 56.4939 21.7132 56.6112 21.8733C56.5406 21.7768 56.4701 21.6814 56.4005 21.584C56.2444 21.3663 56.0913 21.1457 55.9333 20.9291C55.5856 20.454 55.2197 19.9928 54.8441 19.5396C54.6741 19.3338 54.5021 19.1302 54.3332 18.9234C54.2586 18.832 54.1852 18.7386 54.1096 18.6471C54.2338 18.7982 54.213 18.7882 54.1056 18.6391C53.8154 18.2376 53.559 17.8203 53.3056 17.3948C52.8434 16.6216 52.1408 16.0372 51.1956 16.0472C50.1948 16.0571 49.2476 16.7627 49.0041 17.7477C48.7954 18.5954 49.1552 19.3408 49.4791 20.0972C49.5765 20.3248 49.6789 20.5424 49.8071 20.7552C49.8628 20.8475 49.9224 20.938 49.9771 21.0314C50.006 21.0772 50.0327 21.1249 50.0586 21.1726C50.1401 21.3226 50.1133 21.266 49.9791 21.0046C49.9791 20.6419 49.9791 20.279 49.9791 19.9173C49.9691 19.9481 49.9592 19.9789 49.9492 20.0087C50.1242 19.7076 50.3001 19.4065 50.475 19.1062C50.5615 19.0358 50.6479 18.9652 50.7344 18.8947C51.0783 18.8012 51.4232 18.7087 51.767 18.6153C51.7342 18.6153 51.7015 18.6153 51.6677 18.6143C52.0116 18.7078 52.3565 18.8001 52.7003 18.8936C52.7241 18.9055 52.9975 19.1938 52.8533 19.0139C52.8056 18.9552 52.743 18.9026 52.6923 18.8459C52.6397 18.7873 52.592 18.7237 52.5383 18.666C52.3385 18.4533 52.739 18.9463 52.5801 18.7237C52.3445 18.3947 52.092 18.0796 51.8455 17.7576C52.0493 18.0229 51.7829 17.6712 51.7164 17.5827C51.5872 17.4098 51.4599 17.2359 51.3328 17.0609C51.0982 16.7359 50.8666 16.408 50.639 16.079C49.7107 14.7342 48.854 13.3478 48.0043 11.9535C47.7796 11.5838 47.5679 11.1881 47.2539 10.885C46.6794 10.3294 45.8088 10.0889 45.0336 10.3215C44.1967 10.5729 43.5557 11.2955 43.4394 12.1591C43.3648 12.7148 43.4723 13.2594 43.6481 13.7881C44.1829 15.3943 44.7781 16.9784 45.3437 18.5736C45.6527 19.4472 45.937 20.3288 46.2462 21.2024C46.3942 21.6208 46.5453 22.0392 46.6974 22.4566C46.7838 22.6952 46.8692 22.9347 46.9587 23.1723C46.9865 23.2468 47.0154 23.3213 47.0452 23.3959C47.233 23.8769 46.9488 23.4714 47.1724 22.891C47.3473 22.5898 47.5232 22.2886 47.6982 21.9885C47.6743 22.0114 47.6504 22.0332 47.6266 22.0561C47.9277 21.8812 48.2289 21.7053 48.529 21.5303C48.6453 21.5135 48.7616 21.4976 48.8779 21.4807C49.2218 21.574 49.5667 21.6665 49.9105 21.76C50.1649 21.9259 50.0944 21.8752 49.9284 21.6854C49.8499 21.595 49.7723 21.5025 49.6959 21.4091C49.5985 21.2898 49.4494 21.095 49.6253 21.3256C49.5527 21.2292 49.4802 21.1328 49.4086 21.0364C49.0031 20.4907 48.6006 19.9441 48.1831 19.4074C48.0282 19.2087 47.8731 19.0109 47.717 18.8131C47.5868 18.6482 47.6237 18.6849 47.7289 18.83C47.6464 18.7177 47.562 18.6073 47.4805 18.494C47.1694 18.0628 46.8902 17.6135 46.6566 17.1354C45.5852 17.9624 44.5148 18.7882 43.4434 19.6151C43.509 19.6897 43.8628 20.0127 43.511 19.6778C43.6015 19.7642 43.6681 19.8984 43.7376 20.0018C43.9025 20.2482 44.0567 20.5027 44.2037 20.7601C44.489 21.2581 44.7503 21.7698 45.0227 22.2748C45.6179 23.3779 46.2471 24.4881 46.9259 25.5416C47.9973 24.7147 49.0678 23.8888 50.1391 23.0618C49.4791 22.233 48.8222 21.4022 48.1712 20.5673C47.9934 20.3397 47.8165 20.1112 47.6385 19.8825C47.555 19.7752 47.4746 19.6698 47.6048 19.8397C47.5262 19.7384 47.4477 19.636 47.3702 19.5347C47.0452 19.1113 46.7172 18.6909 46.4061 18.2565C45.924 17.5827 45.4779 16.888 45.0604 16.1734C44.4949 15.2053 43.8359 14.4411 42.7745 14.0217C41.406 13.481 39.6816 15.1527 40.2581 16.5381C40.4757 17.0609 40.6953 17.5807 40.9528 18.0856C41.0482 18.2724 41.1466 18.4573 41.2459 18.6412C41.3125 18.7634 41.5987 19.4462 41.4239 18.8837C41.4239 18.5209 41.4239 18.1582 41.4239 17.7964C41.4695 17.6901 41.5143 17.5847 41.56 17.4784C41.8045 17.2338 42.049 16.9894 42.2944 16.7438C42.4009 16.6982 42.5072 16.6515 42.6126 16.6057C42.9753 16.6057 43.338 16.6057 43.6999 16.6057C43.669 16.5978 43.6382 16.5898 43.6074 16.5819C43.9085 16.7568 44.2097 16.9328 44.5098 17.1076C44.6738 17.3441 44.6778 17.3541 44.5238 17.1365C44.468 17.058 44.4114 16.9804 44.3558 16.9019C44.2434 16.7449 44.1322 16.5888 44.0208 16.4318C43.7784 16.0929 43.5358 15.753 43.2893 15.4161C42.7537 14.6826 42.1971 13.965 41.6356 13.2515C41.5183 13.1024 41.401 12.9533 41.2837 12.8042C41.1963 12.6919 41.2062 12.7048 41.3136 12.8429C41.237 12.7426 41.1605 12.6412 41.0849 12.5398C40.9031 12.2944 40.7133 12.0498 40.5622 11.7834C40.1507 11.0589 39.6796 10.2211 38.7673 10.0631C37.1751 9.78779 35.9436 10.9655 36.2507 12.5795C36.5042 13.9143 37.34 14.9191 38.0367 16.0353C38.3826 16.5898 38.6449 17.1911 38.9391 17.7735C39.0902 18.0717 39.2463 18.3619 39.4282 18.6421C39.4997 18.7525 39.5742 18.8599 39.6448 18.9702C39.7104 19.0745 39.9569 19.5864 39.7601 19.0973C40.7619 18.3271 41.7637 17.5569 42.7656 16.7866C42.7119 16.7538 42.3581 16.5083 42.5976 16.6902C42.8402 16.8741 42.4754 16.5699 42.4605 16.555C42.2955 16.397 42.1424 16.2261 41.9943 16.0512C41.6793 15.6804 41.3921 15.2859 41.074 14.9171C40.9676 14.794 39.939 13.808 39.9798 13.7265C39.949 13.7881 40.2341 14.0743 40.0394 13.7493C39.9271 13.5616 39.7204 13.2892 39.6041 13.1709C39.3606 12.9225 39.0803 12.6978 38.7652 12.5498C38.0864 12.2307 37.3748 12.1552 36.7 12.5498C36.1016 12.9006 35.6515 13.6062 35.6863 14.3159C35.7518 15.6406 36.2687 16.7807 36.8222 17.9643C36.869 18.0638 36.9136 18.1631 36.9604 18.2615C37.184 18.7326 36.861 18.01 36.9732 18.2794C37.0886 18.5566 37.2008 18.836 37.3281 19.1083C37.4245 19.316 37.5249 19.5217 37.6223 19.7294C37.7515 20.0037 37.5726 19.7294 37.5905 19.648C37.6163 19.7126 37.6401 19.7782 37.6621 19.8437C37.7127 20.0068 37.7078 19.9252 37.6471 19.5973C37.7406 19.2534 37.833 18.9085 37.9264 18.5646C37.9105 18.5954 37.8946 18.6262 37.8787 18.658C38.1233 18.4136 38.3677 18.1691 38.6131 17.9236C38.7145 17.8829 38.8169 17.8421 38.9183 17.8014C39.2811 17.8014 39.6438 17.8014 40.0056 17.8014C40.2759 17.9256 40.3415 17.9435 40.2023 17.8551C40.0811 17.7696 40.1199 17.8004 40.3196 17.9484C40.3047 17.9594 39.9967 17.6523 39.9808 17.6373C39.776 17.4346 39.5852 17.217 39.3994 16.9973C39.0197 16.5491 38.6629 16.082 38.2584 15.6546C37.2049 14.5395 35.2171 15.091 34.8384 16.557C34.6666 17.2239 34.7202 17.8689 35.0363 18.4841C35.1485 18.7028 35.3195 18.9354 35.4924 19.1132C35.5908 19.2097 35.6962 19.2971 35.8095 19.3747C36.1653 19.6628 36.0948 19.5774 35.5968 19.1183C35.7508 19.4571 36.0629 19.7771 36.2796 20.0803C36.5082 20.4003 36.7377 20.7194 36.9683 21.0384C37.4136 21.6526 37.83 22.2877 38.2315 22.9307C38.4154 23.2249 38.5953 23.5221 38.7712 23.8203C38.8666 23.9832 38.961 24.1472 39.0545 24.3112C39.132 24.4484 39.3347 25.0238 39.1966 24.509C39.1966 24.1462 39.1966 23.7834 39.1966 23.4217C39.1886 23.4545 39.1817 23.4883 39.1737 23.521C39.3487 23.22 39.5246 22.9188 39.6995 22.6187C39.788 22.554 39.8764 22.4895 39.9649 22.4248C40.3087 22.3314 40.6536 22.239 40.9975 22.1456C40.9636 22.1465 40.9309 22.1486 40.8971 22.1495C41.241 22.243 41.5859 22.3353 41.9298 22.4288C42.039 22.4835 42.221 22.722 42.0401 22.5043C42.0252 22.4865 41.8492 22.2818 41.8483 22.2827C41.8731 22.2678 42.0838 22.6197 41.9009 22.3324C41.8473 22.2479 41.7906 22.1654 41.7359 22.082C41.5431 21.7808 41.3533 21.4777 41.1575 21.1786C40.4171 20.0465 39.4282 18.7654 37.8648 19.2226C36.1523 19.7235 35.9894 21.6338 36.2547 23.1066C36.3372 23.5648 36.4863 24.007 36.6334 24.4484C36.703 24.6571 36.7736 24.8658 36.8372 25.0775C36.868 25.1808 36.8977 25.2833 36.9246 25.3875C36.9813 25.6102 36.8938 25.7642 36.9266 25.3418C37.02 24.998 37.1124 24.6531 37.2059 24.3092C37.186 24.34 37.1662 24.3708 37.1463 24.4016C37.3907 24.1572 37.6352 23.9126 37.8807 23.6672C37.8489 23.685 37.8172 23.7039 37.7852 23.7219C38.1292 23.6284 38.4741 23.5359 38.818 23.4425C38.9601 23.4336 39.0933 23.4595 39.2185 23.5201C39.3725 23.5866 39.3646 23.5757 39.1936 23.4883C39.0893 23.4127 38.976 23.3492 38.8706 23.2746C38.7692 23.203 38.6708 23.1265 38.5704 23.0529C38.1858 22.7746 38.9034 23.38 38.5754 23.052C37.8887 22.3632 37.0786 21.7252 36.049 21.8643C34.6795 22.0481 33.8009 23.3462 34.1219 24.6988C34.1775 24.9324 34.268 25.1569 34.3435 25.3845C34.3892 25.5228 34.429 25.6609 34.4698 25.801C34.583 26.1856 34.4687 25.3697 34.4429 25.7464C34.5363 25.4025 34.6288 25.0576 34.7222 24.7137C34.7082 24.7465 34.6933 24.7793 34.6795 24.8121C34.9239 24.5676 35.1685 24.3231 35.4139 24.0776C35.3921 24.0946 36.5152 23.8619 36.1086 23.8858C35.7419 23.9077 35.402 23.9951 35.076 24.1651C34.6297 24.3977 34.2839 24.7972 34.0901 25.2574C33.8188 25.9004 33.8575 26.6239 34.0782 27.2819C34.3624 28.1316 34.8285 28.9158 35.1823 29.7378C35.1008 29.5489 35.1247 29.6006 35.1903 29.7596C35.237 29.8729 35.2847 29.9872 35.3314 30.1005C35.4249 30.3281 35.5193 30.5547 35.6147 30.7813C35.8612 31.3686 36.1027 31.9619 36.3899 32.5315C36.6255 32.9976 36.8879 33.4488 37.1253 33.914C37.2486 34.1554 37.3589 34.4029 37.4712 34.6494C37.515 34.7458 37.5616 34.8412 37.6074 34.9366C37.7704 35.2735 37.677 35.4008 37.5896 34.5699C37.6829 34.226 37.7754 33.8811 37.8688 33.5373C37.9324 33.4558 37.996 33.3733 38.0596 33.2918C38.3607 33.1169 38.6619 32.941 38.962 32.766C38.9262 32.774 38.8905 32.7819 38.8547 32.7898C39.2174 32.7898 39.5802 32.7898 39.942 32.7898C40.2163 32.9042 40.2451 32.8963 40.0275 32.766C40.0731 32.8028 40.1179 32.8396 40.1636 32.8763C40.0254 32.769 39.8933 32.6527 39.763 32.5355C39.5335 32.3278 39.3188 32.111 39.1201 31.8736C38.5108 31.145 37.8429 30.4832 36.8043 30.5059C35.9934 30.5239 35.3195 30.9632 34.8902 31.6301C34.5005 32.2343 34.5711 32.9856 34.6695 33.6546C34.7799 34.4069 35.0581 35.1354 35.2728 35.8629C36.1544 38.8545 37.0807 41.8163 38.2633 44.7043C39.5097 44.1787 40.7559 43.6539 42.0023 43.1281C41.4546 42.014 40.9279 40.8541 40.2689 39.8007C39.6349 38.7879 38.7275 38.0345 37.4534 38.3257C36.2547 38.5991 35.723 39.735 35.6604 40.862C35.5968 42.018 35.9993 43.151 36.3412 44.2363C36.4932 44.7203 36.6344 45.2053 36.7994 45.6853C36.9068 45.9964 37.0141 46.3085 37.0956 46.6285C37.1344 46.7786 37.1889 46.9445 37.194 47.0996C37.181 47.0211 37.1681 46.9436 37.1552 46.865C37.1562 47.1155 37.1721 47.0688 37.2029 46.726C37.3779 46.4248 37.5537 46.1236 37.7286 45.8235C38.0139 45.5532 38.3448 45.416 38.7195 45.412C39.0952 45.4816 39.1767 45.4896 38.962 45.4359C39.5067 45.6257 39.1926 45.5392 39.0396 45.4488C38.7851 45.2978 38.5535 45.1099 38.318 44.931C37.4345 44.2591 36.3442 43.798 35.2688 44.3893C33.9946 45.091 33.8495 46.714 34.1229 47.9971C34.2282 48.4921 34.4151 48.9621 34.6159 49.4253C34.6626 49.5336 34.7411 49.6529 34.7659 49.7661C34.6556 49.4978 34.6397 49.469 34.7192 49.6787C34.7839 49.9133 34.7799 49.8537 34.7073 49.4998C34.8007 49.1559 34.8931 48.8111 34.9865 48.4671C34.9697 48.496 34.9528 48.5238 34.9349 48.5526C35.1793 48.3082 35.4239 48.0637 35.6693 47.8182C35.7717 47.7735 35.874 47.7287 35.9764 47.6831C36.3392 47.6831 36.7019 47.6831 37.0638 47.6831C37.3202 47.7605 37.3529 47.8023 37.1094 47.6284C36.9991 47.5499 36.8908 47.4723 36.7765 47.3997C35.6286 46.6673 34.1448 47.4067 33.771 48.6222C33.2314 50.3794 35.0064 51.4826 36.2766 52.215C36.6423 52.4257 37.0021 52.6285 37.3499 52.868C37.7127 53.1175 38.0765 53.3649 38.4423 53.6095C38.9412 53.9414 39.462 54.3578 40.0404 54.5348C41.8263 55.0793 43.1442 53.4803 43.0071 51.8205C42.9236 50.8068 42.7974 49.8 42.5708 48.8081C42.361 47.8867 42.0997 46.9774 41.8452 46.068C41.7032 45.5611 41.559 45.0552 41.4129 44.5493C41.3473 44.3227 41.2797 44.0981 41.2052 43.8745C41.1655 43.7652 41.1286 43.6549 41.0929 43.5445C41.0263 43.2871 41.0253 43.3179 41.09 43.639C40.9965 43.9829 40.904 44.3277 40.8106 44.6716C40.8295 44.6428 40.8484 44.6139 40.8663 44.5851C40.6218 44.8296 40.3773 45.0741 40.1318 45.3196C40.1607 45.3017 40.1904 45.2838 40.2193 45.2669C39.8754 45.3604 39.5305 45.4527 39.1867 45.5462C38.8736 45.5761 38.6112 45.5004 38.3985 45.3186C38.2922 45.2351 38.2822 45.2291 38.3696 45.3007C38.4612 45.3871 38.5615 45.4657 38.654 45.5511C38.8388 45.7231 39.0147 45.906 39.1847 46.0928C39.3387 46.2628 39.4858 46.4377 39.6309 46.6155C39.7114 46.715 39.7899 46.8153 39.8705 46.9148C40.1119 47.2169 39.7284 46.7249 39.8794 46.9267C40.5453 47.8132 41.2082 48.7206 42.0123 49.4889C42.5439 49.9958 43.2863 50.2124 44.003 50.0147C44.7434 49.8109 45.1678 49.2712 45.4321 48.5854C45.6527 48.0119 45.6279 47.357 45.4371 46.7796C45.3625 46.558 45.2681 46.3463 45.1519 46.1455C45.0306 45.9577 45.0127 45.9488 45.0992 46.1206C45.1757 46.3015 45.1727 46.2816 45.0902 46.0591C45.0485 45.9378 45.0057 45.8165 44.962 45.6953C44.6708 44.8783 44.3548 44.0703 44.0189 43.2702C43.8887 42.9592 43.7565 42.6481 43.6233 42.3379C43.7863 42.7146 43.5487 42.1551 43.5388 42.1303C43.3739 41.7268 43.2118 41.3223 43.0548 40.9158C42.8977 40.5103 42.7456 40.1028 42.6006 39.6923C42.538 39.5163 42.4773 39.3405 42.4177 39.1636C42.372 39.0274 42.21 38.2731 42.2518 38.8853C42.1583 39.2291 42.0659 39.574 41.9724 39.9179C41.9049 40.0034 41.8373 40.0888 41.7697 40.1743C41.4686 40.3493 41.1674 40.5252 40.8673 40.7001C40.8991 40.6902 40.9309 40.6802 40.9627 40.6703C40.6 40.6703 40.2371 40.6703 39.8754 40.6703C39.1658 40.5659 39.1538 40.1605 39.3894 40.5023C39.455 40.5977 39.5394 40.6912 39.613 40.7826C39.3805 40.4924 39.5782 40.7368 39.6219 40.7955C39.6936 40.8919 39.7661 40.9873 39.8366 41.0837C40.1577 41.5181 40.4687 41.9603 40.7769 42.4036C41.3384 43.2156 41.887 44.0365 42.4584 44.8405C43.7137 46.6066 45.0922 48.3032 46.4916 49.957C46.8514 50.3814 47.2589 50.761 47.72 51.0751C48.5946 51.6724 49.9016 51.6058 50.64 50.8008C51.6398 49.7115 51.3725 47.9971 51.0813 46.6792C50.6231 44.605 49.9572 42.5785 49.2625 40.5739C48.8699 39.4408 48.4346 38.3238 48.0152 37.2017C47.8154 36.668 47.6197 36.1323 47.4358 35.5926C47.3344 35.2934 47.2351 34.9933 47.1416 34.6912C47.1038 34.5709 47.068 34.4496 47.0323 34.3284C47.0143 34.2678 46.9975 34.2072 46.9795 34.1465C46.8822 33.7301 46.8563 33.911 46.904 34.6872C46.7292 34.9884 46.5532 35.2894 46.3783 35.5896C46.2859 35.6632 46.1944 35.7367 46.102 35.8093C45.7581 35.9027 45.4132 35.9951 45.0694 36.0885C44.9451 36.0717 44.8199 36.0537 44.6956 36.0369C44.3946 35.8619 44.0934 35.686 43.7932 35.5111C43.4524 35.191 43.7226 35.4157 43.8151 35.5459C43.9046 35.6731 43.994 35.8004 44.0824 35.9285C44.2603 36.1839 44.4362 36.4404 44.6082 36.6987C44.9481 37.2076 45.2741 37.7245 45.5832 38.2522C46.2401 39.3733 46.8822 40.4636 47.7011 41.4773C48.3402 42.2674 49.6551 42.2028 50.3876 41.6373C51.1598 41.041 51.4699 39.8612 50.9143 38.9976C48.9405 35.9325 46.5909 33.1377 44.4919 30.1621C43.9651 29.4158 43.4543 28.6573 42.9713 27.8812C42.7537 27.5313 42.542 27.1785 42.3362 26.8207C42.1603 26.5146 41.9953 26.2095 41.7569 25.9451C41.6345 25.8109 41.2896 25.5605 41.2489 25.5396C41.1615 25.4929 40.743 25.2474 40.6318 25.3031C40.909 25.1649 41.4338 25.8139 41.4786 25.9014C41.4179 25.7831 41.3205 25.6738 41.2459 25.5625C40.9727 25.158 40.6914 24.7604 40.3763 24.3858C39.8983 23.8163 39.2711 23.4505 38.5138 23.4097C37.4961 23.3551 36.5778 24.1035 36.2796 25.0436C35.9457 26.0981 36.5181 27.3763 36.9136 28.3463C37.3152 29.3312 37.7545 30.2982 38.2395 31.2445C39.0952 32.9162 40.0345 34.5491 40.9756 36.1731C41.9058 37.7791 42.8779 39.3703 44.0049 40.8482C44.5853 41.6095 45.3208 42.0348 46.2918 41.9037C47.2896 41.7695 48.06 40.9655 48.1931 39.9745C48.3392 38.8882 47.6167 37.7056 47.2141 36.7216C46.3803 34.6862 45.5574 32.6468 44.7702 30.5935C44.3617 29.527 43.9433 28.4655 43.508 27.4091C43.2625 26.8148 43.019 26.2184 42.7636 25.628C42.7308 25.5525 42.697 25.4392 42.6523 25.3747C42.7318 25.4889 42.7706 25.6927 42.6871 25.4443C42.6563 25.3537 42.6285 25.2405 42.5897 25.151C42.5767 25.1013 42.5638 25.0526 42.5509 25.0029C42.5926 25.1898 42.5827 25.3747 42.5191 25.5575C42.3442 25.8586 42.1682 26.1598 41.9934 26.4599C41.9029 26.5276 41.8135 26.5942 41.723 26.6617C41.3791 26.7552 41.0342 26.8475 40.6904 26.941C39.9688 26.6856 39.7789 26.6667 40.1209 26.8844C40.3047 27.0214 40.3018 27.0174 40.1109 26.8714C40.2899 27.0135 40.4647 27.1586 40.6367 27.3087C40.9856 27.6118 41.3215 27.9308 41.6494 28.2568C42.2607 28.866 42.8421 29.5051 43.4245 30.1423C44.0099 30.7823 44.5575 31.4471 45.119 32.1071C45.7432 32.8405 46.5442 33.7679 47.5004 34.0183C48.4913 34.2778 49.5616 33.8126 50.0606 32.9211C50.4164 32.284 50.4353 31.5426 50.2365 30.8559C50.156 30.6442 50.0656 30.4364 49.9672 30.2337C49.8359 30.013 49.8489 30.0518 50.006 30.35C49.9184 30.3052 49.8191 29.7497 49.7852 29.6433C49.6342 29.1732 49.4762 28.7061 49.3112 28.2419C49.0131 27.4031 48.697 26.5732 48.4207 25.7264C48.2726 25.2703 48.1315 24.8121 48.0142 24.347C47.9555 24.1164 47.9029 23.8848 47.8581 23.6513C47.8363 23.537 47.8165 23.4217 47.7985 23.3055C47.8125 23.5439 47.8273 23.5747 47.8403 23.3959C47.7469 23.7397 47.6544 24.0846 47.561 24.4285C47.5809 24.4007 47.6017 24.3718 47.6216 24.344C47.3772 24.5884 47.1326 24.833 46.8872 25.0784C46.9169 25.0616 46.9477 25.0457 46.9776 25.0288C46.6337 25.1221 46.2888 25.2146 45.945 25.3081C45.9798 25.306 46.0145 25.3041 46.0493 25.3031C45.7055 25.2097 45.3606 25.1172 45.0167 25.0238C44.7891 24.82 44.7702 24.7992 44.958 24.9611C45.0206 25.0148 45.0823 25.0705 45.1439 25.1261C45.288 25.2574 45.4281 25.3915 45.5653 25.5296C45.8029 25.7692 46.0315 26.0177 46.257 26.2691C46.761 26.8337 47.2419 27.419 47.7578 27.9726C48.2855 28.5391 48.853 29.0698 49.3987 29.6184C50.0467 30.2704 50.5118 30.8737 51.4242 31.2037C52.9159 31.7434 54.3462 30.1014 53.9406 28.6872C53.6763 27.7639 53.3244 26.8714 53.0154 25.963C51.769 26.4888 50.5227 27.0135 49.2764 27.5392C49.3669 27.7341 49.4553 27.9289 49.5428 28.1247C49.5776 28.2022 49.8251 28.7965 49.6611 28.393C49.7992 28.7319 49.9324 29.0718 50.0556 29.4167C50.167 29.7287 50.2623 30.0468 50.3796 30.3579C50.4413 30.5209 50.5098 30.6809 50.5664 30.8459C50.6082 30.9662 50.629 31.3777 50.646 31.0606C50.6112 30.9195 50.6112 30.7774 50.6479 30.6332C50.9253 29.9206 51.4272 29.5499 52.1537 29.521C51.8158 29.531 52.6904 29.6383 52.3187 29.5479C51.9807 29.4654 51.616 29.3908 51.2721 29.3849C49.8509 29.359 48.9942 30.3937 48.7755 31.7016C48.4953 33.3773 48.7049 35.0032 48.9823 36.666C49.1134 37.4541 49.2993 38.2273 49.506 38.9986C49.6024 39.3564 49.7018 39.7132 49.7982 40.07C49.8459 40.2489 49.8936 40.4278 49.9394 40.6077C49.9702 40.7269 49.9999 40.8472 50.0287 40.9674C50.0854 41.2268 50.0874 41.208 50.0338 40.9088C50.1272 40.565 50.2196 40.2201 50.313 39.8762C50.2911 39.9089 50.2693 39.9408 50.2474 39.9736C50.492 39.7291 50.7364 39.4846 50.9819 39.2391C50.9472 39.257 50.9124 39.2749 50.8766 39.2918C51.2204 39.1983 51.5653 39.1059 51.9092 39.0125C51.8674 39.0095 51.8267 39.0076 51.7849 39.0045C52.1289 39.098 52.4737 39.1904 52.8176 39.2838C52.7371 39.2541 52.6615 39.2162 52.5909 39.1686C52.8106 39.3485 52.8344 39.3623 52.6605 39.2102C52.5264 39.0662 52.3852 38.9221 52.2471 38.783C51.6219 38.1558 50.7821 37.8507 49.9006 38.1101C48.6006 38.4928 48.0789 39.8792 48.0758 41.1146C48.0749 41.4316 48.1196 41.7457 48.1464 42.0607C48.1583 42.1998 48.1583 42.337 48.1642 42.4762C48.1504 42.6947 48.1642 42.5994 48.206 42.1909C48.3303 41.7934 48.5787 41.4813 48.9534 41.2567C48.035 41.7109 47.6544 42.9333 47.9317 43.8645C48.0093 44.0881 48.1056 44.3028 48.22 44.5096C48.1334 44.283 48.1294 44.278 48.21 44.4947C48.2617 44.6825 48.3193 44.8664 48.357 45.0582C48.374 45.1387 48.3879 45.2202 48.3998 45.3017C48.364 45.0304 48.3581 45.0125 48.3839 45.249C48.3929 45.4677 48.4138 45.6873 48.4247 45.907C48.4465 46.3442 48.4704 46.7786 48.5241 47.2129C48.6444 48.1839 48.8988 49.0496 49.3877 49.9033C49.6074 50.2869 49.2536 49.47 49.333 49.7831C49.1372 48.8557 49.5258 48.17 50.4979 47.7257C50.303 47.7735 50.3537 47.7695 50.6489 47.7149C50.5416 47.7198 50.4343 47.7158 50.328 47.7049C50.5972 47.7406 50.6142 47.7347 50.3776 47.687C50.1699 47.6095 49.9462 47.5488 49.7346 47.4812C49.2595 47.3302 50.1441 47.7069 49.674 47.4435C49.5269 47.3609 49.3828 47.2705 49.2327 47.192C48.6811 46.9038 48.1703 46.719 47.5441 46.6981C46.4738 46.6623 45.4501 47.6651 45.4977 48.7445C45.5484 49.8834 46.3962 50.7521 47.5441 50.7908C47.1844 50.7202 47.0869 50.7094 47.2539 50.7571C47.397 50.8028 47.3295 50.773 47.0501 50.6657C47.0501 50.6905 47.3155 50.8078 47.3403 50.8216C47.5123 50.9181 47.6793 51.0224 47.8592 51.1069C48.6026 51.4537 49.3499 51.6773 50.164 51.7757C51.0336 51.8811 51.9986 51.6923 52.6476 51.0651C53.3045 50.4301 53.4845 49.5226 53.2678 48.656C53.2926 48.7545 52.6853 47.352 52.6694 47.367C52.6516 47.3838 52.8454 47.8719 52.6983 47.3849C52.6586 47.2537 52.6327 47.1214 52.5979 46.9893C52.4677 46.4825 52.6189 47.4116 52.5771 46.8889C52.5661 46.7527 52.5542 46.6176 52.5453 46.4814C52.5016 45.7748 52.4698 45.08 52.3673 44.3784C52.3276 44.1051 52.2839 43.8338 52.2053 43.5684C52.1567 43.4044 52.0971 43.2494 52.0324 43.0913C51.9639 42.9284 51.8953 42.7653 51.8257 42.6024C51.7193 42.3718 51.7273 42.3937 51.8485 42.668C51.8485 43.0307 51.8485 43.3934 51.8485 43.7553C51.8585 43.7194 51.8684 43.6836 51.8784 43.649C51.7034 43.95 51.5275 44.2512 51.3526 44.5513C50.9351 44.8545 50.9799 44.8137 51.4888 44.4291C51.6249 44.287 51.7471 44.132 51.8555 43.9649C51.9857 43.7542 52.0871 43.5187 52.1527 43.2791C52.2541 42.9075 52.271 42.5 52.2431 42.1164C52.2212 41.8222 52.1785 41.53 52.1705 41.2348C52.1676 41.1553 52.1676 41.0758 52.1705 40.9963C52.1864 40.7727 52.1745 40.8393 52.1348 41.195C52.1487 41.1214 52.1676 41.0499 52.1924 40.9804C52.1368 41.188 52.0374 41.3709 51.8922 41.53C51.5912 41.7049 51.29 41.8808 50.9898 42.0558C51.0206 42.0478 51.0515 42.0408 51.0823 42.0329C50.7195 42.0329 50.3567 42.0329 49.995 42.0329C49.8817 42.012 49.0985 41.4067 49.502 41.8331C49.5895 41.9255 49.677 42.017 49.7704 42.1035C50.0198 42.334 50.2951 42.5616 50.5864 42.7346C51.5822 43.3279 52.9 43.1828 53.6246 42.2446C54.6145 40.9634 53.8055 39.2153 53.4318 37.8208C53.2877 37.2831 53.1515 36.7425 53.0422 36.1958C52.9905 35.9374 52.9468 35.6771 52.905 35.4167C52.8832 35.2805 52.8613 35.1443 52.8404 35.0072C52.8066 34.7866 52.7699 34.6882 52.8305 34.9645C52.7232 34.4735 52.7192 33.9238 52.7162 33.423C52.7152 33.2391 52.6535 32.7332 52.7549 32.5752C52.6904 32.6766 52.6944 32.8952 52.754 32.6239C52.8007 32.4092 52.9597 32.1717 52.7331 32.5225C52.4886 32.7671 52.2441 33.0115 51.9986 33.257C52.0374 33.2391 52.0771 33.2202 52.1159 33.2023C51.7721 33.2957 51.4272 33.3882 51.0833 33.4817C51.5931 33.4369 50.6947 33.3663 51.0326 33.4478C51.132 33.4717 51.2333 33.4925 51.3328 33.5114C51.8595 33.6118 52.3435 33.6616 52.8663 33.5085C54.2806 33.094 54.8839 31.6052 54.6383 30.2465C54.5112 29.542 54.1881 28.8263 53.9417 28.1554C53.6067 27.245 53.2191 26.3536 52.8126 25.474C52.3862 24.5527 51.115 24.2754 50.2574 24.6372C49.3699 25.0118 48.7427 26.0803 49.0727 27.0503C49.3818 27.9587 49.7336 28.8522 49.998 29.7745C50.8368 28.9356 51.6756 28.0968 52.5145 27.258C53.1267 27.6775 53.2976 27.7649 53.0283 27.5194C52.9666 27.4548 52.907 27.3882 52.8494 27.3186C52.7729 27.2302 52.6983 27.1387 52.6188 27.0523C52.3276 26.7363 52.0116 26.44 51.7064 26.1379C51.1339 25.5714 50.5724 25.0029 50.0427 24.3956C48.8402 23.0181 46.9727 20.2979 44.8706 21.5194C43.4742 22.3304 43.7018 23.8511 44.0079 25.1719C44.1958 25.9819 44.4601 26.772 44.7275 27.5581C44.9988 28.3563 45.3089 29.1404 45.5802 29.9385C45.7193 30.347 45.8535 30.7574 45.9808 31.1699C46.0791 31.488 46.1626 31.804 46.3217 32.1012C46.3525 32.1697 46.3912 32.2353 46.4359 32.297C46.2034 31.8834 46.2153 31.4343 46.4717 30.9463C46.7162 30.7017 46.9607 30.4573 47.2062 30.2117C47.1764 30.2297 47.1466 30.2486 47.1167 30.2664C47.4606 30.1731 47.8055 30.0806 48.1494 29.9872C49.33 29.867 49.3868 30.6471 49.022 30.2605C48.9505 30.185 48.861 30.1164 48.7865 30.0448C48.6503 29.9147 48.5201 29.7785 48.3918 29.6403C48.0977 29.3203 47.8224 28.9833 47.5461 28.6475C47.0253 28.0143 46.4727 27.4121 45.9181 26.8078C45.3118 26.1469 44.6996 25.4909 44.0447 24.8767C43.2933 24.171 42.4147 23.2796 41.4249 22.9506C40.6168 22.6823 39.7313 22.9456 39.131 23.528C38.4453 24.1939 38.4035 25.141 38.5923 26.0157C38.6986 26.5106 38.9213 26.9767 39.1211 27.438C39.1489 27.5015 39.1767 27.5661 39.2055 27.6297C39.3178 27.8762 39.0594 27.273 39.1896 27.5899C39.3019 27.8623 39.4153 28.1327 39.5275 28.404C40.2719 30.2078 40.9547 32.0346 41.6733 33.8483C42.0897 34.9008 42.5131 35.9504 42.9405 36.998C43.1482 37.5078 43.3569 38.0177 43.5676 38.5265C43.667 38.765 43.7674 39.0036 43.8638 39.2431C43.9116 39.3623 43.9592 39.4816 44.0049 39.6018C44.0278 39.6614 44.0506 39.7221 44.0726 39.7817C44.1948 40.1932 44.2325 40.0123 44.1848 39.2401C44.3598 38.9389 44.5357 38.6379 44.7106 38.3377C44.803 38.2661 44.8965 38.1956 44.9888 38.124C45.3328 38.0306 45.6777 37.9381 46.0215 37.8447C46.1448 37.8646 46.2689 37.8845 46.3922 37.9044C46.6933 38.0792 46.9945 38.2552 47.2947 38.4301C47.4506 38.6577 47.4786 38.7014 47.3761 38.5622C47.3215 38.4897 47.2678 38.4171 47.2151 38.3437C47.1257 38.2213 47.0372 38.0981 46.9508 37.9749C46.757 37.7016 46.5682 37.4253 46.3822 37.147C46.0254 36.6123 45.6836 36.0687 45.3487 35.52C44.6738 34.4108 44.0357 33.2809 43.3977 32.1498C42.7676 31.0328 42.1385 29.9136 41.567 28.7648C41.4169 28.4636 41.2708 28.1594 41.1297 27.8544C41.066 27.7161 41.0024 27.577 40.9409 27.4369C40.9239 27.3992 40.7023 26.8445 40.8613 27.2541C40.75 26.9678 40.6337 26.6835 40.5294 26.3944C40.4668 26.2184 40.4042 26.0415 40.3525 25.8616C40.3366 25.803 40.3207 25.7444 40.3047 25.6857C40.2114 25.1709 40.1378 25.4532 40.0831 26.5325C39.8387 26.777 39.5941 27.0214 39.3487 27.267C39.3795 27.2511 39.4103 27.2361 39.441 27.2202C39.0972 27.3137 38.7523 27.406 38.4084 27.4995C38.4432 27.4985 38.478 27.4985 38.5138 27.4976C38.1699 27.4041 37.8251 27.3116 37.4812 27.2183C37.2337 26.9996 37.19 26.9688 37.351 27.1258C37.3808 27.1586 37.4096 27.1915 37.4394 27.2242C37.7545 27.5492 37.1949 26.8604 37.4513 27.2411C37.5945 27.4528 37.7346 27.6655 37.8817 27.8742C38.3548 28.544 38.8428 29.0817 39.6726 29.2756C39.3715 29.1006 39.0704 28.9247 38.7702 28.7498C38.4472 28.4526 38.7145 28.7279 38.804 28.883C38.8776 29.0102 38.9512 29.1375 39.0267 29.2637C39.1916 29.542 39.3606 29.8182 39.5326 30.0925C39.8774 30.6412 40.2362 31.1818 40.6039 31.7156C41.3265 32.7631 42.0848 33.7838 42.851 34.7994C44.4025 36.8558 45.9857 38.8912 47.3811 41.0589C48.4525 40.232 49.5229 39.406 50.5943 38.5792C50.3508 38.278 50.7056 38.7541 50.489 38.4351C50.3736 38.2652 50.2574 38.0972 50.1471 37.9242C49.9254 37.5784 49.7186 37.2235 49.513 36.8678C49.1213 36.1899 48.7258 35.5161 48.2955 34.8621C48.0728 34.5242 47.8452 34.1902 47.6146 33.8583C47.3295 33.4478 47.0521 32.9508 46.6853 32.6129C45.3566 31.3866 43.1333 32.1399 42.8898 33.9497C42.7656 34.876 43.2227 35.8957 43.5209 36.7644C43.7992 37.5733 44.1023 38.3734 44.4054 39.1735C44.9988 40.7389 45.5613 42.3141 46.0702 43.9093C46.3604 44.8187 46.6318 45.734 46.8692 46.6573C46.9875 47.1146 47.1028 47.5727 47.1952 48.0358C47.2131 48.1243 47.2251 48.2147 47.2449 48.3022C47.3096 48.6003 47.236 47.8401 47.2449 48.3668C47.2459 48.4533 47.2519 48.5397 47.251 48.6262C47.2489 49.0008 47.086 49.0704 47.4288 48.3152C47.6733 48.0706 47.9179 47.8261 48.1633 47.5806C48.2607 47.5409 48.357 47.5011 48.4545 47.4604C48.8173 47.4604 49.18 47.4604 49.5417 47.4604C49.5597 47.4663 50.1908 47.9215 50.0119 47.7019C49.9453 47.6204 49.8489 47.5558 49.7733 47.4803C49.6571 47.3649 49.5478 47.2427 49.4405 47.1185C49.1701 46.8045 48.9216 46.4725 48.6582 46.1525C48.1126 45.4896 47.561 44.8316 47.0293 44.1577C46.9706 44.0832 46.911 44.0077 46.8524 43.9332C46.905 43.9997 47.0641 44.2124 46.8225 43.8944C46.7073 43.7423 46.592 43.5903 46.4787 43.4373C46.2262 43.0963 45.9798 42.7505 45.7363 42.4026C45.2562 41.7158 44.7881 41.0191 44.311 40.3294C43.8171 39.6158 43.3082 38.9151 42.7775 38.2293C42.4336 37.7841 42.1175 37.32 41.6425 37.0039C40.8732 36.4921 39.8098 36.5517 39.0853 37.1113C38.5019 37.5614 38.1312 38.2273 38.1689 38.9877C38.1967 39.5443 38.4124 40.0729 38.5943 40.5937C38.8816 41.4156 39.1966 42.2276 39.5246 43.0347C39.6071 43.2375 39.6896 43.4392 39.773 43.641C39.8525 43.8327 39.9331 44.0256 40.0156 44.2164C40.0095 44.2025 40.2292 44.7083 40.1418 44.5036C40.0583 44.3089 40.1825 44.601 40.1885 44.615C40.2501 44.763 40.3107 44.9121 40.3703 45.0611C40.4538 45.2699 40.5363 45.4786 40.6178 45.6883C40.8026 46.1684 40.9795 46.6503 41.1475 47.1364C41.2499 47.4326 41.3394 47.7516 41.4974 48.0219C41.5034 48.0329 41.5093 48.0437 41.5153 48.0537C41.6276 48.2356 41.6515 48.2515 41.5849 48.1005C41.5223 47.9673 41.5093 47.8241 41.5461 47.6731C41.5838 47.3013 41.565 47.2387 41.4894 47.4873C42.6294 47.1861 43.7693 46.8849 44.9094 46.5848C44.6549 46.3413 44.4134 46.0869 44.1848 45.8195C44.0854 45.7042 43.989 45.5869 43.8936 45.4677C43.8221 45.3792 43.5169 45.0145 43.8359 45.4001C43.3499 44.8127 42.9196 44.1806 42.4316 43.5932C42.0252 43.1043 41.5878 42.651 41.0909 42.2535C40.5313 41.8053 39.9946 41.4315 39.2433 41.4385C38.4373 41.4455 37.676 41.8937 37.2814 42.5964C36.697 43.635 37.2029 44.6935 37.499 45.7221C37.7256 46.5082 37.9473 47.2944 38.163 48.0836C38.3766 48.8627 38.5913 49.6429 38.7463 50.4351C38.7821 50.6179 38.814 50.8017 38.8447 50.9866C38.9431 51.582 38.8239 50.5802 38.8657 51.1794C38.8776 51.3445 38.8895 51.5084 38.9044 51.6734C38.9153 51.7668 38.9243 51.8612 38.9323 51.9547C38.9312 52.4526 39.0763 52.1743 39.3665 51.1198C39.6677 50.9449 39.9688 50.769 40.2689 50.594C40.2312 50.601 40.1934 50.608 40.1567 50.615C40.5194 50.615 40.8822 50.615 41.244 50.615C41.7399 50.773 41.2599 50.5563 41.1416 50.4807C40.9568 50.3615 40.7729 50.2402 40.59 50.119C40.2759 49.9103 39.9639 49.6995 39.6527 49.4859C39.3248 49.2613 39.0068 49.0476 38.6619 48.8528C38.318 48.658 37.9751 48.4622 37.6431 48.2486C37.5587 48.1939 37.4772 48.1362 37.3937 48.0815C37.0746 47.8738 37.4405 48.0677 37.5179 48.1849C37.4871 48.1383 37.3748 48.0388 37.3251 48.009C37.7177 48.2446 37.8558 49.2563 37.7207 49.6995C36.7189 50.107 35.717 50.5145 34.7152 50.922C35.4686 51.403 36.1534 51.8911 37.1174 51.6098C38.3299 51.256 39.0087 50.0663 38.7365 48.8379C38.6768 48.5676 38.5694 48.3191 38.4621 48.0647C38.3916 47.8977 38.321 47.7297 38.2474 47.5637C38.1133 47.2616 38.3388 47.7158 38.3259 47.7516C38.3687 47.6324 37.9632 46.9903 38.0726 46.8968C38.0476 46.9178 38.0993 47.3034 38.0914 46.9625C38.1013 46.7657 38.0993 46.7478 38.0834 46.9068C38.0805 47.0241 38.0437 47.1314 37.9721 47.2298C37.7277 47.4743 37.4831 47.7188 37.2377 47.9643C37.2704 47.9464 37.3033 47.9285 37.337 47.9106C36.9932 48.004 36.6483 48.0965 36.3044 48.1899C35.5461 48.168 35.3602 47.852 35.7588 48.0965C35.8433 48.1481 35.9238 48.2058 36.0043 48.2634C36.1773 48.3867 36.3422 48.5199 36.5112 48.647C36.9524 48.977 37.4384 49.2563 37.9771 49.3964C38.8795 49.631 39.9221 49.4123 40.588 48.7425C41.3831 47.9434 41.3056 46.8601 41.1127 45.8444C40.9279 44.8723 40.5343 43.9073 40.2322 42.9651C40.0851 42.5059 39.932 42.0468 39.8217 41.5766C39.7999 41.4822 39.785 41.2408 39.7363 41.1592C39.785 41.2398 39.7661 41.5857 39.7571 41.2964C39.7532 41.1682 39.7532 41.0389 39.7492 40.9108C39.7522 40.87 39.7551 40.8293 39.7581 40.7886C39.7641 41.0062 39.7104 41.2069 39.5961 41.3929C39.3517 41.6373 39.1071 41.8818 38.8617 42.1273C38.7554 42.171 38.6479 42.2157 38.5416 42.2594C38.1789 42.2594 37.8161 42.2594 37.4543 42.2594C36.6225 41.4992 36.3571 41.3223 36.6573 41.7297C36.699 41.7913 36.7388 41.8549 36.7765 41.9186C36.8561 42.0488 36.9295 42.182 37.0012 42.3171C37.1442 42.5844 37.2754 42.8578 37.4216 43.1242C37.7932 43.8009 38.1301 44.4897 38.471 45.1824C38.9203 46.0948 40.1507 46.389 41.0263 46.0193C41.8731 45.6625 42.5986 44.5513 42.211 43.6062C41.4566 41.7635 40.7808 39.8901 40.1845 37.9898C39.8962 37.0714 39.627 36.1482 39.3557 35.2249C39.2125 34.7379 39.0713 34.2509 38.9223 33.7659C38.8517 33.5383 38.7752 33.3116 38.7166 33.0801C38.6867 32.9648 38.6609 32.8485 38.641 32.7312C38.6927 32.8853 38.6897 33.0403 38.6311 33.1954C38.4561 33.4965 38.2803 33.7977 38.1053 34.0979C38.0168 34.1673 37.9275 34.2369 37.839 34.3075C37.495 34.401 37.1503 34.4933 36.8063 34.5868C36.8381 34.5858 36.8699 34.5848 36.9007 34.5839C36.5568 34.4904 36.2119 34.398 35.8681 34.3045C35.6345 34.0928 35.5789 34.0432 35.7011 34.1575C35.7539 34.2052 35.8045 34.2559 35.8522 34.3096C35.9526 34.4169 36.0441 34.5321 36.1385 34.6454C36.3104 34.8531 36.4823 35.0499 36.6781 35.2368C37.2735 35.8063 37.993 36.4832 38.8 36.7077C40.2114 37.1013 41.7856 35.9534 41.6703 34.4437C41.6057 33.5979 41.1167 32.7631 40.743 32.0058C40.4449 31.3995 40.0931 30.8211 39.8018 30.2108C39.7223 30.0439 39.6478 29.8749 39.5733 29.706C39.5544 29.6621 39.3606 29.2069 39.459 29.4415C39.5454 29.6483 39.3377 29.1473 39.3139 29.0897C39.2552 28.9476 39.1966 28.8055 39.1379 28.6634C38.8716 28.0224 38.6171 27.3693 38.3011 26.7501C38.1918 26.5344 38.1013 26.2771 37.9691 26.0763C38.003 26.1549 38.0378 26.2343 38.0715 26.3129C38.0397 26.2304 38.0119 26.1458 37.9861 26.0605C37.9751 26.0196 37.9642 25.978 37.9532 25.9371C38.0049 26.1528 37.998 26.3685 37.9343 26.5812C37.7595 26.8823 37.5835 27.1835 37.4086 27.4836C37.3202 27.5522 37.2317 27.6208 37.1433 27.6904C36.7994 27.7838 36.4545 27.8762 36.1107 27.9696C36.6145 27.9378 37.0438 27.8673 37.4812 27.6029C38.1749 27.1824 38.5247 26.4202 38.5456 25.6271C38.5556 25.2355 38.4572 24.8071 38.3399 24.4304C38.3031 24.3122 38.2603 24.1959 38.2206 24.0776C38.146 23.859 38.1451 23.4604 38.1451 24.0399C38.0516 24.3837 37.9592 24.7286 37.8658 25.0725C37.8817 25.0427 37.8976 25.0118 37.9135 24.9821C37.669 25.2265 37.4245 25.471 37.179 25.7165C37.0757 25.7583 36.9723 25.799 36.869 25.8408C36.5061 25.8408 36.1434 25.8408 35.7817 25.8408C35.2042 25.4621 35.0601 25.3905 35.3483 25.6251C35.4258 25.6957 35.5034 25.7672 35.5789 25.8397C35.6782 25.9312 35.7757 26.0166 35.8801 26.1021C36.2308 26.3904 36.6165 26.6875 37.0012 26.934C38.2117 27.7102 39.8814 27.8255 40.7143 26.4152C41.3115 25.4034 40.8951 24.2903 40.5582 23.2756C40.436 22.9088 40.3336 22.5431 40.2362 22.1694C40.117 21.7132 40.2084 22.551 40.2282 22.0919C40.2243 21.9905 40.2262 21.8892 40.2352 21.7868C40.2402 21.9657 40.1944 22.1297 40.095 22.2797C39.8506 22.5242 39.606 22.7687 39.3606 23.0142C39.2602 23.059 39.1598 23.1036 39.0594 23.1484C38.6967 23.1484 38.3339 23.1484 37.9721 23.1484C38.0049 23.1603 38.0378 23.1732 38.0715 23.1852C37.7704 23.0102 37.4693 22.8343 37.1691 22.6594C37.1969 22.6812 37.4384 22.9327 37.4543 22.9337C37.358 22.9277 37.2078 22.5898 37.4284 22.9237C37.5448 23.0997 37.6571 23.2766 37.7744 23.4525C38.0855 23.9206 38.3647 24.4007 38.7096 24.8459C39.29 25.5973 39.9728 26.2572 41.0045 26.2323C42.4565 26.1976 43.5646 24.7147 43.1194 23.3083C42.8928 22.5908 42.4077 21.904 42.0182 21.264C41.6753 20.6994 41.3176 20.1439 40.9478 19.5962C40.5483 19.0039 40.1179 18.4325 39.7034 17.85C39.5136 17.5827 39.3268 17.3134 39.1349 17.048C38.9809 16.8344 38.8328 16.5947 38.639 16.4149C38.5009 16.3086 38.3628 16.2012 38.2245 16.0949C38.7155 16.399 38.9034 16.9148 38.7881 17.6404C37.6481 17.9415 36.5082 18.2426 35.3682 18.5428C36.0222 19.2345 36.5549 20.0385 37.2576 20.6856C37.8648 21.2431 38.5972 21.8156 39.4649 21.8156C40.6725 21.8156 41.7807 20.77 41.7408 19.5366C41.719 18.841 41.4139 18.2138 41.1267 17.5927C41.0412 17.4078 40.9568 17.22 40.8633 17.0391C40.6695 16.6624 41.0422 17.4843 40.9209 17.1882C40.8255 16.9526 40.7271 16.718 40.6257 16.4844C40.429 16.0303 40.2114 15.585 40.0076 15.1348C40.1885 15.5343 40.0265 15.1716 39.9937 15.0821C39.9469 14.9539 39.9022 14.8247 39.8635 14.6935C39.8336 14.5912 39.8108 14.4868 39.784 14.3834C39.6557 13.8915 39.8048 14.8078 39.78 14.3129C38.7533 14.9013 37.7277 15.4906 36.701 16.079C36.9893 16.2141 36.6334 15.9587 36.5469 15.8593C36.3462 15.6287 36.5668 15.9399 36.6026 15.9995C36.7815 16.3026 37.0409 16.565 37.2774 16.8244C37.6471 17.2279 38.0308 17.6184 38.3776 18.0418C39.0833 18.9045 39.7293 19.7255 40.7014 20.3159C41.405 20.7432 42.3382 20.6468 42.9732 20.1558C43.5616 19.7016 44.0079 18.7545 43.7067 18.0051C43.4155 17.2816 42.9982 16.6991 42.6364 16.0194C42.3213 15.4289 42.0589 14.8098 41.728 14.2283C41.4398 13.7226 41.086 13.2604 40.7669 12.7753C40.6715 12.6302 40.2928 12.1731 40.3187 12.0042C40.2939 12.1631 40.436 12.3341 40.3276 12.0091C40.271 11.8371 40.2302 11.6642 40.1974 11.4873C39.3586 12.3262 38.5198 13.1649 37.681 14.0038C37.4384 13.8637 37.1949 13.7235 36.9524 13.5834C36.7547 13.3151 36.698 13.2494 36.7844 13.3885C36.8054 13.467 36.8918 13.5794 36.9286 13.65C37.0041 13.7911 37.0776 13.9282 37.1662 14.0624C37.5567 14.6538 38.0139 15.2093 38.4492 15.767C38.644 16.0154 38.8388 16.2638 39.0356 16.5123C39.0744 16.562 39.1131 16.6117 39.1519 16.6613C39.0465 16.5243 39.0365 16.5123 39.1241 16.6266C39.2204 16.7548 39.3178 16.883 39.4143 17.0113C39.7789 17.5002 40.1338 17.9951 40.4876 18.4921C40.9239 19.1023 41.3503 19.957 42.0311 20.3159C43.0905 20.8754 44.5098 20.5912 45.1201 19.4989C45.6647 18.5249 45.3665 17.6304 44.8657 16.727C44.7205 16.4656 44.5794 16.2012 44.4442 15.9348C44.3906 15.8285 44.3379 15.7212 44.2862 15.6128C44.2673 15.5721 44.0298 15.0305 44.2027 15.4448C43.3639 16.2837 42.525 17.1225 41.6862 17.9614C41.4656 17.9087 41.2758 17.8033 41.1157 17.6443C41.1724 17.697 41.227 17.7527 41.2777 17.8123C41.09 17.5579 41.0601 17.5201 41.1893 17.698C41.239 17.7686 41.2867 17.8411 41.3324 17.9137C41.4894 18.1601 41.6256 18.4185 41.7767 18.668C42.2428 19.4413 42.7636 20.1886 43.3102 20.9072C44.6012 22.6047 45.9181 24.2823 47.2459 25.95C47.878 26.7452 49.2049 26.6716 49.9324 26.1101C50.7046 25.5137 51.0157 24.333 50.4591 23.4704C49.7505 22.3722 49.0956 21.2133 48.4794 20.0614C47.8482 18.8807 47.226 17.7287 46.3366 16.716C45.6647 15.9507 44.4075 15.9706 43.6501 16.5561C42.8093 17.206 42.6692 18.2655 43.1234 19.1957C43.5457 20.0614 44.1312 20.8138 44.7205 21.5701C44.8239 21.7023 44.9272 21.8345 45.0306 21.9657C45.1001 22.0542 45.1688 22.1416 45.2373 22.23C45.0863 22.0343 45.0842 22.0332 45.2314 22.226C45.4798 22.566 45.7303 22.9059 45.9827 23.2428C46.7192 24.2238 47.5083 25.5287 48.8779 25.5684C49.6908 25.5923 50.4949 25.1749 50.9113 24.4643C51.3158 23.7726 51.2711 23.0251 50.9898 22.3045C50.3348 20.626 49.7982 18.9045 49.1909 17.209C48.8858 16.3582 48.5678 15.5125 48.2666 14.6608C48.1156 14.2344 47.9754 13.8051 47.8314 13.3766C47.7548 13.149 47.6683 12.9244 47.5928 12.6968C47.5531 12.5806 47.5163 12.4633 47.4845 12.3451C47.4239 12.0816 47.4268 12.1084 47.4934 12.4276C47.4 12.7714 47.3076 13.1162 47.2141 13.4602C47.2311 13.4323 47.2479 13.4045 47.2648 13.3777C47.0203 13.6221 46.7759 13.8666 46.5304 14.1121C46.425 14.1568 46.3187 14.2016 46.2133 14.2463C45.8506 14.2463 45.4878 14.2463 45.126 14.2463C45.1578 14.2533 45.1896 14.2612 45.2204 14.2682C44.9192 14.0932 44.6182 13.9173 44.318 13.7424C44.1619 13.5039 44.1292 13.4551 44.2196 13.5963C44.2633 13.6628 44.3041 13.7305 44.3429 13.8C44.4184 13.9273 44.4939 14.0525 44.5724 14.1778C44.7404 14.4461 44.9064 14.7154 45.0713 14.9867C45.4331 15.5831 45.791 16.1804 46.1745 16.7627C46.9697 17.9684 47.7945 19.154 48.6781 20.297C48.7696 20.4152 48.86 20.5325 48.9514 20.6508C48.8998 20.5832 48.8481 20.5166 48.7963 20.4491C48.8332 20.5365 48.9475 20.6568 49.0031 20.7313C49.2416 21.0523 49.4812 21.3773 49.7445 21.6784C50.5257 22.569 51.7312 23.04 52.8414 22.4059C54.0668 21.7053 54.217 20.2661 53.5889 19.1053C53.4517 18.8508 53.2847 18.6153 53.1525 18.3579C52.8931 17.854 53.2748 18.7187 53.0839 18.1869C53.0313 18.0409 52.9676 17.9018 52.9468 17.7467C52.9468 18.1094 52.9468 18.4722 52.9468 18.834C52.9568 18.8042 52.9666 18.7753 52.9766 18.7456C52.8017 19.0466 52.6257 19.3478 52.4509 19.648C52.3604 19.7195 52.27 19.7901 52.1805 19.8616C51.8366 19.9551 51.4917 20.0475 51.1479 20.1409C51.0257 20.125 50.9044 20.1091 50.7821 20.0932C50.481 19.9182 50.1798 19.7424 49.8796 19.5675C49.677 19.3538 49.7226 19.3796 49.8608 19.6112C49.9205 19.7116 49.9801 19.8119 50.0408 19.9114C50.1759 20.133 50.316 20.3496 50.4671 20.5603C50.8606 21.1109 51.289 21.6377 51.7214 22.1584C51.8913 22.3632 52.0602 22.5699 52.2302 22.7757C52.3474 22.9188 52.3565 22.9347 52.2381 22.7786C52.3286 22.8979 52.4161 23.0181 52.5035 23.1394C52.901 23.693 53.2956 24.2456 53.7279 24.7744C54.1772 25.323 55.0697 25.4789 55.7186 25.3001C56.4452 25.1003 56.9033 24.5577 57.1479 23.8709C57.3466 23.3114 57.2473 22.6494 57.0535 22.1038C56.9411 21.7868 56.7981 21.4787 56.6619 21.1706C56.625 21.0871 56.5873 21.0026 56.5486 20.9201C56.4253 20.6577 56.6539 21.1567 56.6569 21.1775C56.625 20.9032 56.4273 20.5633 56.3269 20.3079C56.2137 20.0196 56.0964 19.7324 55.9761 19.4462C55.7038 18.7972 55.4255 18.1502 55.1313 17.5102C54.6364 16.4337 54.1226 15.3674 53.6405 14.2851C53.5262 14.0276 53.4129 13.7703 53.3026 13.5118C53.4517 13.8597 53.2837 13.4631 53.2559 13.3955C53.1972 13.2515 53.1386 13.1064 53.082 12.9613C52.9687 12.671 52.8584 12.3798 52.754 12.0856C52.7122 11.9684 52.6715 11.8511 52.6317 11.7328C52.585 11.5946 52.4995 11.0888 52.5254 11.6275C52.432 11.9713 52.3395 12.3162 52.2462 12.6601C52.2621 12.6283 52.2789 12.5954 52.2948 12.5636C52.0503 12.8082 51.8058 13.0527 51.5604 13.2981C51.462 13.3399 51.3636 13.3806 51.2652 13.4224C50.9024 13.4224 50.5397 13.4224 50.1778 13.4224C49.9781 13.309 49.7784 13.1968 49.5786 13.0835C49.6104 13.1132 49.6431 13.1421 49.6749 13.1719C49.7436 13.2623 49.838 13.3389 49.9135 13.4233C49.9771 13.4959 50.0357 13.5714 50.0993 13.644C50.2843 13.8557 49.8827 13.3488 50.0437 13.5705C50.314 13.9422 50.5883 14.3159 50.8895 14.6627C51.0674 14.8685 51.2522 15.0662 51.4251 15.277C51.5007 15.3693 51.5742 15.4648 51.6498 15.5572C51.8495 15.7997 51.4699 15.3177 51.6597 15.5681C52.0305 16.0601 52.3902 16.6326 52.8275 17.0629C53.5908 17.8152 54.7308 18.0935 55.7027 17.549C56.5804 17.0569 56.8706 16.1187 56.8904 15.1735C56.9133 14.0783 56.8407 12.9702 56.8418 11.8719C56.8428 10.8015 55.9006 9.77685 54.7954 9.82555C53.6882 9.88022 52.7519 10.729 52.751 11.8759V11.8759Z" fill="#FBEDA3"/>
                <path fill-rule="evenodd" clip-rule="evenodd" d="M12.8712 49.635C12.2868 48.7573 11.7323 47.8539 11.1091 47.0032C10.7404 46.4993 10.3518 46.0093 9.96222 45.5213C9.79327 45.3106 9.62431 45.0999 9.45635 44.8882C9.38181 44.7938 9.30727 44.7004 9.23372 44.605C9.41162 44.8345 9.26453 44.6428 9.1721 44.5176C8.85803 44.0932 8.55491 43.6628 8.23289 43.2443C8.20606 43.2095 7.7459 42.6113 8.00232 42.9462C7.92579 42.8468 7.84926 42.7475 7.77372 42.6471C7.61571 42.4384 7.44973 42.2316 7.31158 42.01C6.69439 41.0221 6.09707 40.0044 4.74839 40.0222C3.18007 40.0441 2.22297 41.7387 2.98229 43.1013C3.46034 43.9589 4.18884 44.5136 4.87263 45.1844C5.58026 45.8781 6.21435 46.6434 6.8872 47.3709C7.60974 48.1511 8.40583 48.7912 9.24962 49.4362C9.49312 49.622 9.0091 49.2345 9.24466 49.4342C9.32416 49.5007 9.40865 49.5614 9.48418 49.632C9.59847 49.7383 9.69587 49.8605 9.80818 49.9699C10.319 50.4658 11.0317 50.8892 11.772 50.8216C13.078 50.7013 14.1196 49.6101 13.7449 48.2316C13.4626 47.195 12.9488 46.2498 12.438 45.3116C11.9778 44.4658 11.5415 43.6061 11.0605 42.7713C10.5635 41.9077 9.99006 41.1006 9.42852 40.2787C9.19993 39.9437 8.98227 39.6018 8.75568 39.2669C8.65529 39.1188 8.55391 38.9717 8.4585 38.8207C8.40384 38.7352 8.35117 38.6487 8.29948 38.5613C8.18519 38.3526 8.19711 38.3863 8.33626 38.6627C8.33626 39.0254 8.33626 39.3882 8.33626 39.75C8.34918 39.7142 8.36309 39.6773 8.37601 39.6416C8.20109 39.9427 8.02518 40.2439 7.85025 40.544C7.87908 40.5182 7.90691 40.4933 7.93573 40.4675C7.63459 40.6424 7.33344 40.8183 7.0333 40.9933C7.07007 40.9843 7.10783 40.9754 7.14461 40.9664C6.78185 40.9664 6.41908 40.9664 6.05731 40.9664C5.44111 40.7578 6.21038 41.2139 5.8019 40.874C5.88736 40.9455 5.97383 41.0151 6.05831 41.0877C6.29385 41.2894 6.51946 41.5011 6.7411 41.7178C7.18337 42.1512 7.60179 42.6073 8.02219 43.0615C8.87096 43.9788 9.73463 44.8793 10.5566 45.8205C11.4252 46.8153 12.266 47.835 13.082 48.8737C13.1586 48.97 13.2341 49.0674 13.3096 49.1639C13.6862 49.6439 13.071 48.8488 13.4418 49.3338C13.6286 49.5783 13.8155 49.8238 14.0003 50.0692C14.1852 50.3157 14.3681 50.5642 14.5529 50.8107C14.692 50.9975 14.8252 51.2023 14.9822 51.3733C15.1403 51.5064 15.3023 51.6336 15.4703 51.7549C15.6353 51.8592 15.5706 51.8095 15.2794 51.6058C15.3003 51.6794 15.839 52.2926 15.4464 51.7698C15.669 52.0659 15.8937 52.3611 16.1262 52.6484C16.7861 53.4614 17.7065 54.0795 18.8086 53.7754C20.0113 53.4444 20.7546 52.1484 20.4068 50.9429C20.2249 50.3148 19.8283 49.7234 19.4715 49.1827C18.0613 47.0439 16.6758 44.8852 15.2724 42.7415C14.4545 41.4922 13.6166 40.2548 12.7202 39.0592C12.2134 38.3823 11.6906 37.7184 11.1569 37.0625C11.0824 36.97 11.0068 36.8786 10.9322 36.7863C10.8836 36.7256 10.4363 36.1362 10.7027 36.4989C10.492 36.2117 10.2872 35.9225 10.0964 35.6214C9.52393 34.718 8.2488 34.2737 7.29766 34.887C6.36641 35.4873 5.98477 36.6978 6.5632 37.6857C7.26288 38.8803 8.13748 39.9596 9.00115 41.037C9.18999 41.2726 9.37783 41.5081 9.56468 41.7446C9.38479 41.5161 9.54281 41.7168 9.63226 41.8371C9.72271 41.9593 9.81216 42.0825 9.90061 42.2058C10.2693 42.7236 10.6182 43.2563 10.964 43.79C11.6975 44.921 12.4548 46.0084 13.3096 47.0539C13.402 47.1672 13.4954 47.2805 13.5879 47.3948C13.6923 47.525 13.8215 47.6969 13.6484 47.4653C13.8194 47.6939 13.9854 47.9255 14.1365 48.167C14.5221 48.7822 14.8838 49.3875 15.3788 49.9271C16.0685 50.6785 17.294 50.6825 18.0652 50.0872C18.8216 49.5028 19.1694 48.2942 18.592 47.4474C17.6011 45.9944 16.9153 44.3227 16.1123 42.7634C15.2446 41.0787 14.3531 39.406 13.4596 37.7343C12.577 36.0816 11.6946 34.4288 10.812 32.776C10.3697 31.9481 9.92843 31.1191 9.48815 30.2893C9.27348 29.8848 9.0588 29.4803 8.84313 29.0758C8.66523 28.7428 8.51217 28.4228 8.24482 28.1425C8.09873 27.9845 7.93275 27.8493 7.74689 27.736C8.25576 28.0759 8.45354 28.6225 8.34023 29.377C7.20026 29.678 6.0603 29.9792 4.92033 30.2793C6.90608 32.4639 8.89382 34.6475 10.8557 36.8528C11.79 37.9033 12.7222 38.9558 13.6564 40.0063C13.7816 40.1465 13.9069 40.2876 14.0311 40.4288C14.2101 40.6325 14.2706 40.7865 13.9665 40.3244C14.0669 40.4765 14.1821 40.6225 14.2905 40.7676C14.7238 41.3481 15.1294 41.9007 15.7554 42.2872C16.4969 42.7464 17.6359 42.6192 18.2352 41.9673C18.8882 41.2556 18.9637 40.3433 18.5552 39.4876C17.616 37.5196 16.7295 35.527 15.7813 33.5641C15.3201 32.6099 14.8441 31.6628 14.3402 30.7305C14.2071 30.4831 14.0709 30.2376 13.9327 29.9921C13.8711 29.8828 13.8094 29.7745 13.7479 29.6661C13.407 29.0709 13.7061 29.9484 13.7767 30.0031C13.6962 29.9404 13.7111 29.4247 13.6923 29.3272C13.6734 29.2289 13.6495 29.1334 13.6197 29.038C13.5591 28.8462 13.4706 28.6613 13.3921 28.4774C13.3483 28.3671 13.3007 28.2578 13.2509 28.1495C13.1804 27.9944 13.2012 28.0381 13.3135 28.2807C13.3135 28.6435 13.3135 29.0062 13.3135 29.368C13.2698 29.4763 13.2271 29.5846 13.1834 29.693C12.9389 29.9374 12.6943 30.182 12.4489 30.4274C12.3426 30.4762 12.2352 30.5239 12.1288 30.5725C11.7661 30.5725 11.4033 30.5725 11.0416 30.5725C11.0714 30.5805 11.1022 30.5895 11.132 30.5974C10.8308 30.4225 10.5297 30.2465 10.2296 30.0717C10.0775 29.852 10.0507 29.8112 10.1501 29.9504C10.2037 30.0239 10.2574 30.0984 10.3111 30.172C10.3995 30.2953 10.489 30.4195 10.5764 30.5428C10.7693 30.8151 10.96 31.0884 11.146 31.3656C11.5226 31.9292 11.8764 32.5076 12.2173 33.094C12.906 34.2797 13.5372 35.4992 14.1564 36.7226C14.7626 37.9203 15.3361 39.1317 15.9244 40.3383C16.2017 40.9068 16.4889 41.4723 16.803 42.0209C16.9621 42.2982 17.131 42.5685 17.292 42.8448C17.3794 42.9949 17.4649 43.145 17.5444 43.299C17.5921 43.3915 17.7771 43.8635 17.619 43.4462C18.8653 42.9204 20.1116 42.3956 21.3579 41.8699C20.7626 40.7071 20.1901 39.5233 19.5312 38.3953C19.2261 37.8735 18.9219 37.3527 18.6427 36.815C18.6148 36.7613 18.587 36.7077 18.5592 36.654C18.4758 36.4841 18.4976 36.5496 18.6258 36.8498C18.6049 36.8429 18.427 36.2872 18.43 36.2923C18.2293 35.8172 18.0076 35.5032 17.6746 35.0917C17.1658 34.4655 16.1202 34.3811 15.4395 34.6683C14.7576 34.9555 14.0947 35.7416 14.1821 36.5377C14.3552 38.1229 15.187 39.2768 15.9552 40.6176C16.327 41.2656 16.5735 41.9652 17.0018 42.5814C17.4808 43.2693 18.1338 43.8516 19.0303 43.8318C19.8363 43.8138 20.5817 43.4223 21.0002 42.7197C21.5865 41.7347 21.192 40.5818 20.9763 39.5442C20.8074 38.7322 20.5926 37.9311 20.3859 37.1291C20.1821 36.337 20.0092 35.5379 19.8005 34.7478C19.6962 34.3533 19.5869 33.9596 19.4885 33.5641C19.4427 33.3822 19.3981 33.1994 19.3572 33.0155C19.3304 32.8942 19.3046 32.772 19.2808 32.6508C19.2301 32.3844 19.235 32.4073 19.2976 32.7202C19.2042 33.0642 19.1118 33.409 19.0184 33.753C19.0362 33.7231 19.0541 33.6943 19.0721 33.6645C18.8275 33.9089 18.5831 34.1535 18.3375 34.3989C18.2362 34.4447 18.1348 34.4894 18.0335 34.5351C17.6706 34.5351 17.3079 34.5351 16.9462 34.5351C16.1868 34.2519 16.3209 34.1604 16.6003 34.4129C16.7036 34.5063 16.8041 34.6036 16.9025 34.7031C16.9998 34.8015 17.0962 34.9029 17.1906 35.0052C17.3119 35.1373 17.3696 35.3322 17.1598 34.9456C17.45 35.4803 18.0613 36.1541 18.6307 36.3977C19.6594 36.8379 20.8013 36.7057 21.4295 35.6631C21.995 34.726 21.7804 33.742 21.354 32.8127C21.336 32.776 21.3182 32.7382 21.3002 32.7014C21.2347 32.5592 21.2347 32.5643 21.3002 32.7153C21.4185 32.9946 21.3668 32.8704 21.1432 32.3437C21.1203 32.29 21.0976 32.2353 21.0737 32.1806C20.9455 31.8874 20.8074 31.5972 20.6672 31.31C20.3919 30.7475 20.1235 30.182 19.8502 29.6184C19.7141 29.3362 19.5759 29.0549 19.4427 28.7716C19.3622 28.6007 19.2847 28.4297 19.2062 28.2578C19.1813 28.2002 19.1555 28.1435 19.1306 28.0859C19.1943 28.2668 19.2091 28.2797 19.1754 28.1257C19.1754 28.4884 19.1754 28.8512 19.1754 29.213C19.1853 29.1821 19.1953 29.1513 19.2052 29.1205C19.0303 29.4217 18.8544 29.7228 18.6794 30.0229C18.592 30.0925 18.5036 30.1621 18.416 30.2316C18.0722 30.3251 17.7273 30.4175 17.3834 30.511C17.4163 30.511 17.4481 30.5099 17.4808 30.5099C17.1369 30.4165 16.7921 30.3241 16.4482 30.2306C16.2106 30.0239 16.1849 30 16.3716 30.1601C16.4323 30.2128 16.4929 30.2645 16.5525 30.3161C16.6937 30.4374 16.8368 30.5547 16.9829 30.669C17.4203 31.0109 17.8664 31.3577 18.4121 31.5147C19.2847 31.7652 20.2498 31.4621 20.8013 30.7475C21.3311 30.0617 21.3768 29.361 21.1969 28.547C21.0191 27.738 20.8481 26.927 20.6662 26.119C20.5906 25.7871 20.5141 25.4581 20.4029 25.1361C20.3482 24.9781 20.2875 24.823 20.2328 24.665C20.1951 24.5587 20.1594 24.4523 20.1265 24.3449C20.0629 24.1005 20.0639 24.1362 20.1285 24.4513C20.0351 24.7952 19.9426 25.1401 19.8493 25.484C19.8721 25.4511 19.8949 25.4193 19.9178 25.3866C19.6733 25.631 19.4288 25.8755 19.1834 26.121C19.2191 26.1042 19.2549 26.0872 19.2907 26.0703C18.9468 26.1638 18.602 26.2561 18.258 26.3496C18.2998 26.3545 18.3415 26.3596 18.3833 26.3636C18.0394 26.2701 17.6945 26.1776 17.3507 26.0842C17.7253 26.2522 18.0991 26.4828 18.4976 26.5842C19.2897 26.787 20.1036 26.5554 20.6999 26.0077C21.665 25.1221 21.332 23.7457 21.0796 22.6295C20.9156 21.904 20.6861 21.2023 20.4585 20.4947C20.3431 20.1379 20.2398 19.7771 20.1355 19.4174C20.0828 19.2375 20.0302 19.0566 19.9765 18.8777C19.9496 18.7882 19.9218 18.6978 19.894 18.6083C19.7867 18.1998 19.7558 18.3788 19.8015 19.1441C19.6266 19.4452 19.4507 19.7463 19.2757 20.0465C19.2976 20.0236 19.3205 20.0018 19.3423 19.9789C19.0413 20.1538 18.7401 20.3297 18.4399 20.5047C18.3197 20.5185 18.1994 20.5315 18.0781 20.5454C17.7343 20.452 17.3894 20.3596 17.0455 20.2661C16.9799 20.2154 16.9153 20.1647 16.8497 20.1131C17.0158 20.2751 17.1956 20.4211 17.3894 20.5503C17.5643 20.6517 17.772 20.7452 17.9648 20.8078C18.6258 21.0214 19.3941 20.8356 19.9278 20.4241C20.8202 19.7344 21.022 18.667 20.6583 17.6304C20.534 17.2746 20.373 16.9267 20.21 16.5858C20.1503 16.4616 20.0928 16.3354 20.0281 16.2131C19.8294 15.8385 20.1762 16.6106 20.0877 16.3762C19.9784 16.082 19.8442 15.7818 19.7071 15.4955C19.5898 15.2501 19.8502 15.9905 19.7479 15.5691C19.6604 15.2133 19.722 15.3932 19.719 15.6357C19.7101 16.3771 19.0432 17.0261 18.3127 17.034C18.1924 17.0181 18.0722 17.0022 17.9529 16.9863C18.0185 17.0013 18.0832 17.0211 18.1457 17.045C17.7571 17.0181 17.793 16.8632 18.0096 17.0052C18.3634 17.2359 18.7123 17.4665 19.0581 17.7079C19.7926 18.2217 20.6344 18.4593 21.504 18.0916C22.7076 17.5836 23.0356 16.3652 22.8298 15.1805C22.649 14.135 21.9284 13.2564 21.517 12.2963C21.183 11.5172 20.8063 10.7568 19.9734 10.406C18.7053 9.87027 17.3467 10.5302 16.9014 11.8143C16.7235 12.3281 16.7871 12.8986 16.799 13.4313C16.8011 13.5268 16.7971 13.6231 16.8001 13.7185C16.816 14.1121 16.9004 13.3001 16.8298 13.5406C16.803 13.631 17.1091 13.0695 17.1717 13.0069C17.3308 12.8499 17.5166 12.7356 17.7283 12.665C18.0751 12.6312 18.1646 12.6164 17.9977 12.6183C17.6229 12.6521 18.0374 12.4802 18.1169 12.6442C18.102 12.6143 17.8436 12.5746 17.7959 12.5606C17.6856 12.5269 17.5792 12.4851 17.4699 12.4484C17.0296 12.3003 17.776 12.5975 17.5107 12.4662C17.1142 12.2704 16.7066 12.0935 16.324 11.8719C15.8152 11.5777 15.3361 11.2418 14.7994 10.9993C14.1782 10.719 13.5402 10.5014 12.8514 10.6912C12.101 10.8979 11.4908 11.4913 11.2682 12.2376C10.96 13.2703 11.5187 14.2283 12.0365 15.0841C12.2164 15.3822 12.4052 15.6745 12.5761 15.9776C12.6368 16.0839 12.6954 16.1923 12.752 16.3006C12.8116 16.4139 12.8693 16.5281 12.9249 16.6435C13.0422 16.884 13.0352 16.8751 12.9031 16.6167C12.9031 16.2539 12.9031 15.8911 12.9031 15.5294C12.8922 15.5621 12.8812 15.595 12.8693 15.6268C13.0442 15.3256 13.2201 15.0244 13.3951 14.7243C13.3712 14.7482 13.3463 14.772 13.3225 14.7959C13.6236 14.6209 13.9248 14.4451 14.2249 14.2701C14.3402 14.2542 14.4545 14.2383 14.5698 14.2234C14.9137 14.3168 15.2586 14.4092 15.6024 14.5027C16 14.777 15.6839 14.4907 15.6044 14.4013C15.4991 14.283 15.3927 14.1648 15.2864 14.0475C15.0727 13.8119 14.857 13.5784 14.6364 13.3508C14.3352 13.0407 14.052 12.7216 13.7648 12.3996C13.0829 11.6354 12.2482 11.1514 11.1876 11.3929C9.97316 11.6691 9.22975 13.0814 9.59648 14.2433C9.80221 14.8952 10.2375 15.5085 10.5953 16.0869C10.9034 16.5858 11.2205 17.0788 11.5306 17.5768C11.8575 18.1015 12.1726 18.6323 12.4697 19.1739C12.6039 19.4193 12.7341 19.6658 12.8623 19.9143C12.9339 20.0514 13.0044 20.1896 13.074 20.3278C13.1018 20.3834 13.1297 20.4381 13.1575 20.4937C13.2738 20.7293 13.2689 20.7153 13.1416 20.45C13.1416 20.0872 13.1416 19.7245 13.1416 19.3627C13.1317 19.3955 13.1217 19.4283 13.1128 19.4611C13.2878 19.16 13.4636 18.8588 13.6386 18.5587C13.723 18.49 13.8065 18.4215 13.891 18.354C14.2349 18.2605 14.5798 18.168 14.9236 18.0746C14.8889 18.0727 14.8551 18.0717 14.8203 18.0697C15.1642 18.1631 15.5091 18.2556 15.8529 18.3489C16.0218 18.4543 16.0755 18.5298 15.9096 18.3449C15.8281 18.2535 15.7346 18.1701 15.6481 18.0836C15.4523 17.8878 15.2556 17.692 15.0618 17.4932C14.691 17.1156 14.3312 16.7279 13.9645 16.3463C13.2301 15.581 12.4787 14.8326 11.6757 14.139C10.491 13.1153 8.75568 13.5168 8.25576 15.0414C7.92182 16.0621 8.44062 16.9456 8.95047 17.7745C9.40268 18.511 9.8052 19.2822 10.2445 20.0276C10.6967 20.7949 11.1549 21.5602 11.5902 22.3374C11.8019 22.715 12.0076 23.0966 12.2253 23.4703C12.3256 23.6432 12.434 23.8073 12.5424 23.9743C12.599 24.0577 12.6516 24.1423 12.7023 24.2297C12.6209 24.0687 12.584 23.8988 12.591 23.7168C13.6177 23.1284 14.6434 22.5391 15.6701 21.9507C15.4981 21.8593 15.2656 21.76 15.1294 21.6168C15.4881 21.9944 15.02 21.5025 14.9415 21.431C14.6403 21.1546 14.3472 20.8694 14.053 20.5851C13.3851 19.9402 12.7272 19.2852 12.0613 18.6382C10.7206 17.3511 9.36591 16.0462 7.97846 14.8038C7.30065 14.1976 6.54829 13.8885 5.63691 14.0962C4.65099 14.3208 3.96423 15.3326 3.96423 16.3115C3.96423 17.4137 4.9899 18.4433 5.57231 19.315C6.0931 20.0951 6.57214 20.9022 7.09093 21.6834C7.36524 22.0958 7.63955 22.5749 7.99337 22.9167C8.46943 23.2815 8.54596 23.3422 8.22494 23.0997C8.37998 23.2616 8.36309 23.2279 8.17526 22.9963C8.28458 23.1891 8.27464 23.1443 8.14743 22.8621C8.17724 22.9476 8.2001 23.034 8.21501 23.1235C9.35498 22.4596 10.4949 21.7967 11.6349 21.1328C10.5089 20.2433 9.44641 19.2802 8.37104 18.333C7.29866 17.3878 6.17161 16.5083 5.09327 15.5701C4.72454 15.249 4.37966 14.9211 3.92447 14.7283C3.2566 14.447 2.55393 14.5285 1.92381 14.8615C1.26885 15.2074 0.799749 16.0472 0.805713 16.7756C0.811676 17.5121 1.12077 18.0081 1.57099 18.5527C1.99239 19.0625 2.43566 19.5595 2.89979 20.0316C3.12143 20.2572 3.353 20.4748 3.56966 20.7054C3.65315 20.7938 4.0159 21.092 3.66109 20.7779C3.76346 20.8694 3.83303 21.0424 3.89565 21.1597C4.96704 20.3327 6.03744 19.5068 7.10883 18.6799C6.20938 17.9624 5.52659 16.9983 4.48402 16.4566C3.26553 15.8236 1.72902 16.1386 1.16152 17.4833C0.857394 18.2038 0.964731 18.985 1.23407 19.6997C1.54913 20.5335 1.97251 21.3275 2.37404 22.1217C2.54399 22.4586 2.74077 22.7807 2.90775 23.1195C2.93558 23.1752 2.96241 23.2319 2.98825 23.2885C3.05385 23.4317 3.02602 23.3621 2.90576 23.0808C2.91371 23.1504 2.9654 23.2328 2.98725 23.3004C3.01409 23.3799 3.02999 23.539 3.07074 23.6105C3.00713 23.4982 3.05285 23.0599 3.00912 23.4177C3.10254 23.0738 3.19498 22.729 3.2884 22.3851C3.26951 22.4218 3.24964 22.4576 3.23076 22.4944C3.47525 22.2498 3.71974 22.0054 3.96522 21.76C3.93044 21.7798 3.89465 21.8007 3.85987 21.8205C4.20375 21.7271 4.54862 21.6347 4.8925 21.5413C5.52659 21.748 5.67368 21.7748 5.33577 21.6217C5.23639 21.5701 5.13998 21.5135 5.04555 21.4539C4.95114 21.3932 4.85871 21.3296 4.76827 21.263C4.9571 21.4111 4.96108 21.413 4.78019 21.267C4.12126 20.7015 3.49016 20.3168 2.58673 20.4381C1.6674 20.5613 0.937898 21.2481 0.722228 22.1456C0.579111 22.7398 0.683467 23.3034 0.971689 23.8331C1.03629 23.9255 1.09691 24.0199 1.15357 24.1184C1.06412 23.9315 1.0184 23.7338 1.01641 23.525C1.10984 23.1812 1.20227 22.8363 1.29569 22.4924C1.28575 22.5152 1.27581 22.5372 1.26588 22.5599C2.33727 22.4218 3.40767 22.2837 4.47906 22.1456C3.9841 21.6993 3.52493 21.1686 2.85705 20.9847C2.05501 20.7641 1.17344 21.0214 0.603957 21.6188C-0.131505 22.391 -0.133493 23.3929 0.277968 24.3072C0.47873 24.7545 0.697381 25.1947 0.909075 25.637C1.3106 26.4748 1.70219 27.3236 2.14843 28.1386C2.35316 28.5122 2.57182 28.878 2.78152 29.2487C2.90178 29.4604 3.02005 29.6731 3.13136 29.8897C3.17013 29.9652 3.47525 30.6501 3.29635 30.2108C4.43632 29.5469 5.57629 28.884 6.71626 28.2201C6.22031 27.8225 5.84364 27.2987 5.24532 27.0453C4.20971 26.608 2.95645 27.0185 2.40286 28.0103C1.69025 29.2885 2.55592 30.8279 3.06279 32.0425C3.51699 33.1298 3.99206 34.2071 4.487 35.2765C4.71559 35.7694 4.95412 36.2585 5.20457 36.7405C5.3149 36.9532 5.41826 37.1758 5.54448 37.3805C6.1418 38.3535 5.66971 37.5485 5.67666 37.1887C5.77009 36.8449 5.86252 36.5 5.95594 36.1561C5.93905 36.1879 5.92116 36.2197 5.90426 36.2505C6.14875 36.0061 6.39325 35.7615 6.63873 35.5161C6.60991 35.5369 6.58009 35.5568 6.55127 35.5777C6.89515 35.4843 7.24002 35.3918 7.5839 35.2983C7.68826 35.3172 7.79261 35.3362 7.89796 35.356C8.17326 35.4882 8.24184 35.517 8.1017 35.4455C8.0391 35.3859 7.90492 35.3242 7.83336 35.2795C7.60973 35.1403 7.85721 35.3023 7.93771 35.3649C7.74789 35.2189 7.56302 35.0668 7.36923 34.9256C6.84247 34.5431 6.16267 34.2131 5.49479 34.225C4.35084 34.2449 3.51897 35.0162 3.19001 36.0676C3.07969 36.4215 3.04887 36.812 3.029 37.1817C3.02403 37.2791 3.01906 37.3796 3.02005 37.477C3.02602 37.9192 3.13832 37.1639 3.02104 37.4501C3.19597 37.149 3.37188 36.8478 3.5468 36.5477C3.52395 36.5676 3.50208 36.5884 3.47922 36.6083C3.78036 36.4334 4.08151 36.2575 4.38165 36.0825C4.5049 36.0666 4.62814 36.0507 4.75138 36.0358C5.09525 36.1292 5.44013 36.2217 5.784 36.3152C6.09111 36.4602 6.28789 36.6819 6.37536 36.9791C6.33461 36.8786 6.29684 36.7763 6.26006 36.6749C6.19248 36.4891 6.13384 36.3012 6.06726 36.1154C5.97185 35.85 5.86053 35.5896 5.74028 35.3342C5.69754 35.2487 5.65579 35.1632 5.61504 35.0777C5.7035 35.2348 5.74624 35.4048 5.74325 35.5866C5.64983 35.9305 5.5574 36.2753 5.46398 36.6192C5.48485 36.5865 5.50572 36.5536 5.52659 36.5209C5.2821 36.7653 5.03761 37.0099 4.79212 37.2553C4.82592 37.2364 4.8607 37.2175 4.89449 37.1997C4.55061 37.2931 4.20574 37.3855 3.86186 37.4789C3.77042 37.4759 3.52991 37.3815 3.68992 37.4948C3.73663 37.5277 4.0974 37.642 3.85291 37.5495C3.63128 37.466 3.89864 37.5694 3.92944 37.5833C4.00796 37.6201 4.08747 37.6568 4.16499 37.6956C4.55757 37.8884 4.93722 38.107 5.30495 38.3446C5.86053 38.7034 6.39722 39.095 7.04522 39.2789C8.17823 39.5988 9.31621 39.1854 9.97017 38.2084C10.5069 37.4074 10.5466 36.2923 10.5923 35.361C10.6122 34.9515 10.6102 34.541 10.5854 34.1316C10.5725 33.91 10.5516 33.6883 10.5257 33.4677C10.5079 33.3137 10.486 33.1595 10.4651 33.0055C10.4681 33.0294 10.3449 32.2213 10.4214 32.7113C10.488 33.1368 10.4115 32.4192 10.4035 32.3089C10.3896 32.119 10.3747 31.9292 10.3598 31.7383C10.321 31.2633 10.2763 30.7892 10.2256 30.3161C10.0318 28.4924 9.79625 26.6538 9.41957 24.8578C9.24167 24.007 9.0091 23.1693 8.81034 22.3234C8.70299 21.8663 8.61057 21.4071 8.52907 20.944C8.52211 20.9062 8.47938 20.6169 8.51516 20.8734C8.55192 21.1347 8.50521 20.766 8.50124 20.7193C8.4903 20.6071 8.48137 20.4937 8.47441 20.3814C8.44359 19.8607 8.62548 20.3318 8.26072 20.8157C8.01623 21.0602 7.77174 21.3048 7.52626 21.5502C7.55409 21.5343 7.58192 21.5194 7.60974 21.5035C7.26586 21.5969 6.92098 21.6894 6.57711 21.7827C6.54133 21.7857 5.56933 21.4578 5.98178 21.7023C5.60312 21.4777 5.88339 21.6337 5.98178 21.7201C6.15769 21.8752 6.32764 22.0381 6.49163 22.2061C6.80868 22.5292 7.10783 22.8681 7.40798 23.207C8.07785 23.9624 8.80536 24.6561 9.50803 25.3806C10.2962 26.1926 11.3457 26.4917 12.3942 25.971C13.3215 25.5107 13.8215 24.2953 13.4815 23.3163C13.2738 22.718 12.8782 22.1893 12.5592 21.6456C12.263 21.1398 11.9778 20.6279 11.7025 20.1101C11.1995 19.1639 9.80619 18.7942 8.90376 19.3756C7.93075 20.0028 7.64651 21.1546 8.16928 22.1743C8.63244 23.0758 9.06476 23.9921 9.47523 24.9184C9.5776 25.149 9.67897 25.3815 9.77837 25.6131C9.82805 25.7294 9.87775 25.8457 9.92745 25.962C9.98907 26.1051 10.0238 26.1926 9.94236 25.9968C10.1491 26.4928 10.3548 26.9896 10.5576 27.4876C10.8905 28.3056 11.2165 29.1225 11.5187 29.9514C11.8755 30.9314 12.272 31.8874 13.0124 32.6447C13.6227 33.2689 14.7408 33.4488 15.4921 32.9648C16.2723 32.4619 16.655 31.5674 16.4323 30.654C16.2664 29.9732 16.0894 29.2945 15.9234 28.6127C15.8629 28.3641 15.8002 28.1177 15.7287 27.8722C15.7117 27.8156 15.6581 27.4955 15.6194 27.4588C15.7724 27.6019 15.5736 28.1902 15.4911 28.3016C15.2467 28.5461 15.0021 28.7905 14.7567 29.0361C14.7864 29.0211 14.8163 29.0052 14.8461 28.9903C14.5022 29.0837 14.1573 29.1761 13.8135 29.2696C13.6832 29.2726 13.3841 29.1791 13.6684 29.2796C13.4288 29.196 13.4418 29.1752 13.6614 29.3004C13.8393 29.4028 14.0083 29.5191 14.1742 29.6403C14.3631 29.7785 14.5469 29.9236 14.7358 30.0627C15.0846 30.3201 14.3094 29.7238 14.7457 30.0666C15.1681 30.3986 15.5865 30.7395 16.0328 31.0396C16.9243 31.6369 18.1984 31.6072 18.9647 30.7982C19.7468 29.9703 19.7896 28.8621 19.2371 27.897C18.9936 27.4717 18.7232 27.0612 18.4688 26.6438C18.2113 26.2213 17.9589 25.796 17.7283 25.3588C17.621 25.155 17.5206 24.9473 17.4212 24.7395C17.1887 24.2526 17.4898 24.9691 17.3934 24.6769C17.3387 24.512 17.3069 24.2217 17.3189 24.6938C17.2254 25.0377 17.1329 25.3826 17.0396 25.7264C17.0604 25.6916 17.0813 25.6569 17.1012 25.6221C16.8567 25.8666 16.6122 26.111 16.3667 26.3566C16.4015 26.3367 16.4373 26.3168 16.4721 26.2979C16.1282 26.3914 15.7833 26.4837 15.4395 26.5772C15.2268 26.5265 15.014 26.4748 14.8013 26.4241C14.8461 26.448 14.8908 26.4718 14.9355 26.4957C15.034 26.5722 15.1591 26.6259 15.2656 26.6915C15.4425 26.7998 15.6164 26.9092 15.7993 27.0076C16.7046 27.4925 17.8049 27.3007 18.4389 26.4808C19.085 25.645 18.9588 24.5706 18.2789 23.7944C17.2731 22.6475 16.1262 21.6327 15.0448 20.5583C13.9327 19.4522 12.8464 18.3201 11.7612 17.1882C10.7325 16.1147 9.70581 15.0443 8.62448 14.0246C8.1196 13.5486 7.61372 13.0745 7.12474 12.5816C6.88223 12.337 6.6437 12.0876 6.41213 11.8322C6.27796 11.6841 6.14676 11.534 6.01856 11.381C5.95793 11.3094 5.57926 10.8214 5.86352 11.1961C4.79212 12.0229 3.72173 12.8489 2.65034 13.6758C2.87196 13.9213 3.15919 14.1489 3.46233 14.282C4.43929 14.7114 5.70549 14.601 6.26106 13.5476C6.72918 12.6611 6.57313 11.208 5.52659 10.7488C5.16482 10.5898 5.80487 11.0728 5.5425 10.7816C4.85871 10.0253 3.62234 10.0303 2.85607 10.6216C2.12756 11.1842 1.71212 12.4454 2.32932 13.2613C3.27448 14.5096 4.3419 15.6069 5.47789 16.6802C6.59699 17.7367 7.66838 18.8319 8.73381 19.9432C9.84097 21.099 10.9492 22.2549 12.0832 23.3839C13.1853 24.4821 14.3581 25.5168 15.3848 26.6875C16.2117 25.6161 17.0376 24.5457 17.8645 23.4743C17.0803 23.0539 16.3777 22.4914 15.4385 22.4854C14.5251 22.4795 13.7439 23.0936 13.401 23.9067C13.1238 24.5636 13.2241 25.2067 13.4766 25.8447C13.7966 26.6567 14.1782 27.4329 14.6195 28.1853C14.7964 28.4865 14.9793 28.7835 15.1621 29.0807C15.2526 29.2279 15.3441 29.3759 15.4355 29.523C15.5199 29.6612 15.7594 30.2654 15.6173 29.7437C15.6173 29.3809 15.6173 29.0181 15.6173 28.6564C15.6064 28.6931 15.5955 28.7309 15.5846 28.7677C15.7594 28.4666 15.9354 28.1654 16.1103 27.8652C16.0835 27.8921 16.0566 27.9199 16.0298 27.9467C16.3309 27.7719 16.6321 27.5959 16.9322 27.421C16.8955 27.4319 16.8586 27.4429 16.8219 27.4537C17.1847 27.4537 17.5474 27.4537 17.9092 27.4537C18.4439 27.6068 17.9519 27.4041 17.789 27.2918C17.6061 27.1546 17.6259 27.1705 17.8475 27.3415C17.7771 27.2868 17.7075 27.2322 17.6379 27.1765C17.2791 26.8943 16.9144 26.6199 16.5506 26.3446C15.6421 25.6579 14.4575 24.9274 13.2689 25.2553C11.5733 25.7224 11.3666 27.5362 11.782 28.9655C12.0484 29.8818 12.259 30.819 12.4856 31.7473C13.6257 31.0834 14.7656 30.4204 15.9056 29.7565C15.7605 29.6006 15.7833 29.6403 15.9732 29.8788C15.9195 29.8053 15.8697 29.7287 15.8231 29.6512C15.7435 29.52 15.5746 29.2945 15.5596 29.1404C15.6671 29.4028 15.679 29.4276 15.5944 29.2169C15.5587 29.1245 15.5239 29.031 15.4892 28.9386C15.4226 28.7578 15.36 28.5758 15.2943 28.3949C14.9892 27.5452 14.6305 26.7134 14.2875 25.8785C13.4885 23.9295 12.6635 21.9895 11.7015 20.115C10.5238 20.8038 9.34603 21.4916 8.1683 22.1804C8.41478 22.6435 8.66821 23.1027 8.93159 23.5568C9.05483 23.7696 9.18005 23.9813 9.30727 24.1919C9.37087 24.2972 9.43448 24.4026 9.49908 24.507C9.56965 24.6223 9.71873 24.98 9.57263 24.5248C9.57263 24.1621 9.57263 23.7993 9.57263 23.4376C9.56468 23.4724 9.55772 23.5072 9.54977 23.5409C9.72469 23.2398 9.90061 22.9387 10.0755 22.6384C10.16 22.5739 10.2435 22.5093 10.328 22.4447C10.6719 22.3512 11.0167 22.2589 11.3606 22.1654C11.3248 22.1645 11.29 22.1634 11.2542 22.1624C11.5981 22.2559 11.943 22.3483 12.2868 22.4417C12.7261 22.713 12.2839 22.3741 12.2024 22.2897C12.0713 22.1545 11.94 22.0194 11.8068 21.8862C11.6051 21.6854 11.3964 21.4916 11.1946 21.2908C10.7513 20.8485 10.3479 20.3675 9.92844 19.9033C8.83817 18.6958 7.21716 16.9526 5.46 18.024C3.77639 19.0516 4.43632 21.5035 4.78417 23.0738C5.07537 24.3858 5.43814 25.6757 5.66672 27.0016C5.785 27.6904 5.89333 28.3801 5.98675 29.0728C5.92414 28.6106 6.00663 29.2368 6.0116 29.2845C6.02751 29.4107 6.0424 29.5369 6.05731 29.6621C6.109 30.1035 6.15571 30.5457 6.19746 30.988C6.25808 31.6261 6.28789 32.2671 6.34951 32.9052C6.37337 33.1506 6.42107 33.3951 6.45288 33.6396C6.39225 33.1834 6.46679 33.8086 6.47077 33.8553C6.50357 34.233 6.51649 34.6127 6.51052 34.9913C6.50456 35.37 6.47673 35.7467 6.43499 36.1223C6.4827 35.693 6.41113 36.183 6.40417 36.2505C6.39026 36.3966 6.20639 36.5924 6.48667 36.0776C6.73514 35.6204 7.28474 35.3193 7.79559 35.3103C7.92182 35.3252 8.04803 35.3401 8.17526 35.3551C7.98344 35.2924 8.05698 35.3272 8.39688 35.4593C8.22892 35.3263 7.99735 35.2357 7.81646 35.1165C7.3245 34.7935 6.83552 34.4744 6.30777 34.2091C5.42819 33.7678 4.32301 33.1924 3.31722 33.4687C2.56386 33.6764 1.93077 34.2975 1.72306 35.052C1.52925 35.7546 1.73697 36.3837 2.01823 37.0168C2.03712 37.0585 2.16433 37.4025 2.20508 37.4084C2.07389 37.0725 2.05501 37.0347 2.14843 37.2941C2.1852 37.4014 2.22099 37.5077 2.25775 37.6151C2.40386 38.0306 2.55094 38.4798 2.76363 38.8614C3.50705 40.1942 5.30893 40.6116 6.43797 39.4488C6.93988 38.931 7.06312 38.3168 7.10386 37.631C7.1128 37.4849 7.11976 37.3359 7.11877 37.1897C7.13566 36.9562 7.12771 36.9929 7.09492 37.3001C7.20126 36.9571 7.11082 37.1043 6.82359 37.7404C6.34156 37.9401 5.85953 38.1399 5.37652 38.3396C5.05351 38.2631 4.97201 38.2492 5.13103 38.2979C5.23439 38.3327 5.21054 38.3218 5.05947 38.2671C4.75038 38.1757 5.06444 38.3059 5.14395 38.3526C5.45801 38.5384 4.89548 38.1547 5.09227 38.3068C5.2821 38.4529 5.46796 38.605 5.66076 38.7452C6.18552 39.1277 6.86434 39.4338 7.52526 39.4041C8.79344 39.3474 9.76147 38.3675 9.76643 37.0854C9.76842 36.5954 9.55077 36.0358 9.30628 35.6243C9.2059 35.4554 8.63144 34.8601 8.98327 35.201C9.22578 35.4366 8.95346 35.1026 8.90177 35.0042C8.35713 33.9785 7.87511 32.923 7.40202 31.8636C7.27381 31.5764 7.14858 31.2871 7.02137 30.998C6.99652 30.9403 6.97167 30.8816 6.94683 30.824C7.01739 30.992 7.02435 31.0099 6.9687 30.8756C6.90906 30.7296 6.84744 30.5835 6.78881 30.4364C6.68246 30.173 6.5791 29.9077 6.47871 29.6413C6.42307 29.4942 6.36839 29.3461 6.31572 29.198C6.26603 29.0609 6.1408 28.5222 6.19347 29.0976C6.10005 29.4415 6.00762 29.7864 5.9142 30.1302C5.84562 30.2157 5.77605 30.3012 5.70747 30.3877C5.40634 30.5626 5.10519 30.7385 4.80504 30.9134C4.68876 30.9323 4.57148 30.9512 4.4552 30.9701C4.11132 30.8767 3.76645 30.7842 3.42256 30.6908C2.95844 30.3648 3.36294 30.7176 3.44344 30.7942C3.5637 30.9104 3.69091 31.0168 3.82111 31.1221C4.51285 31.6777 5.48385 31.968 6.30081 31.4422C7.00249 30.99 7.58688 29.9832 7.24102 29.1314C6.74905 27.9219 6.06527 26.8445 5.47193 25.6876C5.18967 25.1371 4.92232 24.5795 4.65397 24.022C4.51185 23.7278 4.37072 23.4326 4.23059 23.1364C4.17393 23.0181 4.11827 22.8999 4.06263 22.7816C4.02088 22.6931 3.97914 22.6038 3.9364 22.5153C3.86186 22.3592 3.88174 22.397 3.99405 22.6256C3.99405 22.9884 3.99405 23.3511 3.99405 23.7128C4.00398 23.6801 4.01392 23.6483 4.02386 23.6154C3.84894 23.9166 3.67303 24.2178 3.4981 24.5179C3.41363 24.5865 3.32914 24.6561 3.24368 24.7246C2.89979 24.8181 2.55493 24.9104 2.21104 25.0039C2.24483 25.0059 2.27962 25.0069 2.31341 25.0088C1.96954 24.9155 1.62466 24.823 1.28079 24.7296C1.04424 24.5884 1.06909 24.5706 1.27184 24.7585C1.3752 24.8548 1.48055 24.9492 1.5859 25.0447C2.46249 25.8348 4.23555 25.9063 4.79908 24.6302C5.06345 24.0309 5.19166 23.4943 5.0227 22.8472C4.96804 22.6395 4.82592 22.3264 4.75535 22.1883C4.69671 22.0729 4.47408 21.6466 4.66888 22.1505C4.66888 22.5133 4.66888 22.876 4.66888 23.2378C4.62515 23.3371 4.58143 23.4376 4.53769 23.5369C4.2932 23.7815 4.04871 24.0259 3.80322 24.2715C3.83303 24.2535 3.86285 24.2367 3.89267 24.2187C3.54879 24.3122 3.20392 24.4045 2.86004 24.498C2.89483 24.4961 2.92961 24.494 2.9644 24.4911C2.62052 24.3977 2.27565 24.3052 1.93177 24.2118C1.87313 24.1591 1.81449 24.1075 1.75585 24.0547C1.82144 24.1105 1.88705 24.165 1.95363 24.2187C2.0878 24.3271 2.22396 24.4325 2.36112 24.5377C2.6076 24.7286 2.85408 24.9224 3.12441 25.0784C3.9861 25.5764 5.06245 25.8954 5.97781 25.3279C7.52526 24.3678 7.17741 22.6564 6.54928 21.2838C6.30181 20.7422 5.99669 20.2274 5.73332 19.6937C5.56435 19.3518 5.37949 19.0188 5.21452 18.6739C5.17575 18.5935 5.13998 18.511 5.10221 18.4304C4.99288 18.1989 5.23936 18.8459 5.136 18.4961C5.11314 18.4185 5.08233 18.343 5.06046 18.2645C4.93325 17.8152 5.17377 18.019 5.0048 18.819C4.82989 19.1202 4.65397 19.4214 4.47906 19.7215C4.5039 19.6937 4.52874 19.6658 4.5526 19.639C4.25146 19.814 3.95031 19.9899 3.65016 20.1647C3.68495 20.1519 3.71974 20.1379 3.75452 20.125C3.39176 20.125 3.029 20.125 2.66723 20.125C2.32037 20.0763 2.38895 19.965 2.60561 20.0951C2.83221 20.2304 2.81034 20.1697 2.6076 20.0703C2.80836 20.1687 3.00812 20.4251 3.16814 20.5821C3.51201 20.9201 3.839 21.2739 4.21667 21.5761C5.0227 22.2191 6.03545 22.4059 6.9031 21.7361C7.72304 21.103 7.91585 20.0068 7.42985 19.0964C7.0502 18.3858 6.4638 17.8123 5.90028 17.2478C5.65579 17.0022 5.42025 16.7489 5.18768 16.4924C5.06444 16.3563 4.9422 16.2181 4.82193 16.0799C4.74143 15.9876 4.66193 15.8951 4.58341 15.8016C4.41445 15.6019 4.42637 15.6149 4.62018 15.8395C4.7136 16.1834 4.80604 16.5281 4.89946 16.8721C4.89946 16.8403 4.89946 16.8094 4.89946 16.7777C4.80604 17.1216 4.7136 17.4665 4.62018 17.8103C4.54862 17.8988 4.47707 17.9881 4.4055 18.0766C4.10436 18.2516 3.80322 18.4274 3.50308 18.6024C3.38182 18.6164 3.26057 18.6312 3.13932 18.6451C2.79543 18.5517 2.45057 18.4593 2.10668 18.3659C1.65448 18.1124 2.0888 18.3648 2.20309 18.4643C2.34224 18.5855 2.48237 18.7068 2.6235 18.827C2.90576 19.0675 3.19199 19.3051 3.48021 19.5387C4.08647 20.0296 4.68378 20.5285 5.27018 21.0424C6.41908 22.0491 7.54514 23.0808 8.74474 24.0279C9.44144 24.5785 10.4035 24.8767 11.2245 24.3479C12.0185 23.8361 12.3644 22.9595 12.1646 22.0372C12.0056 21.3037 11.5802 20.6021 11.0118 20.1131C10.5277 19.7135 10.4651 19.6808 10.8229 20.0137C11.0784 20.29 11.1181 20.3129 10.9412 20.0813C10.8677 19.9471 10.7642 19.8229 10.6788 19.6967C10.489 19.4124 10.3051 19.1242 10.1252 18.834C9.76147 18.2476 9.38877 17.6672 9.00314 17.0947C8.82822 16.8343 8.65132 16.5749 8.47242 16.3175C8.36508 16.1624 8.25774 16.0084 8.14941 15.8544C8.07686 15.7509 7.79162 15.27 7.98542 15.7689C7.98542 16.1316 7.98542 16.4944 7.98542 16.8562C7.94269 16.9555 7.89995 17.055 7.85821 17.1543C7.61372 17.3988 7.36923 17.6434 7.12374 17.8888C7.15455 17.8719 7.18536 17.8551 7.21617 17.8371C6.87229 17.9306 6.52741 18.0229 6.18354 18.1164C6.21931 18.1154 6.25509 18.1144 6.28988 18.1124C5.946 18.019 5.60113 17.9266 5.25725 17.8331C5.04258 17.6553 5.03165 17.6532 5.22545 17.8271C5.31689 17.9126 5.40832 17.9991 5.49976 18.0856C5.68163 18.2585 5.86352 18.4334 6.0444 18.6073C6.40417 18.9543 6.76395 19.3021 7.1297 19.642C7.83336 20.2949 8.54497 20.938 9.23372 21.6079C9.92147 22.2767 10.6013 22.9536 11.293 23.6184C12.0047 24.3033 12.7252 25.0258 13.6047 25.4948C14.8649 26.1677 16.8229 25.3567 16.6838 23.7287C16.5933 22.6772 16.0715 21.9736 15.5766 21.094C15.1462 20.3297 14.7179 19.5644 14.2716 18.8081C13.8115 18.029 13.3483 17.2518 12.9021 16.4646C12.7291 16.1594 12.5672 15.8474 12.3744 15.5532C12.3078 15.4518 12.2391 15.3515 12.1776 15.2471C12.1349 15.1765 12.0961 15.104 12.0613 15.0305C12.2611 15.3654 12.3087 15.7361 12.2024 16.1406C11.0624 16.4417 9.92248 16.7429 8.78251 17.0431C9.82309 17.9425 10.7723 18.9344 11.7184 19.9292C12.1855 20.4202 12.6556 20.9141 13.1466 21.3803C13.6455 21.8533 14.205 22.1982 14.9236 22.1773C15.6462 22.1565 16.2584 21.8175 16.6917 21.256C17.5186 20.1856 17.0187 19.0755 16.481 18.025C16.1699 17.4177 15.8459 16.8184 15.4971 16.232C15.1502 15.6486 14.7835 15.0781 14.4227 14.5037C14.2419 14.2164 14.062 13.9282 13.887 13.638C13.7916 13.48 13.6982 13.321 13.6058 13.1609C13.5273 13.0238 13.3861 12.5627 13.5133 13.0527C13.5133 13.4154 13.5133 13.7782 13.5133 14.1399C13.5222 14.1061 13.5313 14.0724 13.5411 14.0386C13.3663 14.3397 13.1903 14.6408 13.0154 14.941C12.9319 15.0085 12.8485 15.0751 12.7649 15.1417C12.4211 15.2352 12.0762 15.3275 11.7323 15.421C11.7671 15.423 11.8029 15.424 11.8377 15.426C11.4937 15.3326 11.149 15.2401 10.805 15.1467C10.326 14.8475 10.8179 15.2411 10.9253 15.3623C11.0485 15.5015 11.1698 15.6436 11.294 15.7838C11.5226 16.0412 11.772 16.2797 12.0086 16.5312C12.906 17.4873 13.7519 18.6749 15.2675 18.2446C16.2167 17.9752 16.9233 17.0798 16.9233 16.0839C16.9233 15.4191 16.5864 14.8178 16.2863 14.2463C16.0944 13.8795 15.8757 13.5297 15.6601 13.1768C15.5398 12.9811 15.4196 12.7842 15.3082 12.5835C15.2516 12.4832 15.1979 12.3818 15.1462 12.2784C15.0329 12.0468 15.0459 12.0697 15.187 12.346C15.187 12.7087 15.187 13.0716 15.187 13.4333C15.196 13.4004 15.2058 13.3687 15.2149 13.3359C15.0399 13.6371 14.864 13.9381 14.6891 14.2383C14.6026 14.3059 14.5162 14.3734 14.4286 14.4411C14.0848 14.5345 13.7399 14.6269 13.396 14.7204C13.2182 14.7114 13.0303 14.6071 12.8712 14.6041C12.9737 14.6061 13.1317 14.7363 13.2161 14.784C13.401 14.8873 13.5809 14.9987 13.7608 15.1099C14.0729 15.3037 14.384 15.4906 14.713 15.6546C15.5796 16.0859 16.4592 16.5312 17.4271 16.6613C18.7819 16.8433 20.0769 16.3384 20.6324 15.0235C20.8352 14.5424 20.9018 14.0246 20.8938 13.5018C20.8908 13.3438 20.8808 13.1858 20.8759 13.0277C20.8729 12.9314 20.8759 12.833 20.8719 12.7366C20.864 12.509 21.0041 12.4583 20.8481 12.9135C20.6732 13.2146 20.4973 13.5158 20.3223 13.8159C20.2309 13.8875 20.1395 13.96 20.048 14.0316C19.7042 14.125 19.3593 14.2175 19.0154 14.3108C18.8911 14.294 18.7669 14.2761 18.6427 14.2592C18.3415 14.0843 18.0404 13.9084 17.7402 13.7334C17.5504 13.4631 17.5196 13.4333 17.6488 13.6439C17.6995 13.7374 17.7472 13.8318 17.7909 13.9282C17.8596 14.0743 17.9211 14.2244 17.9847 14.3725C18.1031 14.6488 18.2232 14.9202 18.3733 15.1815C18.5095 15.4181 18.6417 15.6605 18.7819 15.8951C19.0015 16.2619 18.6983 15.5333 18.7957 15.9091C18.8245 15.9905 18.8474 16.074 18.8653 16.1585C18.7728 15.8077 18.8285 15.4677 19.0333 15.1387C19.2778 14.8943 19.5222 14.6498 19.7678 14.4043C19.8701 14.3626 19.9715 14.3208 20.0739 14.2801C20.4366 14.2801 20.7994 14.2801 21.1612 14.2801C21.2178 14.296 21.5846 14.5225 21.3878 14.3636C21.335 14.3208 21.2715 14.287 21.2158 14.2493C21.0717 14.1509 20.9315 14.0475 20.7894 13.9471C20.5111 13.7504 20.2299 13.5535 19.9238 13.4035C18.7609 12.832 17.3785 12.7496 16.3955 13.7324C15.3281 14.8008 15.5895 16.2171 16.1262 17.4565C16.166 17.5489 16.2067 17.6423 16.2494 17.7338C16.3737 17.9991 16.1788 17.5558 16.1599 17.5141C16.2743 17.7715 16.3737 18.0349 16.4959 18.2893C16.5884 18.4821 16.6808 18.6749 16.7732 18.8667C16.8925 19.1142 16.6788 18.5378 16.7375 18.7982C16.7882 19.0277 16.7404 19.1421 16.7553 18.6898C16.8487 18.346 16.9412 18.0011 17.0346 17.6572C17.1042 17.5658 17.1728 17.4733 17.2423 17.3819C17.5435 17.207 17.8446 17.0311 18.1447 16.8562C18.266 16.8373 18.3882 16.8194 18.5095 16.8005C18.8534 16.894 19.1983 16.9863 19.5421 17.0798C19.7846 17.2716 19.8094 17.2835 19.6177 17.1156C19.4795 17.0092 19.3414 16.9019 19.2032 16.7956C18.8653 16.5739 18.4737 16.4895 18.0781 16.4646C17.455 16.4258 16.807 16.721 16.3826 17.1632C15.4066 18.179 15.8529 19.3558 16.1908 20.5146C16.4005 21.2352 16.646 21.9437 16.8577 22.6624C16.9611 23.0142 17.0544 23.369 17.135 23.7258C17.1757 23.9047 17.2125 24.0846 17.2473 24.2645C17.2652 24.3549 17.2811 24.4463 17.297 24.5377C17.3457 24.8031 17.3367 24.7833 17.2712 24.4781C17.3645 24.1343 17.457 23.7894 17.5504 23.4455C17.5295 23.4763 17.5087 23.5062 17.4878 23.5369C17.7323 23.2925 17.9767 23.048 18.2223 22.8025C18.1905 22.8194 18.1577 22.8373 18.1258 22.8541C18.4697 22.7608 18.8146 22.6683 19.1585 22.5749C19.8005 22.5868 20.0302 22.8433 19.5521 22.6186C19.2569 22.4805 18.9806 22.3592 18.6576 22.3155C17.9489 22.2201 17.2274 22.394 16.7076 22.9148C15.8559 23.7665 15.9781 24.8896 16.3478 25.9192C16.5655 26.5275 16.7116 27.1408 16.8478 27.7728C16.9144 28.0839 16.9789 28.396 17.0465 28.7071C17.0862 28.8939 17.127 29.0807 17.1698 29.2676C17.2056 29.4266 17.2025 29.9147 17.2224 29.4127C17.3159 29.0688 17.4083 28.7239 17.5017 28.3801C17.4789 28.4139 17.456 28.4466 17.4322 28.4804C17.6766 28.236 17.9211 27.9914 18.1666 27.746C18.1298 27.7629 18.0931 27.7798 18.0563 27.7977C18.5821 27.7291 19.1068 27.6605 19.6325 27.5909C19.8999 27.739 19.9297 27.7539 19.723 27.6357C19.5381 27.5084 19.5491 27.5243 19.7548 27.6834C19.5869 27.5522 19.4299 27.4091 19.2678 27.2709C18.5681 26.6756 17.7979 26.2333 16.8427 26.4967C16.0676 26.7104 15.4334 27.3514 15.2337 28.1297C15.01 28.9992 15.4066 29.7337 15.7535 30.499C16.1342 31.3348 16.5406 32.1627 16.9452 32.9877C17.1509 33.406 17.3546 33.8245 17.5444 34.2498C17.3149 33.7341 17.6905 34.6036 17.7701 34.7707C17.8605 34.9655 17.8426 34.9188 17.7164 34.6316C17.8466 35.1235 17.9072 34.7806 17.8982 33.6018C18.8315 33.3574 19.7648 33.1129 20.697 32.8674C20.387 32.7352 20.8709 33.1099 20.7597 32.9499C20.5906 32.7054 20.695 32.8246 20.7745 32.9946C20.6373 32.7004 20.3541 32.4192 20.1414 32.1767C19.7121 31.6876 19.1853 31.1679 18.6258 30.837C17.5196 30.1839 16.1242 30.6133 15.4862 31.6916C14.9703 32.5632 15.2953 33.6495 15.521 34.5639C15.822 35.7834 16.1282 37.0039 16.4412 38.2204C16.6003 38.8375 16.7642 39.4548 16.9084 40.0759C16.9789 40.3811 17.0406 40.6882 17.1051 40.9943C17.134 41.1305 17.1658 41.2646 17.1946 41.4007C17.2065 41.4574 17.2184 41.5151 17.2304 41.5717C17.3079 42.0925 17.3775 41.8013 17.4401 40.6971C17.6846 40.4526 17.9291 40.2081 18.1746 39.9626C18.1477 39.9785 18.1199 39.9944 18.0931 40.0103C18.437 39.9169 18.7819 39.8245 19.1257 39.7311C19.245 39.75 19.3642 39.7689 19.4835 39.7887C19.7846 39.9636 20.0858 40.1395 20.3859 40.3145C20.4933 40.4158 20.5966 40.6225 20.4436 40.383C20.369 40.2678 20.2935 40.1554 20.226 40.0362C20.0977 39.8105 19.9914 39.572 19.882 39.3364C19.6832 38.9111 19.4666 38.5036 19.2161 38.107C18.9906 37.7483 18.759 37.3934 18.5522 37.0228C18.4906 36.9125 18.4359 36.7982 18.3744 36.6879C18.2352 36.4384 18.3296 36.7067 18.4001 36.7743C18.2829 36.661 18.2014 35.8519 18.2769 36.5407C17.1131 37.0228 15.9484 37.5048 14.7845 37.9878C14.6483 37.803 14.6185 37.7741 14.694 37.9003C14.7478 38.0007 14.7457 37.9928 14.688 37.8745C14.6205 37.629 14.6742 37.9093 14.701 37.9898C14.8342 38.3834 15.0448 38.7571 15.2397 39.1228C15.51 39.6317 15.8101 40.1227 16.0944 40.6235C16.7086 41.7068 17.2612 42.8279 17.8287 43.9371C18.2928 44.8435 19.4974 45.1486 20.384 44.7739C21.2486 44.4092 21.9314 43.317 21.5687 42.3608C21.1581 41.2775 20.5321 40.3423 19.9933 39.3256C19.4984 38.3914 19.0621 37.4282 18.602 36.4771C17.6568 34.5242 16.6728 32.5752 15.5657 30.7087C15.035 29.8142 14.4565 28.9536 13.8493 28.1098C13.3185 27.3733 12.8286 26.7233 11.8635 26.594C10.7723 26.447 9.60643 27.1716 9.37386 28.2846C9.24665 28.8939 9.34007 29.4147 9.60443 29.9643C9.64022 30.0398 9.74954 30.336 9.62133 29.9743C9.63524 30.012 9.71476 30.2753 9.72171 30.2774C9.67897 30.2624 9.68792 29.8301 9.67897 30.1293C9.67997 30.1024 9.72867 30.676 9.77538 30.8399C9.89365 31.2464 10.1501 31.6131 10.3568 31.9789C10.8934 32.93 11.3974 33.899 11.8814 34.877C12.9726 37.0834 13.9645 39.3355 15.025 41.5568C15.9582 40.6235 16.8915 39.6903 17.8237 38.758C18.3067 39.0562 18.1199 39.0105 17.9629 38.8494C17.8963 38.7809 17.8396 38.7014 17.773 38.6328C17.6418 38.4977 18.0592 39.0254 17.7909 38.6567C17.7343 38.5781 17.6766 38.5006 17.6199 38.4231C17.2493 37.9142 16.8457 37.4451 16.4274 36.9751C15.4902 35.9236 14.5579 34.8681 13.6206 33.8156C11.7015 31.6588 9.75749 29.525 7.81646 27.3882C6.74806 26.2124 4.82193 26.8814 4.39656 28.2907C4.14114 29.1364 4.36674 30.0329 4.96008 30.6789C5.00978 30.7505 5.07041 30.8111 5.13998 30.8627C5.69754 31.31 5.69257 31.2882 5.12706 30.7961C5.10519 30.9293 5.42919 31.3627 5.49677 31.4889C5.95495 32.3496 6.41113 33.2102 6.86931 34.071C7.79659 35.8112 8.72685 37.5505 9.65611 39.2908C10.5794 41.0191 11.5047 42.7464 12.4041 44.4867C13.2678 46.1575 13.9993 47.9573 15.0607 49.5137C16.1321 48.6868 17.2025 47.8609 18.2739 47.034C17.9321 46.6603 18.3863 47.2497 18.2342 47.0052C18.1627 46.8899 18.0821 46.7786 18.0106 46.6623C17.8664 46.4307 17.7332 46.1921 17.5842 45.9636C17.2025 45.3801 16.7563 44.8356 16.316 44.2959C16.1302 44.0683 15.9443 43.8416 15.7605 43.6131C15.3977 43.1609 15.9851 43.9421 15.6512 43.465C15.5836 43.3676 15.514 43.2722 15.4474 43.1738C15.0876 42.6471 14.7478 42.1064 14.3999 41.5717C13.6743 40.4566 12.8962 39.3931 12.0662 38.3545C11.8774 38.118 11.6876 37.8834 11.4998 37.6459C11.4053 37.5276 11.3119 37.4093 11.2194 37.2891C11.3974 37.5187 11.2453 37.32 11.1539 37.1987C10.7742 36.6898 10.4194 36.1661 10.0984 35.6184C8.92065 36.3071 7.74292 36.995 6.56519 37.6836C7.04025 38.4321 7.59484 39.1268 8.15239 39.8145C8.37601 40.0909 8.60063 40.3671 8.82325 40.6444C9.20887 41.1265 8.5897 40.3313 8.96239 40.8223C9.0757 40.9714 9.188 41.1205 9.29932 41.2705C10.2276 42.5199 11.0943 43.8129 11.944 45.1168C12.8156 46.4545 13.7091 47.7774 14.5798 49.1161C14.9782 49.7294 15.3609 50.3526 15.7554 50.9677C15.8897 51.1775 16.0308 51.3812 16.1639 51.5918C16.2584 51.742 16.3498 51.893 16.4353 52.0481C16.473 52.1147 16.5088 52.1813 16.5426 52.2498C16.6499 52.4665 16.6281 52.4297 16.478 52.1375C16.478 51.7748 16.478 51.412 16.478 51.0502C16.4681 51.082 16.4571 51.1139 16.4473 51.1457C16.6221 50.8445 16.7981 50.5433 16.973 50.2432C17.0584 50.1736 17.1449 50.104 17.2304 50.0345C17.5743 49.9411 17.9192 49.8486 18.263 49.7552C18.2302 49.7542 18.1964 49.7532 18.1636 49.7523C18.5075 49.8456 18.8524 49.9381 19.1962 50.0315C19.5818 50.2482 19.41 50.2263 19.3096 50.0921C19.236 49.9937 19.1436 49.9053 19.0661 49.8109C18.7371 49.4103 19.239 50.0425 18.9359 49.6469C18.6277 49.2464 18.1536 48.4919 17.6449 48.2932C17.3974 48.1968 18.3346 49.137 17.9748 48.5933C17.9072 48.492 17.8267 48.3936 17.7542 48.2963C17.607 48.0984 17.4589 47.9016 17.3098 47.7049C16.9074 47.1731 16.4999 46.6454 16.0884 46.1206C14.7636 44.4281 13.3762 42.7832 11.9042 41.2158C11.2483 40.5172 10.6043 39.8056 9.9344 39.1218C9.59947 38.7789 9.25359 38.446 8.88785 38.1369C8.25774 37.6042 7.49147 36.9045 6.60195 36.9443C5.55442 36.991 4.68478 37.6399 4.39258 38.6576C4.14809 39.5084 4.55558 40.3145 5.00679 41.0052C5.52759 41.8013 6.07023 42.5825 6.60792 43.3676C7.2758 44.3436 7.8423 45.3762 8.39688 46.4197C8.67815 46.9485 8.96736 47.4733 9.25062 48.001C9.37683 48.2365 9.48716 48.48 9.61139 48.7156C9.76445 49.0058 9.48219 48.2753 9.64319 48.8011C9.69587 48.973 9.75451 49.141 9.80122 49.3149C10.4592 48.4512 11.1161 47.5885 11.7741 46.7249C12.1557 46.7417 12.4807 46.873 12.748 47.1165C12.6875 47.0578 12.6298 46.9982 12.5741 46.9356C12.4985 46.8561 12.426 46.7756 12.3445 46.701C11.9609 46.3522 11.5226 46.058 11.1131 45.7409C11.4937 46.0351 10.9203 45.582 10.8567 45.5283C10.7245 45.416 10.5943 45.3007 10.4691 45.1814C10.1441 44.8713 9.84097 44.5384 9.53983 44.2064C8.97531 43.5843 8.4277 42.9442 7.83237 42.3499C7.57297 42.0905 7.2927 41.8559 7.02137 41.6095C6.89018 41.4902 6.77092 41.361 6.6427 41.2397C6.49661 41.0698 6.50853 41.0896 6.67848 41.2983C6.61985 41.213 6.56618 41.1235 6.51848 41.031C5.9301 42.0577 5.34073 43.0833 4.75236 44.1101C4.13021 44.0921 3.67799 43.8516 3.39475 43.3895C3.43747 43.453 3.47822 43.5187 3.516 43.5853C3.58854 43.7105 3.64917 43.8416 3.72173 43.9669C3.90261 44.283 4.13816 44.5692 4.35879 44.8574C4.43333 44.9558 5.13799 45.8741 4.81896 45.4547C4.97101 45.6545 5.12308 45.8553 5.27018 46.059C5.60312 46.5202 5.94004 46.9744 6.28889 47.4236C6.56519 47.7784 6.84843 48.1292 7.12871 48.4811C7.17542 48.5407 7.63061 49.1301 7.36326 48.7763C7.48948 48.9442 7.61571 49.1132 7.73795 49.2841C8.2965 50.0713 8.80735 50.8932 9.34206 51.6962C9.9344 52.5858 11.1747 53.0529 12.1408 52.4307C13.0233 51.8622 13.5054 50.5881 12.8712 49.635V49.635Z" fill="#FBEDA3"/>
                <path fill-rule="evenodd" clip-rule="evenodd" d="M54.4088 25.9607C54.4505 25.9607 54.4853 25.9259 54.4853 25.8842V11.974C54.4853 11.9322 54.4505 11.8974 54.4088 11.8974H39.8675L41.5033 10.1293C41.6843 9.93354 41.8403 9.72781 41.9666 9.51612C42.4177 8.76375 42.7447 7.47371 41.7419 5.59928C40.2898 2.88005 38.6251 1.50156 36.7934 1.50156C34.5811 1.50156 32.1868 3.45749 29.6774 7.31668C29.3504 7.82057 29.0324 8.33937 28.7312 8.85718L27.8208 10.4215L26.9104 8.85718C26.6043 8.33143 26.2863 7.81263 25.9632 7.31568C23.4547 3.45749 21.0605 1.50156 18.8492 1.50156C17.0165 1.50156 15.3507 2.88005 13.8987 5.59928C12.8969 7.47471 13.2238 8.76376 13.6741 9.51512C13.8012 9.72781 13.9563 9.93453 14.1382 10.1303L15.7731 11.8974H1.23082C1.18909 11.8974 1.1543 11.9322 1.1543 11.974V25.8842C1.1543 25.9259 1.18909 25.9607 1.23082 25.9607H3.09731C3.93614 25.9607 4.61893 26.6435 4.61893 27.4823V51.2933C4.61893 51.3351 4.65371 51.3699 4.69545 51.3699H50.9432C50.9849 51.3699 51.0197 51.3351 51.0197 51.2933V27.4823C51.0197 26.6435 51.7025 25.9607 52.5413 25.9607H54.4088V25.9607ZM28.1945 10.2397C28.7331 9.23088 29.2947 8.27677 29.8643 7.40216C32.2952 3.67515 34.6904 1.70531 36.7925 1.70531C38.5406 1.70531 40.1458 3.04703 41.561 5.6937C41.8482 6.23138 42.7209 7.86729 41.7896 9.41177C41.1893 10.4166 39.9073 11.2365 37.9802 11.8478L37.8241 11.8974H28.5373L28.2422 11.3309C28.2104 11.2713 28.1866 11.2226 28.1637 11.1729L27.948 10.6988L28.1945 10.2397V10.2397ZM14.2873 9.98721L14.2287 10.022L13.7665 9.27163L13.4664 8.77072L13.5449 8.72798C13.2905 7.85537 13.4694 6.83864 14.0806 5.6947C15.4949 3.04802 17.1 1.70531 18.8502 1.70531C20.9523 1.70531 23.3475 3.67515 25.7765 7.40216C26.343 8.2718 26.9056 9.22691 27.4482 10.2397L27.7026 10.7157L27.5376 11.0487C27.2792 11.5714 26.7565 11.8964 26.173 11.8964L18.0074 11.8826C17.8474 11.8826 17.6834 11.8557 17.5323 11.807C16.0534 11.324 14.9652 10.7127 14.2873 9.98721V9.98721ZM23.0979 49.6426C23.0979 50.4815 22.4152 51.1643 21.5764 51.1643H6.34633C5.5075 51.1643 4.82471 50.4815 4.82471 49.6426V27.4823C4.82471 26.6435 5.5075 25.9607 6.34633 25.9607H21.5764C22.4152 25.9607 23.0979 26.6435 23.0979 27.4823V49.6426V49.6426ZM23.098 24.2343C23.098 25.0732 22.4152 25.7559 21.5765 25.7559H2.88074C2.04192 25.7559 1.35913 25.0732 1.35913 24.2343V13.6237C1.35913 12.785 2.04192 12.1022 2.88074 12.1022H21.5754C22.4142 12.1022 23.097 12.785 23.097 13.6237V24.2343H23.098V24.2343ZM32.3371 49.6426C32.3371 50.4814 31.6543 51.1642 30.8154 51.1642H24.8244C23.9855 51.1642 23.3027 50.4814 23.3027 49.6426V13.6237C23.3027 12.785 23.9855 12.1022 24.8244 12.1022H30.8154C31.6543 12.1022 32.3371 12.785 32.3371 13.6237V49.6426V49.6426ZM50.817 49.6426C50.817 50.4815 50.1342 51.1643 49.2954 51.1643H34.0644C33.2255 51.1643 32.5427 50.4815 32.5427 49.6426V27.4823C32.5427 26.6435 33.2255 25.9607 34.0644 25.9607H49.2944C50.1333 25.9607 50.8161 26.6435 50.8161 27.4823V49.6426H50.817V49.6426ZM34.0644 25.7569C33.2255 25.7569 32.5427 25.0741 32.5427 24.2353V13.6237C32.5427 12.785 33.2255 12.1022 34.0644 12.1022H52.7591C53.5978 12.1022 54.2806 12.785 54.2806 13.6237V24.2343C54.2806 25.0732 53.5978 25.7559 52.7591 25.7559H34.0644V25.7569V25.7569Z" fill="#284764"/>
                <path fill-rule="evenodd" clip-rule="evenodd" d="M50.943 51.9351H4.69625C4.34342 51.9351 4.0562 51.6479 4.0562 51.2951V27.484C4.0562 26.9553 3.62585 26.526 3.09811 26.526H1.23063C0.877804 26.526 0.590576 26.2386 0.590576 25.8858V11.9757C0.590576 11.6229 0.877804 11.3356 1.23063 11.3356H14.4839L13.7245 10.5147C13.5168 10.2891 13.337 10.0505 13.1898 9.80505C13.008 9.50192 12.842 9.12525 12.7505 8.67403L12.682 8.55974L12.7248 8.53588C12.5876 7.70501 12.7038 6.63858 13.4015 5.33364C14.959 2.41862 16.7916 0.939743 18.8489 0.939743C21.263 0.939743 23.8163 2.98214 26.4362 7.0103C26.7641 7.51518 27.0881 8.04194 27.3982 8.57564L27.8206 9.30216L28.244 8.57464C28.5491 8.04888 28.8721 7.52313 29.2041 7.01129C31.8249 2.98214 34.3781 0.939743 36.7923 0.939743C38.8486 0.939743 40.6802 2.41862 42.2376 5.33562C43.3647 7.44262 42.9741 8.93045 42.4484 9.80803C42.3023 10.0525 42.1224 10.2911 41.9156 10.5147L41.1553 11.3366H54.4075C54.7604 11.3366 55.0476 11.6238 55.0476 11.9767V25.8858C55.0476 26.2386 54.7604 26.526 54.4075 26.526H52.5411C52.0124 26.526 51.5831 26.9562 51.5831 27.484V51.2951C51.5831 51.6479 51.2957 51.9351 50.943 51.9351V51.9351ZM34.064 26.526C33.5354 26.526 33.106 26.9562 33.106 27.484V49.6433C33.106 50.172 33.5363 50.6014 34.064 50.6014H49.2941C49.8228 50.6014 50.2522 50.1711 50.2522 49.6433V27.484C50.2522 26.9553 49.8219 26.526 49.2941 26.526H34.064V26.526ZM24.824 12.6664C24.2953 12.6664 23.866 13.0967 23.866 13.6255V49.6443C23.866 50.173 24.2962 50.6024 24.824 50.6024H30.815C31.3438 50.6024 31.7732 50.172 31.7732 49.6443V13.6255C31.7732 13.0967 31.3428 12.6664 30.815 12.6664H24.824V12.6664ZM6.34602 26.526C5.81729 26.526 5.38794 26.9562 5.38794 27.484V49.6433C5.38794 50.172 5.81828 50.6014 6.34602 50.6014H21.5761C22.1048 50.6014 22.5341 50.1711 22.5341 49.6433V27.484C22.5341 26.9553 22.1039 26.526 21.5761 26.526H6.34602V26.526ZM34.064 12.6664C33.5354 12.6664 33.106 13.0967 33.106 13.6255V24.236C33.106 24.7648 33.5363 25.1951 34.064 25.1951H52.7587C53.2875 25.1951 53.7168 24.7648 53.7168 24.236V13.6255C53.7168 13.0967 53.2865 12.6664 52.7587 12.6664H34.064V12.6664ZM2.88045 12.6664C2.35171 12.6664 1.92236 13.0967 1.92236 13.6255V24.236C1.92236 24.7648 2.3527 25.1951 2.88045 25.1951H21.5751C22.1039 25.1951 22.5332 24.7648 22.5332 24.236V13.6255C22.5332 13.0967 22.1028 12.6664 21.5751 12.6664H2.88045V12.6664ZM28.879 11.3356H37.7373L37.8109 11.3128C39.6019 10.7453 40.7776 10.0088 41.3064 9.12525C41.9951 7.98429 41.4982 6.77276 41.0648 5.96177C39.755 3.51188 38.3168 2.27054 36.7923 2.27054C34.9168 2.27054 32.6239 4.20262 30.335 7.71197C29.7745 8.57266 29.2209 9.51286 28.6902 10.5067V10.5077L28.5759 10.7214L28.6762 10.941C28.6952 10.9828 28.7161 11.0225 28.7419 11.0712L28.879 11.3356V11.3356ZM14.5008 9.39161L14.6987 9.6033C15.3109 10.2583 16.3226 10.8198 17.7061 11.272C17.8015 11.3028 17.9059 11.3197 18.0073 11.3197L26.1728 11.3336C26.5396 11.3336 26.8686 11.1289 27.0315 10.7999L27.0684 10.7264L26.9501 10.5057C26.4153 9.50789 25.8617 8.5667 25.3032 7.70999C23.0163 4.20063 20.7235 2.26855 18.849 2.26855C17.3224 2.26855 15.8853 3.51088 14.5763 5.95978C14.0377 6.96558 13.8727 7.84416 14.0844 8.56967L14.1629 8.83802L14.2494 8.98213L14.5008 9.39161V9.39161Z" fill="#284764"/>
                </g>
                </g>
                </svg>