<svg width="58" height="54" viewBox="0 0 58 54" fill="none" xmlns="http://www.w3.org/2000/svg">
                <mask id="mask0_0_120" style="mask-type:alpha" maskUnits="userSpaceOnUse" x="0" y="0" width="58" height="54">
                <rect y="0.378632" width="58" height="52.8214" fill="white"/>
                </mask>
                <g mask="url(#mask0_0_120)">
                <mask id="mask1_0_120" style="mask-type:alpha" maskUnits="userSpaceOnUse" x="0" y="0" width="58" height="53">
                <rect y="0.684845" width="57.2369" height="51.7857" fill="white"/>
                </mask>
                <g mask="url(#mask1_0_120)">
                <path fill-rule="evenodd" clip-rule="evenodd" d="M35.5621 6.14503C37.6201 6.14503 39.6839 6.07229 41.7409 6.10572C41.9893 6.10964 42.2376 6.1175 42.485 6.1352C42.6082 6.14405 42.7313 6.1588 42.8546 6.16764C42.486 6.14405 42.7876 6.15585 42.8703 6.17157C43.3967 6.27085 43.8934 6.41928 44.396 6.60211C43.9979 6.45761 44.5971 6.69648 44.6976 6.74562C44.9026 6.84589 45.1057 6.95303 45.3058 7.06312C45.7079 7.28429 46.1002 7.52315 46.4905 7.76496C46.8621 7.99596 47.2336 8.22794 47.5943 8.47368C47.7777 8.59851 47.9581 8.72827 48.1375 8.85802C48.4429 9.07821 48.1926 8.89931 48.1334 8.85212C48.2656 8.95828 48.3966 9.06347 48.5247 9.17355C48.8588 9.4596 49.1624 9.76825 49.4591 10.0917C49.5251 10.1634 49.6562 10.3816 49.4453 10.0631C49.5074 10.1565 49.5744 10.246 49.6346 10.3403C49.7666 10.5468 49.8701 10.763 49.9845 10.9783C50.1194 11.2319 49.8859 10.6608 49.9627 10.935C49.9904 11.0344 50.0318 11.1307 50.0623 11.2299C50.1155 11.403 50.1619 11.5769 50.2012 11.7539C50.2239 11.8551 50.2407 11.9564 50.2614 12.0575C50.352 12.4861 50.2564 11.9839 50.2575 11.9848C50.3452 12.0448 50.3166 12.6503 50.3225 12.7643C50.3679 13.6471 50.3293 14.5307 50.3274 15.4144C50.3234 16.5576 50.2968 17.7057 50.3284 18.8479C50.3383 19.1998 50.3757 19.5507 50.3846 19.9036C50.3895 20.0894 50.3225 20.3588 50.3659 20.5337C50.355 20.4875 50.4723 20.0432 50.3767 20.3322C50.4279 20.1769 50.6113 19.9233 50.4131 20.1897C51.5702 20.1897 52.7284 20.1897 53.8855 20.1897C53.0625 18.6012 51.862 17.229 50.7473 15.841C50.2111 15.1727 49.67 14.5081 49.1349 13.8388C48.9821 13.6471 48.8303 13.4553 48.6785 13.2637C48.6628 13.243 48.2971 12.7722 48.5415 13.0907C48.2616 12.727 47.9856 12.3604 47.7146 11.9898C46.7201 10.6195 45.8892 9.14899 44.9263 7.76004C44.403 7.00415 43.8264 6.28952 43.1996 5.6162C42.9364 5.33408 42.6742 5.05099 42.4209 4.76101C42.2741 4.59292 42.1311 4.4209 41.9893 4.24889C42.2948 4.62045 41.8798 4.08965 41.8276 4.01494C41.0707 4.99692 40.3137 5.9789 39.5568 6.9609C39.7736 7.03265 39.7628 7.02676 39.5243 6.94418C39.6199 6.99629 39.7124 7.05329 39.8032 7.11325C39.9402 7.2027 40.0712 7.30002 40.2052 7.3934C40.5601 7.6421 40.9199 7.88489 41.2737 8.13456C41.9981 8.6457 42.7136 9.1706 43.4183 9.70731C43.5583 9.81347 43.6973 9.92062 43.8372 10.0278C43.9309 10.0995 44.0235 10.1713 44.1171 10.243C44.2788 10.3669 44.3044 10.3865 44.194 10.302C44.0837 10.2175 44.1102 10.2371 44.2709 10.362C44.3646 10.4347 44.4582 10.5074 44.5518 10.5802C44.6928 10.6893 44.8327 10.7994 44.9726 10.9095C45.6291 11.4265 46.2786 11.9504 46.9163 12.4911C48.1325 13.5222 49.3064 14.6093 50.3668 15.8007C50.6309 16.0976 50.8882 16.4013 51.1337 16.7139C50.8557 16.36 51.2253 16.8466 51.2765 16.9184C51.3919 17.0796 51.5043 17.2427 51.6126 17.4089C51.8196 17.7254 52.0128 18.0517 52.2109 18.3742C52.2701 18.4705 52.4563 18.6808 52.4484 18.7831C52.3587 18.5392 52.3499 18.5226 52.4218 18.7329C52.4061 18.444 52.4002 18.4134 52.405 18.6415C53.2537 17.9966 54.1022 17.3518 54.9509 16.708C55.2702 16.8663 55.3599 16.9026 55.22 16.8181C55.0948 16.7385 55.1598 16.7876 55.4131 16.9656C55.4131 16.9557 55.15 16.7031 55.1618 16.6962C55.1825 16.6854 55.4505 17.0992 55.2041 16.7474C55.1362 16.65 55.0672 16.5537 55.0001 16.4554C54.6374 15.9354 54.2294 15.4538 53.8026 14.9858C52.8821 13.9754 51.8886 13.0337 50.8832 12.1087C48.8677 10.2548 46.8946 8.34098 44.7725 6.60801C44.1289 6.08212 43.3809 5.85407 42.5757 6.19319C41.7724 6.53133 41.4491 7.2027 41.3398 8.02544C41.1731 9.27284 41.8542 10.5654 42.3933 11.6427C42.9709 12.7978 43.4884 13.9861 44.0078 15.1687C44.1457 15.4833 44.2827 15.7998 44.4187 16.1153C44.4709 16.2362 44.5843 16.5055 44.4729 16.2411C44.5459 16.4141 44.6178 16.5881 44.6898 16.7611C44.9451 17.3765 45.1865 17.9947 45.4043 18.6248C45.6173 19.2412 45.8233 19.8594 46.0677 20.4649C46.2283 20.861 46.3713 21.2631 46.6216 21.612C46.6511 21.6503 46.6797 21.6887 46.7093 21.7271C47.07 22.192 47.1291 22.2677 46.8857 21.9561C47.0178 22.0072 47.1173 22.5478 46.9202 21.9246C48.0408 21.2738 49.1604 20.6241 50.2811 19.9734C49.9972 19.7464 49.7361 19.4997 49.4965 19.2263C49.4286 19.1488 49.3616 19.0691 49.2964 18.9885C49.4502 19.19 49.4601 19.2009 49.326 19.0219C49.2353 18.8931 49.1447 18.7664 49.057 18.6356C48.6509 18.0321 48.2892 17.4001 47.8929 16.7896C46.9232 15.2964 45.904 13.8368 44.9697 12.321C44.5301 11.6074 44.1034 10.8888 43.6273 10.1978C43.3957 9.86065 43.1552 9.53037 42.9068 9.20501C42.7313 8.975 42.555 8.74597 42.3756 8.51988C42.2494 8.36163 41.7684 7.67158 42.2869 8.42454C41.4304 7.17911 40.3975 5.76757 38.6747 6.12537C37.6407 6.33965 36.9538 7.60966 37.2701 8.59262C37.7689 10.1428 38.4529 11.6232 38.9979 13.1565C39.5647 14.75 40.0585 16.3679 40.5699 17.979C41.1012 19.652 41.6995 21.2749 42.3904 22.8899C42.4761 23.0904 42.5628 23.2909 42.6486 23.4915C42.6802 23.5642 42.89 24.0635 42.7393 23.7028C42.8841 24.0488 43.0241 24.3978 43.1808 24.7388C43.2282 24.8411 43.2764 24.9433 43.3227 25.0455C43.3947 25.2038 43.4253 25.5046 43.2961 24.9728C43.3198 25.0721 43.3701 25.1743 43.4065 25.2707C43.4262 25.3287 43.443 25.3876 43.4568 25.4476C43.3524 25.017 43.4194 24.5993 43.6559 24.1953C44.7085 24.0596 45.7611 23.925 46.8137 23.7893C46.6708 23.6262 46.5339 23.4581 46.3929 23.2929C46.253 23.117 46.2569 23.1238 46.4047 23.3155C46.3386 23.2291 46.2736 23.1425 46.2096 23.0551C45.9514 22.7051 45.7059 22.3453 45.4713 21.9797C45.0278 21.2876 44.6237 20.572 44.2423 19.8436C43.4627 18.3555 42.7817 16.8191 42.0631 15.3023C41.3457 13.7876 40.569 12.3024 39.8485 10.7886C39.1024 9.21976 38.3307 7.64996 37.2731 6.26102C36.7459 5.56803 35.9159 5.04411 35.0023 5.339C34.1734 5.60637 33.5013 6.3662 33.5259 7.2725C33.583 9.39472 34.3104 11.4825 34.8584 13.5203C35.3946 15.5137 35.9465 17.5032 36.4324 19.5095C36.9074 21.4745 37.2958 23.459 37.7511 25.4299C37.9433 26.2605 38.1395 27.0862 38.4095 27.8952C38.5278 28.2491 38.6184 28.6078 38.7229 28.9656C38.7644 29.1888 38.7624 29.1445 38.719 28.832C38.7288 28.9174 38.7347 29.002 38.7367 29.0875C38.7288 29.3107 38.7436 29.2536 38.7831 28.9145C38.7288 29.1209 38.7624 29.0678 38.8836 28.7572C40.0407 28.7572 41.1988 28.7572 42.3559 28.7572C40.8933 25.7739 39.612 22.7051 38.0941 19.7483C37.349 18.2984 36.5586 16.8722 35.7957 15.4312C35.7011 15.2513 35.6084 15.0704 35.5128 14.8905C35.3009 14.4944 35.6695 15.3122 35.5276 14.9298C35.3956 14.572 35.2468 14.2201 35.096 13.8692C34.7826 13.1379 34.3252 12.4743 33.6215 12.0615C32.5048 11.4069 31.0067 12.0124 30.6677 13.2598C30.2044 14.9613 30.9328 16.7562 31.2689 18.4232C31.6089 20.1091 31.9025 21.8028 32.2052 23.4954C32.8073 26.8631 33.3603 30.2327 33.8876 33.6131C34.0305 34.5321 34.1931 35.4424 34.3902 36.3506C34.4878 36.798 34.5844 37.2441 34.6632 37.6954C34.679 37.7848 34.6899 37.8752 34.7076 37.9638C34.7717 38.2851 34.6682 37.4928 34.7195 38.0561C34.7411 38.293 34.7579 38.5289 34.7658 38.7667C36.0145 38.4296 37.2642 38.0925 38.513 37.7543C37.5333 35.9132 36.6581 34.0201 35.8135 32.114C35.3837 31.1448 34.9619 30.1727 34.5351 29.2025C34.2316 28.5124 33.9743 27.7575 33.6028 27.1019C34.0148 27.8264 33.72 27.3781 33.6255 27.1501C33.5417 26.9476 33.4579 26.746 33.3731 26.5436C33.1218 25.944 32.8695 25.3444 32.6092 24.7487C32.1697 23.7411 31.7192 22.7296 31.1742 21.7742C30.3768 20.3744 29.0936 19.0288 27.3452 19.9125C26.7804 20.1975 26.2699 20.9977 26.3497 21.6444C26.5646 23.3913 27.1362 25.017 27.5837 26.7107C28.0115 28.3316 28.3801 29.9682 28.723 31.6088C29.4169 34.9303 30.028 38.2674 30.6085 41.6096C31.9016 41.2537 33.1938 40.8989 34.4869 40.543C33.8629 38.868 33.4431 37.1272 32.8241 35.4493C32.1786 33.7006 31.4512 31.9833 30.7159 30.2701C30.0132 28.6334 29.3094 26.9957 28.5654 25.3768C28.3781 24.9689 28.1868 24.5619 27.9927 24.157C27.8813 23.925 27.766 23.696 27.6566 23.464C27.5393 23.2153 27.5176 23.2232 27.6488 23.4649C27.1806 22.5979 27.013 21.7506 26.2551 21.0518C25.0803 19.9685 23.4254 20.514 22.8942 21.9364C22.3777 23.3184 22.5039 24.6563 22.7197 26.0845C22.908 27.328 23.2165 28.5479 23.4688 29.7785C23.7231 31.0161 23.9438 32.2615 24.1657 33.505C24.2218 33.8195 24.2779 34.1341 24.3292 34.4496C24.3696 34.6934 24.3746 34.7396 24.3381 34.4634C24.3716 34.7179 24.4042 34.9735 24.4406 35.2281C24.5362 35.8877 24.7255 36.5217 25.0734 37.0977C25.5928 37.9559 26.6621 38.3058 27.5846 37.9185C28.45 37.5538 29.0828 36.5001 28.7487 35.5525C27.7394 32.6862 26.2719 30.0213 24.8516 27.3437C24.1478 26.0167 23.4264 24.6985 22.7286 23.3676C22.1411 22.247 21.6908 21.0597 20.7623 20.1572C19.9502 19.3679 18.7418 19.4299 17.9188 20.1572C17.0348 20.9387 16.9727 22.365 16.9599 23.4511C16.952 24.0734 16.9924 24.6917 17.0299 25.3129C17.2368 28.7976 17.6557 32.234 18.1189 35.6931C18.3841 37.6757 18.6433 39.6604 18.8522 41.6499C20.101 41.3126 21.3507 40.9755 22.5994 40.6373C21.6809 38.7186 20.7762 36.8097 19.7166 34.9627C19.2317 34.1173 18.7438 33.2661 18.3378 32.3804C17.9504 31.5341 17.5976 30.6494 16.8554 30.0361C16.0009 29.3293 14.8626 29.2339 14.0119 30.0361C12.8618 31.1213 13.1594 32.6478 13.5152 34.0043C13.8129 35.1357 14.214 36.2366 14.4988 37.371C14.7847 38.5082 15.03 39.6534 15.3395 40.7858C15.4549 41.2055 15.5859 41.6164 15.72 42.0303C15.7703 42.1866 15.8028 42.5778 15.9003 42.6997C15.8333 42.6161 15.9043 42.2838 15.8728 42.5581C15.8659 42.7321 15.8708 42.7233 15.8885 42.5305C15.8925 42.3782 15.9368 42.2367 16.0226 42.105C17.0752 41.9693 18.1279 41.8346 19.1805 41.699C18.6857 41.2321 18.2431 40.7209 17.8243 40.1862C18.0401 40.4614 17.8095 40.1626 17.7257 40.0525C17.641 39.9395 17.5561 39.8255 17.4714 39.7125C17.2338 39.394 16.9944 39.0775 16.751 38.7628C16.5232 38.469 16.2936 38.179 16.059 37.8909C15.9477 37.7543 15.8373 37.6167 15.7269 37.4791C15.3622 37.0259 15.9586 37.7946 15.6106 37.3307C15.1887 36.7674 14.7925 36.1884 14.4387 35.5801C13.386 36.39 12.3335 37.1999 11.2809 38.0099C11.5312 38.2704 11.7776 38.5338 12.0111 38.81C12.0644 38.872 12.1167 38.9359 12.1689 38.9998C12.0417 38.8306 12.0211 38.8032 12.1078 38.9192C12.2211 39.0794 12.3365 39.2377 12.4448 39.4008C13.4975 38.5909 14.5501 37.7808 15.6027 36.9709C14.625 36.1285 13.5586 35.4021 12.5207 34.6374C12.4409 34.5783 12.1433 34.3031 12.4488 34.5882C12.3749 34.5194 12.297 34.4565 12.223 34.3876C12.0319 34.2097 11.8525 34.019 11.6691 33.8333C11.2316 33.3939 10.7506 32.9614 10.2016 32.6685C9.43974 32.2615 8.37924 32.3146 7.76521 32.9821C7.13442 33.6672 7.02995 34.5872 7.45079 35.412C8.20478 36.8893 10.2893 37.4466 11.6623 36.4883C12.6429 35.8032 13.1249 34.7543 13.4551 33.6377C13.7389 32.6763 14.0356 31.7218 14.3382 30.7664C14.5146 30.2091 14.695 29.6527 14.8596 29.0924C14.8852 29.004 14.9108 28.9154 14.9384 28.828C14.9464 28.8024 15.0872 28.368 14.9789 28.6786C14.8567 29.0275 15.0202 28.5409 15.0577 28.5518C15.0054 28.6147 14.9523 28.6766 14.8999 28.7396C14.9582 28.6698 15.0222 28.6068 15.0922 28.5488C14.4397 28.7208 13.7882 28.8929 13.1357 29.0649C13.2038 29.0708 13.2698 29.0846 13.3338 29.1072C13.0313 28.9695 12.977 28.9528 13.1722 29.0541C13.2442 29.1072 13.5901 29.2605 13.6039 29.348C13.5861 29.235 13.2638 29.0865 13.5892 29.3431C13.8011 29.5112 14.0139 29.6782 14.2337 29.8365C14.8822 30.3064 15.5062 30.8401 16.2 31.2422C16.5016 31.4171 16.816 31.5685 17.1146 31.7474C17.1993 31.7975 17.2822 31.8496 17.363 31.9037C17.5434 32.0315 17.5217 32.0138 17.2979 31.8526C17.3689 31.9155 17.4359 31.9823 17.498 32.0541C17.3206 31.8133 17.294 31.7828 17.4202 31.9627C17.4882 32.0856 17.5679 32.2025 17.634 32.3274C17.6823 32.4168 17.9751 33.0174 17.7434 32.5229C17.8883 32.8326 17.9928 33.1668 18.1091 33.4873C18.6837 35.0699 19.348 36.6967 20.1611 38.1761C19.8841 37.6718 20.0822 37.9912 20.1394 38.1337C20.2045 38.2939 20.2675 38.4552 20.3326 38.6154C20.4992 39.0273 20.6677 39.4391 20.855 39.8432C21.1575 40.4968 21.5528 41.1741 22.1106 41.641C22.6734 42.1118 23.3279 42.3595 24.0671 42.1571C24.7481 41.9703 25.2783 41.4306 25.4716 40.7564C25.576 40.3926 25.6371 39.9905 25.5947 39.6131C25.4775 38.5741 24.754 37.5558 23.5841 37.6079C22.4724 37.658 21.6011 38.4887 21.5735 39.6131C21.5636 40.022 21.5695 40.43 21.5617 40.8389C22.9021 40.8389 24.2425 40.8389 25.5829 40.8389C25.5711 40.1665 25.6144 39.5011 25.6884 38.8337C25.7318 38.4434 25.6598 38.9772 25.7012 38.7373C25.7268 38.5879 25.7466 38.4366 25.7711 38.2871C25.8224 37.9697 25.8835 37.6541 25.9338 37.3365C25.9821 37.0289 26.0225 36.7192 26.0481 36.4097C26.0639 36.2258 26.1378 35.9516 26.1023 35.7727C26.1299 35.9122 26.0116 36.2287 26.0925 35.8916C26.1141 35.7982 26.1417 35.7049 26.1615 35.6114C26.2364 35.2468 25.9496 35.9968 26.1309 35.7009C26.0668 35.7845 26.0028 35.8671 25.9387 35.9506C25.648 36.1481 25.5917 36.1963 25.7702 36.0951C25.0941 36.0951 24.4169 36.0951 23.7408 36.0951C23.8029 36.1245 23.8621 36.1619 23.9241 36.1884C24.1617 36.2926 23.8137 36.1403 23.7832 36.0646C23.8226 36.163 24.0404 36.3162 24.1193 36.3959C24.344 36.622 24.0247 36.2937 24.0424 36.2838C24.0483 36.2808 24.1823 36.4795 24.1942 36.4971C24.3075 36.6632 24.413 36.8352 24.5136 37.0092C24.8496 37.5912 25.1246 38.2035 25.4114 38.81C26.0126 40.082 28.3111 40.1636 28.8836 38.81C29.3351 37.7455 29.3144 36.8195 29.1104 35.695C28.9763 34.9539 28.795 34.2235 28.6629 33.4823C28.3071 31.4771 27.9296 29.4758 27.5127 27.4833C27.0938 25.4819 26.6552 23.4836 26.2167 21.4862C26.0481 20.7195 25.851 19.9754 25.6253 19.2244C25.5139 18.8548 25.4064 18.4843 25.3257 18.1067C25.306 18.0154 25.2883 17.925 25.2724 17.8325C25.237 17.6074 25.2429 17.6536 25.2912 17.9712C25.3247 17.9367 25.2813 17.5593 25.2853 17.4905C24.141 17.9633 22.9966 18.4361 21.8524 18.9089C22.628 19.5831 23.1712 20.4768 23.9823 21.1137C24.6406 21.6308 25.6421 21.9757 26.4187 21.4272C27.5068 20.6585 27.9375 19.4967 27.7926 18.1883C27.7335 17.6536 27.6429 17.1287 27.5216 16.6048C27.4762 16.4101 27.429 16.2155 27.3856 16.02C27.3402 15.8135 27.2762 15.2129 27.3609 16.0091C27.0288 16.5861 26.6966 17.1631 26.3655 17.7411C26.3201 17.7628 25.9101 17.9014 26.1693 17.8374C26.1181 17.8502 25.6657 17.8729 25.9446 17.8768C26.2265 17.8806 25.783 17.865 25.7386 17.8355C25.7948 17.8729 25.9515 17.8817 26.0235 17.9023C26.1023 17.925 26.1783 17.9524 26.256 17.9771C26.3152 17.9966 26.5971 18.1019 26.3093 17.9937C26.0244 17.8876 26.3034 17.9966 26.3625 18.0281C26.4394 18.0684 26.5183 18.1067 26.5951 18.147C27.1471 18.44 27.6734 18.7782 28.2194 19.079C29.5401 19.8063 30.9071 20.8531 32.5068 20.4797C33.3337 20.287 34.0177 19.3955 33.9832 18.5462C33.9378 17.4226 33.7289 16.3099 33.4343 15.2267C33.318 14.8001 33.177 14.3911 33.0223 13.9783C32.9463 13.7758 32.8724 13.5733 32.8172 13.364C32.7936 13.2745 32.7966 13.0002 32.7818 13.248C32.7975 13.3875 32.8034 13.4013 32.7995 13.2883C32.8025 13.1329 32.7936 13.189 32.7729 13.4564C32.1264 13.9469 31.4798 14.4383 30.8342 14.9289C30.9475 14.917 31.3497 14.9701 30.9879 14.8915C30.5917 14.805 31.0549 14.9249 31.1289 14.9446C31.466 15.032 30.7258 14.7096 31.0441 14.916C31.1387 14.977 31.2393 15.0281 31.3339 15.09C31.3822 15.1215 31.4295 15.1549 31.4768 15.1893C31.599 15.2778 31.5409 15.2325 31.3054 15.0547C31.3576 15.1421 31.5034 15.2198 31.5843 15.2896C31.7873 15.4685 31.9815 15.6552 32.1766 15.843C33.0863 16.7218 34.2473 17.9712 35.6202 17.9712C36.7271 17.9712 37.5836 17.0412 37.829 16.0277C37.9916 15.3555 37.901 14.6448 37.7166 13.9872C37.5846 13.5173 37.3943 13.0651 37.2209 12.61C37.1479 12.4184 37.075 12.2267 37.0149 12.031C36.9892 11.9485 36.9755 11.857 36.9449 11.7764C36.8286 11.4678 36.9725 12.3731 36.9745 11.9573C36.4827 12.6021 35.9899 13.247 35.498 13.8909C35.2103 13.9684 34.9461 13.943 34.7056 13.8161C34.548 13.7405 34.548 13.7453 34.7056 13.8309C34.7973 13.9007 34.8978 13.9625 34.9915 14.0294C35.2241 14.1945 35.4694 14.3341 35.7208 14.4688C36.3635 14.8118 37.0415 15.0959 37.7295 15.3358C38.724 15.6818 39.9727 14.9426 40.2033 13.9351C40.4586 12.8155 39.8632 11.8384 38.7988 11.4678C38.7436 11.4492 38.1552 11.229 38.3977 11.3262C38.6441 11.4255 38.1681 11.2181 38.1158 11.1926C37.8024 11.0392 37.482 10.877 37.1893 10.6854C36.3151 10.1103 35.5178 9.74958 34.4286 10.0238C33.5722 10.2391 32.9552 11.0904 32.9522 11.9573C32.9493 12.7919 33.3012 13.5458 33.587 14.3086C33.7171 14.6546 33.8156 15.0016 33.9142 15.3574C34.0148 15.7211 33.8748 14.8502 33.8935 15.2011C33.8985 15.3004 33.864 15.5727 33.9191 15.1874C33.9537 14.9888 33.9585 14.9396 33.9359 15.0379C33.8945 15.1952 33.9408 15.093 34.0748 14.7332C33.933 14.9928 34.4445 14.346 34.2001 14.5484C34.8525 14.3764 35.5039 14.2044 36.1564 14.0323C35.8282 13.9174 36.601 14.3057 36.2274 14.052C36.1249 13.9822 36.0165 13.9193 35.912 13.8515C35.6084 13.6519 36.257 14.1553 35.9613 13.885C35.8736 13.8043 35.7819 13.7287 35.6942 13.649C35.2961 13.2863 34.9225 12.8961 34.5223 12.5362C33.5249 11.6368 32.2554 10.7709 30.8371 10.9184C29.9915 11.0058 29.0927 11.4746 28.8985 12.3908C28.7516 13.0828 28.7625 13.7453 28.9428 14.4305C29.0641 14.8915 29.273 15.323 29.4139 15.7781C29.5667 16.2676 29.6939 16.7699 29.8022 17.2712C29.8535 17.5082 29.896 17.747 29.9353 17.9859C29.8683 17.5838 29.9314 18.0016 29.9392 18.0872C29.9521 18.2404 29.96 18.3938 29.9659 18.5471C30.4577 17.9023 30.9505 17.2574 31.4423 16.6136C31.4276 16.6165 32.0406 16.5645 31.7774 16.5625C31.875 16.5635 32.3254 16.7021 32.0219 16.5812C31.9686 16.5596 31.8918 16.5291 31.8355 16.5213C31.6355 16.4928 32.2081 16.71 32.0169 16.6009C31.7272 16.4357 31.4197 16.3011 31.1299 16.1339C30.6538 15.8587 30.1729 15.5894 29.6998 15.3082C28.0321 14.3194 26.266 13.3561 24.3401 14.2781C23.7645 14.5533 23.2766 15.3692 23.3446 16.0101C23.4215 16.7356 23.6077 17.4236 23.7506 18.1353C23.7665 18.2139 23.7783 18.2925 23.7951 18.3712C23.8541 18.6474 23.7714 18.2641 23.7763 18.1894C23.7665 18.3339 23.8078 18.4911 23.8089 18.6386C23.8098 18.7005 23.7891 18.789 23.8029 18.8489C23.6945 18.3948 23.9143 18.4488 23.8207 18.6493C23.7201 18.8647 24.0424 18.2179 23.9261 18.4134C23.8748 18.5 23.9034 18.4655 24.0109 18.3122C24.1055 18.1638 24.2327 18.0478 24.3933 17.9642C25.2054 18.0684 26.0175 18.1736 26.8297 18.2778C26.0185 17.6409 25.4755 16.7474 24.6998 16.073C23.3624 14.9102 21.3705 15.7093 21.267 17.4914C21.1773 19.0347 21.8899 20.5131 22.2181 21.9915C22.6468 23.9269 23.0627 25.8654 23.4796 27.8037C23.8946 29.7323 24.2681 31.6697 24.62 33.6101C24.7619 34.3955 24.8861 35.1839 25.0644 35.9623C25.1048 36.1374 25.1453 36.3133 25.1818 36.4892C25.2074 36.6122 25.3228 36.9198 25.2813 37.0377C25.2419 36.7301 25.2331 36.6868 25.2537 36.907C25.2597 36.9915 25.2626 37.076 25.2616 37.1607C25.2497 37.3848 25.2636 37.3229 25.303 36.9749C25.2497 37.1813 25.2862 37.1184 25.4144 36.7881C26.5715 36.7881 27.7295 36.7881 28.8866 36.7881C28.4776 35.9231 28.0883 35.0384 27.5187 34.2628C27.089 33.6789 26.6336 33.1364 26.0028 32.7569C25.0053 32.1554 23.8039 32.3097 23.0352 33.1914C22.5837 33.7095 22.3009 34.3287 22.1885 35.004C22.1264 35.3765 22.084 35.754 22.0534 36.1315C22.0446 36.2435 22.0367 36.3556 22.0269 36.4666C22.0239 36.501 22.0209 36.5364 22.018 36.5708C21.9944 36.7881 22.0062 36.7035 22.0545 36.3173C22.1116 36.3644 21.8978 37.2294 21.8849 37.314C21.814 37.7602 21.7509 38.2085 21.6948 38.6567C21.6031 39.3831 21.5538 40.1095 21.5666 40.8418C21.5853 41.8897 22.4772 42.8962 23.5772 42.8471C24.684 42.798 25.5661 41.9664 25.5878 40.8418C25.5958 40.4329 25.5898 40.025 25.5997 39.616C24.2593 39.616 22.9189 39.616 21.5784 39.616C21.6297 40.0673 21.7243 39.2544 21.5992 39.6928C22.7197 39.3979 23.8394 39.1029 24.96 38.8081C24.893 38.752 24.8329 38.6881 24.7678 38.6301C24.5165 38.409 24.8604 38.5358 24.8319 38.7255C24.8427 38.6557 24.612 38.3736 24.5707 38.2989C24.4751 38.1229 24.3883 37.943 24.3056 37.7602C24.2386 37.6138 24.0651 37.4231 24.3194 37.8025C24.2602 37.714 24.2316 37.5892 24.1923 37.491C23.8128 36.5492 23.384 35.641 22.9563 34.7209C22.841 34.4741 22.7286 34.2265 22.6182 33.9778C22.5689 33.8667 22.5226 33.7556 22.4724 33.6456C22.3264 33.3251 22.6478 34.079 22.4261 33.5384C22.2476 33.1039 22.082 32.6656 21.9204 32.2241C21.534 31.1636 21.126 30.0665 20.3474 29.2212C19.6447 28.4584 18.6945 28.1222 17.8607 27.5502C17.4192 27.2464 17.0042 26.9014 16.5686 26.5888C16.471 26.519 16.3705 26.4413 16.268 26.3774C15.9792 26.1976 16.6011 26.6477 16.3922 26.4748C16.13 26.2585 15.8589 26.0511 15.5859 25.8496C15.1897 25.5567 14.7384 25.3257 14.2583 25.2087C13.1101 24.9266 12.1619 25.5931 11.5903 26.5328C11.0522 27.4175 10.8324 28.542 10.5229 29.521C10.1957 30.556 9.87636 31.5931 9.56491 32.633C9.52155 32.7766 9.35597 33.0627 9.37272 33.2052C9.34808 32.9879 9.54914 32.8464 9.43284 33.0548C9.37666 33.154 9.3195 33.2543 9.26431 33.3546C9.08 33.6937 9.5176 33.0646 9.34414 33.2415C9.17856 33.4107 9.75415 32.983 9.47029 33.1384C9.79357 32.9604 10.176 32.9064 10.521 33.0734C10.6432 33.1196 10.7466 33.1944 10.8334 33.2956C10.9989 33.5462 11.0305 33.5786 10.928 33.3929C10.0114 34.3071 9.0938 35.2222 8.17719 36.1363C8.23139 36.1659 8.60198 36.3428 8.34474 36.2131C8.13086 36.105 8.37628 36.2416 8.43542 36.2946C8.61184 36.4509 8.77644 36.62 8.94103 36.7881C9.38258 37.2363 9.84384 37.6206 10.3504 37.9981C10.7861 38.3235 11.2316 38.636 11.6721 38.9545C11.8919 39.1138 12.1127 39.2721 12.3266 39.4402C12.1669 39.3153 12.225 39.3615 12.3472 39.4617C12.4873 39.5777 12.6272 39.6937 12.7642 39.8117C13.529 40.4703 14.5757 40.6069 15.4047 39.969C16.1546 39.391 16.4809 38.2183 15.922 37.3818C15.3957 36.5925 14.7876 35.8631 14.1293 35.18C13.4344 34.4575 12.2605 34.429 11.4888 35.0226C10.7032 35.6282 10.4628 36.737 10.9714 37.6099C11.3252 38.2183 11.7195 38.7993 12.1433 39.3605C12.4231 39.7301 12.708 40.0967 12.9988 40.4585C13.1091 40.5961 13.2225 40.7327 13.3338 40.8694C13.4058 40.9569 13.4768 41.0453 13.5468 41.1338C13.6699 41.2901 13.6867 41.3117 13.598 41.1987C13.4502 41.005 13.7666 41.4238 13.8011 41.47C13.9035 41.6056 14.0041 41.7423 14.1066 41.8789C14.3786 42.2426 14.6546 42.6033 14.9344 42.9611C15.3701 43.5185 15.8274 44.0542 16.3429 44.5408C17.2309 45.3793 18.8985 45.3242 19.5008 44.1347C20.0724 43.0053 19.9068 41.872 19.5185 40.7161C19.1755 39.6967 18.9262 38.641 18.6798 37.5961C18.4215 36.504 18.1436 35.4306 17.8124 34.3592C17.6488 33.8314 17.4882 33.3015 17.3531 32.7658C17.2901 32.517 17.2438 32.2655 17.1836 32.0158C17.1196 31.7513 17.1895 32.0492 17.1964 32.1534C17.1984 31.9745 17.1925 31.9774 17.1768 32.1632C17.1629 32.4296 17.0574 32.6675 16.8603 32.8779C15.9122 32.8779 14.9641 32.8779 14.0169 32.8779C14.0848 32.9338 14.147 32.9938 14.213 33.0528C14.4377 33.2543 14.1341 33.0322 14.1539 32.9633C14.1371 33.0243 14.4003 33.3792 14.4377 33.4529C14.6151 33.8038 14.757 34.1724 14.9256 34.5282C15.3494 35.4267 15.8451 36.2917 16.3409 37.1518C17.3719 38.9437 18.2412 40.8054 19.1322 42.6682C19.4969 43.431 20.6125 43.8448 21.403 43.5902C22.1856 43.3376 22.973 42.5473 22.8794 41.6567C22.2694 35.869 21.2039 30.1314 20.9979 24.3063C20.9811 23.8208 20.9762 23.3322 21.0097 22.8467C21.0166 22.7504 21.0669 22.3385 21.0107 22.7336C20.9555 23.1219 21.0097 22.7533 21.0314 22.6609C21.0353 22.6422 21.0876 22.3846 21.1123 22.3827C21.1812 22.3778 20.6894 23.0708 20.7682 23.001C19.8201 23.001 18.8719 23.001 17.9248 23.001C17.9918 23.0658 18.1189 23.2497 18.1978 23.2929C18.0411 23.0864 18.0056 23.0452 18.0914 23.1671C18.1327 23.2261 18.1711 23.286 18.2096 23.3469C18.3525 23.575 18.4797 23.8129 18.6009 24.0537C18.8552 24.558 19.0908 25.0711 19.3539 25.5704C20.0251 26.8424 20.7131 28.1055 21.3872 29.3755C22.0377 30.6013 22.7011 31.8211 23.3229 33.0616C23.6284 33.6721 23.9252 34.2865 24.203 34.9096C24.2779 35.0777 24.3529 35.2468 24.4248 35.4159C24.2632 35.0325 24.4898 35.584 24.5007 35.6125C24.6338 35.9476 24.7589 36.2858 24.8792 36.6259C26.1043 36.1109 27.3293 35.5957 28.5545 35.0806C28.3613 34.7612 28.5861 35.3067 28.525 35.0787C28.4914 34.9539 28.4491 34.8339 28.4194 34.7081C28.3968 34.6069 28.381 34.5036 28.3613 34.4014C28.2874 34.0122 28.3919 34.6472 28.3574 34.3946C28.2686 33.7419 28.1662 33.0951 28.0508 32.4473C27.84 31.2628 27.6261 30.0773 27.3895 28.8978C27.1667 27.7861 26.8918 26.6861 26.6937 25.5695C26.672 25.4486 26.6513 25.3287 26.6326 25.2077C26.6336 25.2146 26.5596 24.672 26.5902 24.9325C26.6217 25.1989 26.5685 24.7094 26.5646 24.6593C26.5537 24.5403 26.5439 24.4203 26.536 24.3014C26.5271 24.1638 26.5458 23.9957 26.5242 23.8601C26.4867 23.6183 26.4147 24.2493 26.5242 23.8188C26.5941 23.5436 26.6789 23.2782 26.7785 23.0118C25.6578 23.3066 24.5382 23.6016 23.4176 23.8965C23.4796 23.9495 23.5378 24.0075 23.59 24.0705C23.4106 23.8326 23.3811 23.805 23.5023 23.9889C23.5664 24.1137 23.6343 24.2375 23.6974 24.3634C23.7881 24.5648 23.7783 24.5374 23.6688 24.2798C23.7054 24.3673 23.7408 24.4538 23.7773 24.5413C23.8788 24.785 23.9774 25.0288 24.0858 25.2696C24.4347 26.0482 24.825 26.8099 25.1798 27.5865C25.8944 29.1485 26.5715 30.7271 27.2496 32.3047C27.3234 32.4778 27.3974 32.6498 27.4713 32.8228C27.5206 32.9377 27.5698 33.0528 27.6182 33.1688C27.5373 32.9781 27.5432 32.9918 27.6349 33.2091C27.7917 33.5845 27.9484 33.9601 28.1012 34.3375C28.4194 35.1209 28.7269 35.9083 29.0167 36.7026C29.6091 38.3225 30.0132 40.0034 30.6154 41.6203C30.98 42.6014 31.9933 43.3749 33.0893 43.021C34.2089 42.6594 34.687 41.6646 34.4937 40.5539C33.924 37.2737 33.3239 33.9994 32.6467 30.7389C32.3126 29.1288 31.9548 27.5226 31.5409 25.9302C31.3408 25.1606 31.1201 24.3997 30.8894 23.6389C30.778 23.2694 30.6677 22.8977 30.573 22.5232C30.5296 22.3503 30.4883 22.1772 30.4518 22.0033C30.434 21.9197 30.3207 21.1805 30.3798 21.6562C30.0477 22.2332 29.7155 22.8102 29.3844 23.3883C28.8157 23.6752 28.1267 23.7372 27.56 23.3971C27.7631 23.519 27.2712 23.1219 27.2909 23.1818C27.3008 23.2114 27.4013 23.2978 27.425 23.3195C27.6576 23.5318 27.1076 22.8614 27.292 23.1444C27.5157 23.4895 27.7295 23.8345 27.9227 24.1972C28.4175 25.1271 28.8463 26.0915 29.2642 27.0577C29.3085 27.1608 29.3528 27.2641 29.3972 27.3674C29.5864 27.8087 29.272 27.0675 29.3725 27.3083C29.4563 27.5088 29.5411 27.7094 29.6239 27.9099C29.7963 28.3257 29.9669 28.7425 30.1463 29.1553C30.8214 30.7094 31.5143 32.2566 32.1982 33.8067C33.0902 35.8277 34.0107 37.8379 35.0496 39.7891C35.981 41.5387 38.8609 40.7426 38.7969 38.7766C38.7406 37.0466 38.241 35.3943 37.9562 33.6986C37.6773 32.0423 37.4436 30.3782 37.1834 28.7189C36.6621 25.3945 36.0539 22.0799 35.4301 18.7732C35.2536 17.8355 35.0742 16.8958 34.8623 15.9649C34.7786 15.5973 34.6711 15.2355 34.5884 14.8678C34.5706 14.7873 34.5598 14.7028 34.5381 14.6241C34.4751 14.3961 34.5321 14.9691 34.5381 14.5887C34.5391 14.5121 34.545 14.4246 34.5381 14.3489C34.5144 14.0992 34.4365 14.7794 34.5568 14.337C33.5722 14.7362 32.5876 15.1362 31.6029 15.5354C31.7725 15.6376 31.7113 15.5904 31.4217 15.3927C31.2343 15.1323 31.1851 15.0665 31.2738 15.1962C31.326 15.3191 31.4196 15.436 31.4798 15.5569C31.4975 15.5943 31.5153 15.6326 31.533 15.67C31.6197 15.8666 31.603 15.8243 31.4807 15.5432C31.4581 15.5934 31.6 15.8479 31.6177 15.8941C31.8859 16.5852 32.2071 17.228 32.555 17.8807C33.3071 19.2922 34.0818 20.692 34.8042 22.1193C36.2472 24.9728 37.4879 27.9217 38.8955 30.792C39.5114 32.0492 41.7881 32.1583 42.3677 30.792C42.7639 29.8591 42.828 29.0404 42.6407 28.0446C42.5353 27.4843 42.3302 26.9515 42.1578 26.4109C41.6866 24.9393 41.4166 23.3843 41.0904 21.8764C40.4014 18.6808 39.5736 15.5284 38.7249 12.3712C38.4815 11.4658 38.24 10.5605 38.0054 9.65325C37.8842 9.18535 37.757 8.71746 37.6507 8.24662C37.6309 8.15815 37.6181 8.06477 37.5944 7.97728C37.6407 8.14832 37.6142 8.21221 37.5964 7.99497C37.5776 7.75808 37.5669 7.52119 37.561 7.2833C36.3122 7.62047 35.0624 7.95763 33.8136 8.29577C34.8703 9.6847 35.642 11.2535 36.389 12.8233C37.1322 14.3862 37.9355 15.9196 38.6736 17.4855C40.1886 20.6979 41.6147 23.9338 43.9821 26.635C44.8061 27.5757 46.5772 27.3319 47.14 26.229C47.5539 25.4191 47.4751 24.6248 47.143 23.8129C46.9981 23.4581 46.8433 23.1091 46.6827 22.7621C46.6561 22.7041 46.5161 22.3837 46.6462 22.6904C46.726 22.8771 46.7201 22.8624 46.6295 22.6462C46.5378 22.4289 46.4461 22.2106 46.3534 21.9935C46.183 21.5914 46.0105 21.1893 45.838 20.7883C45.5955 20.2221 45.9848 21.149 45.7502 20.579C45.6557 20.3489 45.561 20.1179 45.4694 19.886C45.157 19.0917 44.8947 18.2807 44.6336 17.4688C44.0984 15.7978 43.5879 14.1188 43.0133 12.4606C42.4386 10.8024 41.6965 9.20599 41.1593 7.53495C40.6912 8.35769 40.2231 9.17946 39.7549 10.0022C39.0827 10.1624 38.5328 10.0317 38.104 9.60999C38.1365 9.63751 38.1681 9.66603 38.1986 9.69551C38.2745 9.78005 38.3582 9.85869 38.4322 9.94518C38.5022 10.0258 38.5643 10.1162 38.6362 10.1939C38.2449 9.7712 38.4864 10.0012 38.5761 10.1221C38.7733 10.3875 38.9674 10.6529 39.1753 10.9105C39.26 11.0156 39.3458 11.1208 39.4316 11.225C39.8032 11.6782 39.205 10.9114 39.5518 11.3774C40.4931 12.6385 41.2687 13.9999 42.1183 15.3211C42.9857 16.6697 43.9141 17.979 44.7607 19.3414C45.5305 20.5799 46.2943 21.8932 47.4494 22.8172C48.1295 23.3617 49.0836 23.6468 49.8858 23.1307C50.6182 22.6598 51.0844 21.7359 50.8103 20.866C50.699 20.5121 50.5462 20.1798 50.3264 19.8821C50.2091 19.7267 50.0899 19.5724 49.9686 19.419C50.1174 19.6157 50.15 19.6549 50.0652 19.538C50.0091 19.4436 49.9519 19.3453 49.8937 19.2519C50.1047 19.5831 49.8612 19.1635 49.8287 19.077C49.7754 18.9384 49.7252 18.7997 49.675 18.6602C49.5646 18.3525 49.4591 18.0439 49.3536 17.7342C48.8776 16.3512 48.3001 15.0075 47.7185 13.6667C47.1834 12.4311 46.6402 11.1946 46.0568 9.98156C45.972 9.80463 45.8814 9.63063 45.7947 9.45469C45.7345 9.33279 45.6744 9.21091 45.6162 9.08804C45.5887 9.03005 45.43 8.65061 45.5433 8.93667C45.6577 9.22368 45.5078 8.83443 45.4872 8.77447C45.4408 8.64177 45.3984 8.50809 45.3659 8.37244C45.3491 8.30756 45.3353 8.2417 45.3235 8.17486C45.295 8.0166 45.3058 8.08836 45.3561 8.38915C45.3797 8.37146 45.3709 8.06674 45.3757 8.03233C44.2315 8.50513 43.0872 8.97795 41.9429 9.45075C44.1575 11.2594 46.2224 13.2559 48.3197 15.1962C49.3438 16.1448 50.352 17.1149 51.2736 18.1638C51.2933 18.1864 51.5979 18.5795 51.6235 18.5707C51.5761 18.5884 51.2667 18.0842 51.5111 18.442C51.6481 18.6434 51.79 18.8411 51.9379 19.0337C52.4701 19.7287 53.0289 20.3194 53.8962 20.5819C55.146 20.9603 56.45 19.9243 56.4421 18.6484C56.4352 17.574 55.9138 16.711 55.3737 15.8253C54.872 15.0026 54.2886 14.2289 53.6716 13.4878C52.544 12.1333 51.2499 10.9203 49.9115 9.7771C48.4725 8.54839 46.9675 7.39734 45.4625 6.25021C44.7075 5.67419 43.9407 5.11291 43.1621 4.56737C42.3568 4.00314 41.5891 3.40648 40.6399 3.09881C39.8761 2.85111 38.9959 3.21186 38.5258 3.81736C38.0636 4.41501 37.9148 5.3852 38.3681 6.04476C38.9003 6.81836 39.5125 7.53298 40.1491 8.22204C40.4132 8.50809 40.6833 8.78725 40.9346 9.08411C41.0125 9.17552 41.2707 9.50482 41.0588 9.22663C41.1988 9.41144 41.3338 9.60016 41.4659 9.79086C42.4288 11.1808 43.2587 12.6513 44.2571 14.0186C45.3502 15.5157 46.524 16.9527 47.687 18.3958C47.9501 18.7222 48.2113 19.0494 48.4736 19.3767C48.6164 19.5557 48.7603 19.7346 48.9022 19.9134C48.9289 19.9469 49.2758 20.403 49.0155 20.055C49.5349 20.747 50.0277 21.4489 50.427 22.2185C50.7473 22.8368 51.4835 23.2114 52.1636 23.2114C52.9333 23.2114 53.4636 22.8034 53.9002 22.2185C54.4768 21.4449 54.4531 20.3175 54.396 19.3994C54.3329 18.3899 54.3635 17.3754 54.3635 16.3639C54.3635 14.3204 54.5695 12.15 53.9554 10.1683C53.2339 7.8377 51.4766 6.24431 49.5024 4.92418C47.7096 3.72496 45.7572 2.56113 43.5868 2.25444C42.2238 2.06178 40.8824 2.11781 39.5114 2.13649C38.1996 2.15418 36.8868 2.13944 35.575 2.13944C34.5233 2.13944 33.515 3.06146 33.5644 4.1447C33.5998 5.22596 34.4346 6.14503 35.5621 6.14503V6.14503Z" fill="#CAEBCC"/>
                <path fill-rule="evenodd" clip-rule="evenodd" d="M56.5678 15.6031C56.1342 12.3918 54.3926 9.06147 51.7906 6.46644C46.6044 1.20854 38.1676 -1.01002 32.0697 4.91335L29.7831 7.17122L27.0608 4.45922C21.989 -0.452677 14.2766 1.29013 11.3297 2.9071C9.2944 4.07782 7.45724 5.54736 5.86943 7.27443C3.0516 10.2823 1.21936 13.7955 0.705865 17.1699C0.126331 20.9799 1.27555 24.444 4.0303 27.1854L7.7608 30.906L7.28968 31.4456C5.93053 33.0006 6.06557 35.3932 7.5903 36.7782L7.61592 36.8028C8.20925 37.4014 8.99871 37.7366 9.83845 37.7504C9.9508 37.7465 10.0681 37.7356 10.1874 37.7189L11.1346 37.5902L11.0576 38.5407C11.0429 38.7225 11.0389 38.871 11.0468 39.0076C11.0951 39.9179 11.4952 40.7543 12.1734 41.3619L12.195 41.3814C12.9785 42.1453 14.0134 42.5748 15.1075 42.5914C15.1459 42.5925 15.1764 42.5934 15.207 42.5934C15.4357 42.5934 15.6781 42.564 15.9265 42.5069L16.8737 42.2878L16.8688 43.2579C16.8638 44.2124 17.26 45.1246 17.9559 45.7616L17.9697 45.7753C18.7246 46.5067 19.7191 46.9175 20.7697 46.9352C21.6548 46.9175 22.5093 46.541 23.1155 45.9012L23.1273 45.8894L24.2874 44.7236L24.6176 46.0427C24.7693 46.6492 25.0808 47.1997 25.5184 47.6351L28.8103 50.9182C29.446 51.5532 30.3261 51.9169 31.226 51.9169H31.2467C32.1594 51.914 33.0208 51.5582 33.6713 50.9162L34.0399 50.5476C34.6796 49.9047 35.0353 49.0516 35.0403 48.1483L35.0423 48.1069C35.0501 47.99 35.0521 47.873 35.0492 47.76L35.0206 46.7671L35.9904 46.9913C37.1376 47.2557 38.3676 46.9057 39.2025 46.0771L39.5849 45.6957C40.2975 44.983 40.6661 43.9579 40.5705 42.9532L40.468 41.8641L41.5295 42.1394C42.7122 42.446 43.9836 42.102 44.8471 41.2399L44.8559 41.231L45.2383 40.8635C45.877 40.2215 46.2397 39.3359 46.2347 38.4316C46.2347 38.2556 46.222 38.0836 46.1953 37.9155L46.0308 36.8608L47.0863 37.0436C47.3091 37.082 47.5347 37.1026 47.7575 37.1036C48.6702 37.1036 49.5611 36.7399 50.2008 36.1068L50.5783 35.7176C51.2297 35.0669 51.5876 34.2019 51.5865 33.2828C51.5856 32.3637 51.2258 31.5007 50.5743 30.8519L49.092 29.3736L53.0758 25.5262C55.8601 22.7404 57.0685 19.3109 56.5678 15.6031V15.6031ZM33.8437 50.3225L33.4722 50.6931C32.9005 51.2701 32.0894 51.6053 31.2506 51.6102H31.2299C30.4069 51.6102 29.6046 51.2741 29.0281 50.6872L25.7342 47.4021C25.1429 46.8094 24.8186 46.024 24.8206 45.1894C24.8215 44.8012 24.8945 44.4198 25.0373 44.0562L25.0955 43.9087L26.6863 42.3104C26.6883 42.3075 26.6952 42.2985 26.706 42.2799L26.8302 42.0685L27.0549 41.9683C28.2376 41.4424 29.6431 41.7029 30.5528 42.6151L33.8437 45.8962C34.4312 46.4703 34.7682 47.2783 34.7633 48.1079C34.7662 48.9297 34.4312 49.7387 33.8437 50.3225V50.3225ZM39.3611 45.394L38.9698 45.7841C38.3775 46.372 37.5929 46.6944 36.7582 46.6944C35.9174 46.6944 35.1289 46.3681 34.5376 45.7753L29.1877 40.4781C28.5983 39.9011 28.2613 39.0931 28.2672 38.2644C28.2642 37.4447 28.5993 36.6337 29.1877 36.0499L29.5574 35.6813C30.1486 35.1043 30.9194 34.7808 31.7374 34.7631L31.8489 34.7493L31.903 34.7513C32.6905 34.7808 33.4534 35.1161 34.0014 35.6714L39.3679 40.9725C39.9613 41.5672 40.2856 42.3526 40.2836 43.1881C40.2817 44.0227 39.9534 44.8061 39.3611 45.394V45.394ZM45.0087 40.6177L44.6273 40.9981C44.0261 41.5692 43.2396 41.8848 42.4116 41.8848C41.5847 41.8848 40.7992 41.5702 40.2 41.0001L40.1882 40.9883L32.3753 33.1963C31.7938 32.6124 31.4636 31.8074 31.4676 30.9846C31.4705 30.1579 31.7888 29.3736 32.3654 28.7789L32.3743 28.7699L32.7587 28.3866C33.3501 27.8018 34.1306 27.4813 34.9585 27.4813H34.9714C35.8051 27.4842 36.5907 27.8018 37.188 28.3759L37.1979 28.3847L45.0117 36.1904C45.5991 36.7635 45.9351 37.5714 45.9303 38.4021C45.9362 39.2229 45.6001 40.0339 45.0087 40.6177V40.6177ZM50.4 31.0416C51.5718 32.2763 51.5738 34.2097 50.4039 35.4423L50.39 35.4561L49.9959 35.8483C49.3986 36.4234 48.612 36.7409 47.7812 36.7449H47.7644C46.9355 36.7449 46.155 36.4244 45.5676 35.8415L40.6366 30.9365C40.0481 30.3516 39.7131 29.5417 39.7161 28.713C39.719 27.9001 40.0541 27.1068 40.6356 26.5337L41.0062 26.1514C41.5818 25.5763 42.3752 25.2431 43.1883 25.2333L43.3175 25.2205L43.3627 25.2215C44.1552 25.246 44.9259 25.5822 45.4768 26.1426L50.4 31.0416V31.0416ZM52.7968 25.3414L52.7929 25.3454L48.8968 29.1759L45.668 25.9557C45.0323 25.3207 44.1531 24.9571 43.2552 24.9571H43.2118C42.313 24.9571 41.4329 25.3207 40.7972 25.9548L40.4137 26.3372C39.8461 26.8975 39.4961 27.6367 39.4242 28.423L39.2763 30.0528L37.4215 28.2028C36.7808 27.5599 35.8958 27.1913 34.99 27.1913H34.9732C34.0576 27.1913 33.1735 27.558 32.5427 28.1969L32.5299 28.2087L32.1475 28.5773C31.5089 29.2182 31.1462 30.1049 31.151 31.0092C31.1462 31.8251 31.431 32.6065 31.9543 33.2189L32.936 34.369L31.4251 34.48C30.6238 34.539 29.8669 34.8821 29.2932 35.4463L28.9069 35.8188C27.738 36.9955 27.5693 38.8414 28.5067 40.2117L29.2331 41.2743L27.9508 41.4061C27.1771 41.4856 26.4508 41.8336 25.9067 42.387L25.5065 42.7862C25.2611 43.0318 25.0551 43.313 24.8945 43.6197L24.8699 43.6659L24.7959 43.7671L22.8828 45.6937C22.2521 46.26 21.4429 46.5725 20.6042 46.5725C19.6697 46.5725 18.7965 46.198 18.1431 45.5178C18.0278 45.4096 17.9203 45.2907 17.8218 45.1649C16.7918 43.8379 17.0225 41.927 18.3284 40.8683C18.3343 40.8595 18.3402 40.8487 18.3452 40.837L18.4004 40.6954L24.5584 34.3768C24.586 34.3483 24.5997 34.3139 24.5988 34.2736C24.5978 34.2343 24.584 34.1999 24.5564 34.1734L24.5495 34.1664C24.4884 34.1055 24.3889 34.1055 24.3258 34.1655L17.2255 41.4385L17.2068 41.4552C15.8062 42.7006 13.6467 42.5885 12.3753 41.2114C12.259 41.1052 12.1487 40.9873 12.0462 40.8605C11.5257 40.2097 11.2902 39.3969 11.3838 38.5702C11.4755 37.7603 11.8757 37.0288 12.5123 36.5059L19.4283 29.3666C19.4756 29.3175 19.4746 29.233 19.4233 29.1838L19.4135 29.175C19.3515 29.1131 19.25 29.1131 19.1878 29.175L18.8162 29.5436L18.7068 29.5947C18.6872 29.6035 18.6714 29.6133 18.6634 29.6212L15.0838 33.3349L12.1743 36.2828C12.0826 36.3654 11.9949 36.4529 11.9121 36.5442C11.8559 36.6072 11.7948 36.6809 11.7229 36.7762L11.6865 36.8235L11.5819 36.9217L11.5317 36.9542C10.3657 37.7218 8.80648 37.5626 7.81398 36.5767C6.40654 35.3107 6.25673 33.1166 7.4838 31.6746L7.51141 31.6442L21.2615 17.2663C21.2892 17.2132 21.2812 17.1454 21.2388 17.0953C21.2113 17.0618 21.1748 17.0432 21.1314 17.0403C21.1009 17.0373 21.0693 17.0403 21.028 17.0688L7.99237 30.7055L4.25301 26.9761C1.4194 24.1559 0.318482 20.6084 1.0705 16.7159C1.67369 13.591 3.4586 10.3157 6.0951 7.49365C7.65628 5.7882 9.4698 4.33242 11.4804 3.17448C12.7873 2.44217 15.3509 1.58108 18.2998 1.54669C20.683 1.51818 24.101 2.04112 26.842 4.68531L26.8499 4.69317L37.5555 15.3446C38.3184 16.1212 38.3647 16.9193 37.6915 17.5985L37.6117 17.6694L37.586 17.687C35.1714 19.3728 31.8528 19.1467 29.6934 17.1483L29.6786 17.1336L26.9691 14.4697C25.0857 12.7801 22.9627 13.4199 20.7165 14.0972C18.0741 14.8983 15.0788 15.8056 11.7495 13.1801C11.6894 13.1339 11.5839 13.1526 11.5267 13.2263C11.5031 13.2558 11.4932 13.2921 11.4982 13.3315C11.5031 13.3708 11.5218 13.4033 11.5523 13.4278C15.0009 16.1438 18.0829 15.2198 20.8032 14.4039C22.9804 13.7424 25.0403 13.1163 26.7543 14.6998L26.7701 14.7145L29.4608 17.3597C31.2309 19.1016 35.6474 20.0923 37.8896 17.8413L37.9123 17.8187C37.9793 17.7568 38.0424 17.6889 38.1006 17.6173C38.3893 17.2555 38.5204 16.8013 38.4682 16.3374C38.4169 15.8763 38.1902 15.4655 37.8315 15.1804L37.7724 15.1284L29.9979 7.38355L32.2865 5.11387C35.121 2.36648 38.6249 1.23312 42.4224 1.83076C45.6571 2.33994 48.8869 4.06898 51.5156 6.69842C54.0683 9.25119 55.7241 12.3859 56.1774 15.5245C56.7097 19.2106 55.5408 22.6049 52.7968 25.3414V25.3414Z" fill="#284764"/>
                <path fill-rule="evenodd" clip-rule="evenodd" d="M31.2257 52.4707C30.179 52.4707 29.154 52.047 28.4148 51.3088L25.1229 48.0257C24.6133 47.5195 24.2506 46.8796 24.0742 46.1748L23.9845 45.815L23.5154 46.2869C22.8126 47.028 21.8142 47.4684 20.7804 47.489H20.7704H20.7606C19.567 47.4693 18.4376 47.0025 17.5801 46.1718L17.5712 46.1639C16.765 45.4267 16.3037 44.3631 16.3096 43.2524L16.3106 42.988L16.0524 43.048C15.7626 43.1148 15.4787 43.1492 15.2068 43.1492C15.1723 43.1492 15.1378 43.1482 15.0934 43.1472C13.8633 43.1286 12.6955 42.644 11.8084 41.7829L11.7955 41.7701C11.009 41.0633 10.5448 40.0922 10.4887 39.0345C10.4798 38.8723 10.4837 38.7003 10.5005 38.4929L10.5212 38.2344L10.263 38.2697C10.126 38.2885 9.98995 38.3003 9.86084 38.3051L9.84507 38.3061H9.8293C8.84469 38.2904 7.92019 37.8982 7.22337 37.1993L7.2076 37.1836C5.46506 35.5942 5.31229 32.8575 6.86757 31.0774L6.9957 30.931L3.6348 27.578C0.74994 24.7067 -0.454466 21.0786 0.153651 17.0858C0.683904 13.6012 2.56837 9.98092 5.4621 6.89341C7.0844 5.128 8.96591 3.6221 11.0515 2.42386L11.0613 2.41795C14.1206 0.738064 22.1533 -1.06962 27.4489 4.05853L29.7838 6.38423L31.6751 4.51659C34.6379 1.64043 38.326 0.405821 42.3463 0.944487C45.8471 1.41336 49.4347 3.28297 52.1885 6.0746C54.8722 8.75122 56.672 12.1985 57.1214 15.5278C57.6458 19.4144 56.3832 23.0062 53.4698 25.9139L49.8881 29.3739L50.9692 30.4523C51.7263 31.2062 52.1442 32.2087 52.1451 33.2773C52.1461 34.3448 51.7302 35.3493 50.9732 36.1062L50.5938 36.4975C49.8507 37.2328 48.8167 37.6554 47.7572 37.6554C47.5 37.6544 47.2437 37.6308 46.9904 37.5876L46.7026 37.5375L46.748 37.8254C46.7785 38.0221 46.7943 38.2246 46.7932 38.428C46.7993 39.4749 46.3774 40.506 45.6352 41.2521L45.6263 41.2599L45.238 41.6344C44.2396 42.6312 42.7632 43.0312 41.3892 42.6744L41.0995 42.5997L41.1271 42.8966C41.2375 44.0643 40.8087 45.2566 39.9808 46.0853L39.5985 46.4677C38.6276 47.432 37.1975 47.839 35.8649 47.5313L35.6008 47.4703L35.6087 47.7406C35.6126 47.8684 35.6097 48.0002 35.6018 48.1319L35.6008 48.1575C35.5919 49.2043 35.18 50.1921 34.4378 50.9372L34.0672 51.3069C33.3102 52.0549 32.3099 52.4677 31.2494 52.4707H31.2257V52.4707ZM25.5734 44.2197L25.5575 44.26C25.4403 44.5588 25.3801 44.8724 25.3792 45.1918C25.3772 45.878 25.6443 46.5238 26.1302 47.0103L29.4231 50.2944C29.8991 50.779 30.5565 51.0543 31.2297 51.0543H31.2504C31.9394 51.0503 32.6055 50.7761 33.0747 50.3022L33.4492 49.9288C33.9322 49.449 34.2072 48.7866 34.2052 48.1112C34.2091 47.4261 33.9361 46.7665 33.4542 46.2957L30.1593 43.0106C29.4103 42.2606 28.2551 42.0473 27.2833 42.4789L27.2222 42.5054L27.1888 42.5634C27.168 42.5987 27.1483 42.6282 27.1286 42.6538L27.0843 42.7039L25.5734 44.2197V44.2197ZM31.8723 35.3071L31.7491 35.3189C31.075 35.3336 30.4343 35.603 29.9474 36.0777L29.5827 36.4415C29.0988 36.9231 28.8228 37.5856 28.8248 38.2609C28.8199 38.9461 29.0949 39.6066 29.5778 40.0794L34.9306 45.3796C35.4195 45.8691 36.067 46.1374 36.7579 46.1374C37.4439 46.1374 38.0894 45.8721 38.5754 45.3894L38.9667 44.9992C39.4536 44.5165 39.7227 43.8726 39.7236 43.1855C39.7256 42.4995 39.4584 41.8527 38.9716 41.3641L33.6079 36.0659C33.1535 35.6059 32.5258 35.3307 31.8822 35.3071H31.8723V35.3071ZM18.882 41.0043L18.8673 41.0417C18.8486 41.0889 18.8259 41.1321 18.7993 41.1734L18.751 41.2472L18.6829 41.3022C17.6155 42.1663 17.4283 43.7469 18.265 44.8241C18.3449 44.9274 18.4336 45.0247 18.5273 45.1132L18.547 45.1329C19.0939 45.702 19.8243 46.0155 20.6049 46.0155C21.3007 46.0155 21.972 45.758 22.4982 45.2901L24.3698 43.4048L24.3995 43.3625C24.5857 43.0047 24.8252 42.6783 25.1111 42.3923L25.5122 41.9923C26.144 41.3503 26.9915 40.9434 27.8944 40.851L28.2442 40.8147L28.0462 40.5247C26.959 38.9353 27.1543 36.7904 28.5114 35.425L28.5203 35.4171L28.9066 35.0446C29.57 34.3919 30.4521 33.9919 31.3854 33.923L31.7974 33.8926L31.5293 33.5791C30.9192 32.8654 30.587 31.9512 30.5929 31.0046C30.587 29.9598 31.0099 28.9286 31.752 28.1835L31.76 28.1756L32.1502 27.7992C32.8796 27.06 33.9105 26.6334 34.973 26.6334H34.9897C36.0434 26.6334 37.0733 27.0619 37.8174 27.809L38.8266 28.8165L38.8671 28.3722C38.9508 27.4551 39.3599 26.592 40.0202 25.9404L40.4017 25.5599C41.1408 24.8218 42.165 24.3981 43.2117 24.3981H43.2549C44.3007 24.3981 45.3238 24.8218 46.064 25.5599L48.9005 28.389L52.4013 24.9475L52.63 25.1747L52.4013 24.9466C55.0162 22.3388 56.1309 19.1088 55.6243 15.6055C55.1877 12.5848 53.5881 9.56117 51.1201 7.09294C48.5743 4.54705 45.4539 2.87404 42.3354 2.38256C38.7183 1.81342 35.3771 2.89567 32.6755 5.51429L30.7891 7.38489L38.1564 14.7227L38.1929 14.7552C38.6611 15.1327 38.9568 15.6713 39.0238 16.2758C39.0918 16.8862 38.9193 17.4858 38.5379 17.9645C38.463 18.058 38.3812 18.1455 38.2954 18.2241L38.2806 18.2379C37.1433 19.3771 35.4225 19.8784 33.4335 19.6513C31.7303 19.4558 30.0568 18.7303 29.0672 17.7561L26.3677 15.1032C24.8942 13.7428 23.0728 14.2961 20.9646 14.937C18.2532 15.75 14.8815 16.7604 11.2052 13.8647C11.0594 13.7516 10.9657 13.5854 10.942 13.3996C10.9193 13.2139 10.9697 13.031 11.084 12.8836C11.3324 12.5671 11.7828 12.5032 12.0893 12.7391C15.1939 15.1877 17.9182 14.3629 20.5526 13.5648C22.8501 12.8728 25.2244 12.1562 27.3415 14.0563L27.3602 14.074L30.0785 16.7457C32.0398 18.5603 35.0637 18.7667 37.2635 17.2312L37.3049 17.1949C37.6055 16.8862 37.8509 16.443 37.1551 15.7352L26.4505 5.08277C23.8475 2.57129 20.5842 2.07489 18.3065 2.1034C15.462 2.13584 12.999 2.96251 11.7542 3.65943C9.79875 4.7869 8.03157 6.20434 6.50783 7.86949C3.93738 10.6198 2.20272 13.7977 1.61924 16.8214C0.904686 20.5233 1.9514 23.8988 4.648 26.5813L7.98327 29.9077L20.67 16.6435L20.7163 16.6111C20.8581 16.5128 21.0168 16.4695 21.1864 16.4842C21.3756 16.4999 21.5491 16.5894 21.6733 16.7359C21.8605 16.957 21.898 17.2656 21.766 17.5203L21.7295 17.592L7.91231 32.0397C6.88729 33.2507 7.01345 35.0987 8.19518 36.1613L8.21489 36.1799C9.01914 36.9791 10.2866 37.1078 11.2298 36.4866L11.2397 36.4798L11.2811 36.4375C11.3629 36.3294 11.4328 36.2439 11.5009 36.1681C11.5925 36.0669 11.6901 35.9687 11.7916 35.8772L14.6893 32.9411L18.2947 29.2029C18.344 29.1586 18.4021 29.1212 18.4721 29.0878L18.4937 29.0781L18.7964 28.7772C19.0753 28.499 19.5306 28.499 19.8105 28.7782L19.8154 28.7822C20.0864 29.0416 20.0963 29.4771 19.8332 29.7503L12.8935 36.9143L12.8689 36.9349C12.3446 37.3654 12.0153 37.968 11.9404 38.6315C11.8645 39.3097 12.0578 39.9772 12.4845 40.5119C12.5673 40.6151 12.658 40.7114 12.7536 40.7979L12.7881 40.8324C13.8526 41.9844 15.669 42.0768 16.8369 41.0378L16.8409 41.0349L23.9401 33.7628C24.2201 33.4944 24.6705 33.4984 24.9455 33.7717L24.9494 33.7756C25.0815 33.9034 25.1564 34.0784 25.1594 34.2651C25.1623 34.4529 25.0924 34.6308 24.9612 34.7655L18.882 41.0043V41.0043ZM34.9581 28.038C34.278 28.038 33.6364 28.3024 33.1514 28.7822L32.7631 29.1694C32.2911 29.657 32.0288 30.3037 32.0259 30.987C32.022 31.6632 32.294 32.3247 32.771 32.8034L40.5898 40.6013C41.0796 41.0673 41.7282 41.3267 42.4112 41.3267C43.0933 41.3267 43.7408 41.0682 44.2366 40.5984L44.614 40.2209C45.0989 39.7413 45.3749 39.0797 45.37 38.4054C45.3739 37.7174 45.1009 37.0577 44.619 36.5879L36.7942 28.7713C36.3054 28.3015 35.6559 28.039 34.968 28.0371H34.9581V28.038V28.038ZM43.3357 25.7782L43.1947 25.79C42.5265 25.7979 41.8731 26.073 41.401 26.5449L41.0274 26.9302C40.5504 27.3991 40.2764 28.0489 40.2744 28.7143C40.2714 29.3946 40.5475 30.061 41.0304 30.5407L45.9613 35.4456C46.4433 35.9224 47.0839 36.1859 47.764 36.1859H47.7808C48.4648 36.1829 49.1143 35.9195 49.6071 35.4456L50.0023 35.0515C50.9613 34.041 50.9613 32.4486 49.9983 31.4283L45.0812 26.537C44.6258 26.073 43.9941 25.7979 43.3445 25.7782H43.3357V25.7782ZM11.895 12.9888C12.1605 13.346 12.3996 13.6676 12.9307 14.0245C12.665 13.6676 12.1605 13.346 11.895 12.9888V12.9888Z" fill="#284764"/>
                </g>
                </g>
                </svg>