<svg width="58" height="57" viewBox="0 0 58 57" fill="none" xmlns="http://www.w3.org/2000/svg">
                <mask id="mask0_0_181" style="mask-type:alpha" maskUnits="userSpaceOnUse" x="0" y="0" width="58" height="57">
                <rect y="0.0153809" width="58" height="56.8846" fill="white"/>
                </mask>
                <g mask="url(#mask0_0_181)">
                <mask id="mask1_0_181" style="mask-type:alpha" maskUnits="userSpaceOnUse" x="0" y="0" width="58" height="57">
                <rect y="0.345154" width="57.0038" height="55.7692" fill="white"/>
                </mask>
                <g mask="url(#mask1_0_181)">
                <path fill-rule="evenodd" clip-rule="evenodd" d="M0.359404 33.7028C1.72779 35.5203 3.02163 37.3914 4.3346 39.2489C4.96145 40.1358 5.59118 41.0196 6.24478 41.8864C6.52668 42.2609 6.80858 42.6336 7.06849 43.0235C7.44499 43.5901 7.90462 44.2314 8.54963 44.5209C9.53578 44.9633 10.6672 44.9643 11.4746 44.1433C13.2959 42.2906 11.4498 39.655 10.6328 37.7716C10.0728 36.4807 9.5377 35.1772 8.96435 33.892C8.90415 33.7582 8.84395 33.6235 8.7847 33.4887C8.73692 33.3808 8.6901 33.2737 8.64423 33.1648C8.67959 33.2489 8.71591 33.332 8.75125 33.4161C8.57734 33.1371 8.48943 32.7357 8.39005 32.4223C8.14542 31.6484 7.90653 30.8647 7.47843 30.1681C6.21517 31.1429 4.95189 32.1175 3.68767 33.0931C3.82336 33.227 3.95618 33.3626 4.08328 33.5031C4.16833 33.5977 4.43206 33.8127 4.45212 33.9369C4.39289 33.8595 4.33364 33.7821 4.27535 33.7047C4.34128 33.7917 4.4053 33.8786 4.46932 33.9666C4.56489 34.0984 4.65854 34.2322 4.75027 34.3679C5.14874 34.9517 5.51664 35.5547 5.89887 36.1491C6.75602 37.4821 7.55584 38.8514 8.3996 40.1931C9.24146 41.5299 10.1732 42.8018 11.0599 44.1071C11.9199 45.3723 12.563 46.7971 13.6056 47.9303C14.3002 48.6853 15.6629 48.8668 16.5306 48.3078C17.4919 47.6876 17.835 46.6843 17.64 45.5825C17.3791 44.1109 16.7666 42.7158 16.241 41.3244C15.6352 39.7182 14.9825 38.13 14.2955 36.5562C13.6801 35.1467 13.0055 33.7659 12.3643 32.3679C12.1981 32.0047 12.0366 31.6397 11.8759 31.2737C11.6705 30.8074 12.0441 31.6837 11.833 31.1695C11.7317 30.923 11.6305 30.6573 11.5052 30.4156C11.3905 30.1939 11.2501 29.9857 11.1259 29.7696C11.0666 29.6674 11.0188 29.5164 10.9405 29.4266C11.0934 29.8213 11.1326 29.9054 11.0551 29.6798C11.0876 30.1585 11.1067 30.279 11.1106 30.042C9.73741 30.6106 8.36425 31.1801 6.99109 31.7486C7.1048 31.8777 7.27489 32.17 7.42014 32.257C7.41537 32.2541 7.14112 31.8815 7.29783 32.0974C7.36281 32.1872 7.43066 32.2752 7.49563 32.366C7.75555 32.7272 8.00208 33.0989 8.23907 33.4764C8.70061 34.2074 9.12967 34.9575 9.57783 35.6971C10.5535 37.3082 11.5788 38.8897 12.5994 40.4721C14.6577 43.6627 16.7475 46.8333 18.7847 50.0374C19.3295 50.8935 19.8798 51.7459 20.4589 52.5792C20.8316 53.1144 21.2205 53.6352 21.6314 54.1415C21.7633 54.3041 21.8913 54.4723 22.028 54.6309C21.6448 54.1903 21.8589 54.3995 21.9296 54.52C22.008 54.6528 22.0949 54.7799 22.1714 54.9156C23.5607 54.1034 24.9502 53.2911 26.3396 52.4798C25.4088 50.9939 24.6597 49.4057 23.8274 47.8644C22.9234 46.1922 22.0051 44.5276 21.0791 42.8677C19.2607 39.6063 17.382 36.3784 15.5894 33.1027C14.5927 31.2814 13.6304 29.4409 12.736 27.5671C11.4727 28.5418 10.2095 29.5164 8.94524 30.492C9.07233 30.6488 9.19942 30.8055 9.3246 30.9641C9.36569 31.0157 9.42876 31.1352 9.48514 31.1686C9.47749 31.1638 9.20993 30.8074 9.37238 31.0234C9.63325 31.3712 9.89508 31.7181 10.1483 32.0707C10.607 32.709 11.0504 33.3578 11.4823 34.0143C12.3805 35.3799 13.2281 36.7788 14.0604 38.1854C15.7183 40.9861 17.3982 43.7698 19.0944 46.5477C20.0796 48.1606 21.0362 49.7918 21.899 51.4745C22.4466 52.5429 23.8666 52.9031 24.9129 52.4617C25.9869 52.0087 26.6616 50.7741 26.3099 49.615C25.749 47.7631 24.7045 46.1071 23.8159 44.4023C22.9435 42.7302 22.1112 41.0378 21.2816 39.3435C19.6486 36.0057 18.0137 32.666 16.3357 29.3501C15.4001 27.502 14.3462 25.7161 13.5339 23.8079C12.2707 24.7825 11.0074 25.7572 9.74314 26.7329C11.3055 28.0678 12.6204 29.6493 13.9104 31.2412C15.2645 32.9135 16.5985 34.601 17.921 36.2982C18.2468 36.7167 18.5717 37.1353 18.8966 37.5548C18.9902 37.6751 19.4394 38.2551 19.0915 37.8061C19.2827 38.0526 19.4728 38.3001 19.663 38.5466C20.3099 39.3866 20.9548 40.2275 21.599 41.0693C22.8976 42.7655 24.1723 44.4768 25.4375 46.1979C26.9244 48.2209 28.4227 50.2371 29.9965 52.1941C30.3444 52.627 31.1652 52.9251 31.7032 52.9012C32.2479 52.8764 32.7314 52.7178 33.1652 52.3834C34.0395 51.7078 34.4935 50.2485 33.7863 49.2701C32.5231 47.5204 31.4777 45.6322 30.4467 43.7411C29.3773 41.7803 28.2785 39.8357 27.1719 37.8959C24.9072 33.9273 22.6415 29.9579 20.3567 26.0008C19.7241 24.9039 19.0801 23.8136 18.4064 22.7415C18.1131 22.2741 17.7986 21.8203 17.5005 21.3548C17.3381 21.1016 17.1814 20.8455 17.04 20.5808C16.9883 20.4853 16.9453 20.385 16.8918 20.2904C16.8144 20.126 16.8412 20.1948 16.9711 20.4959C16.931 20.3955 16.8937 20.2942 16.8603 20.191C15.5158 20.9736 14.1713 21.7562 12.8268 22.5388C13.0877 22.8016 13.3294 23.0777 13.5664 23.3606C13.6773 23.4924 13.724 23.6836 13.4852 23.2516C13.5225 23.3196 13.5836 23.3836 13.6294 23.4466C13.7575 23.6215 13.8807 23.7992 14.0021 23.9789C14.4427 24.6325 14.845 25.311 15.2425 25.9904C16.1121 27.4763 17.0046 28.9488 17.8961 30.4204C19.7643 33.504 21.7605 36.4997 23.7126 39.5289C24.7629 41.1582 25.6697 43.0091 27.0725 44.3718C27.9392 45.2127 29.2894 45.2959 30.2412 44.5601C31.2579 43.7746 31.3602 42.5658 30.8622 41.4468C30.0711 39.6656 29.1422 37.9475 28.2927 36.193C27.4213 34.3928 26.5842 32.5761 25.7528 30.7577C24.9301 28.9555 24.1016 27.1562 23.2826 25.352C22.8784 24.4615 22.4905 23.5651 22.0911 22.6726C21.92 22.2904 21.5875 21.8318 21.513 21.4217C21.641 21.7333 21.6544 21.7657 21.555 21.5192C21.513 21.4123 21.4728 21.3052 21.4356 21.1972C21.362 20.9832 21.3027 20.7662 21.2511 20.5455C19.9066 21.3282 18.5621 22.1107 17.2176 22.8934C17.3495 23.0501 17.4804 23.2077 17.6095 23.3663C17.6649 23.4342 17.7193 23.503 17.7738 23.5718C18.0012 23.8556 17.6955 23.5604 17.7193 23.4991C17.703 23.5431 17.9974 23.8709 18.0347 23.9205C18.1732 24.1088 18.3098 24.299 18.4446 24.4911C18.9176 25.1618 19.3676 25.847 19.8082 26.5389C20.7102 27.9541 21.5923 29.3827 22.4656 30.8151C24.2689 33.7716 25.9688 36.7826 27.6621 39.8023C28.1437 40.6603 28.652 41.4974 29.1776 42.3297C29.6851 43.1334 30.0195 43.9494 30.6836 44.6603C31.384 45.4105 32.7362 45.5997 33.6087 45.0378C34.4447 44.4989 35.1118 43.3244 34.718 42.3126C33.9889 40.4425 33.1738 38.6078 32.3778 36.7654C32.2048 36.366 32.0347 35.9666 31.8646 35.5662C31.8207 35.463 31.6784 35.1429 31.8886 35.6226C31.8513 35.5366 31.8159 35.4486 31.7786 35.3626C31.6688 35.1027 31.5598 34.8418 31.4509 34.5819C31.0993 33.7429 30.7495 32.9029 30.3998 32.064C28.9139 28.4997 27.3801 24.9574 25.8446 21.4131C25.6353 20.9306 25.427 20.448 25.2206 19.9655C25.1231 19.7381 25.0266 19.5106 24.9292 19.2832C24.7905 18.9621 25.0916 19.6701 24.9587 19.3529C24.8431 19.0768 24.7265 18.8016 24.61 18.5264C24.4217 18.0821 24.2306 17.6387 24.0366 17.1972C23.9306 16.9554 23.8331 16.7022 23.6994 16.4767C23.6745 16.4336 23.6199 16.3286 23.5827 16.298C23.8436 16.5129 23.772 17.1102 23.727 17.3759C22.3825 17.7304 21.0381 18.0858 19.6936 18.4403C19.9735 18.7242 20.243 19.0165 20.4981 19.3234C20.5707 19.4103 20.6424 19.4981 20.7121 19.5861C20.8746 19.7925 20.8527 19.7629 20.6453 19.4991C20.6835 19.6157 20.8727 19.8088 20.9454 19.909C21.4059 20.5541 21.8312 21.224 22.2545 21.8938C23.1728 23.3453 24.1093 24.7854 25.0447 26.2264C25.9869 27.6779 26.9368 29.1247 27.8847 30.5732C28.3463 31.2776 28.8126 31.979 29.3037 32.6641C29.836 33.4065 30.3511 34.216 31.0524 34.8084C31.8494 35.4812 33.0304 35.7965 33.9775 35.1858C34.8881 34.5991 35.3659 33.5308 35.0869 32.4606C34.7132 31.0262 33.9564 29.6798 33.3372 28.3382C32.7046 26.967 32.0328 25.6139 31.3391 24.2732C29.9211 21.5355 28.5766 18.7662 27.2244 15.9961C26.1236 17.0968 25.0228 18.1976 23.9229 19.2975C24.2009 19.4781 23.4613 18.8771 23.7213 19.136C23.8073 19.222 23.8981 19.3033 23.9821 19.3921C24.0605 19.4753 24.136 19.5613 24.2095 19.6482C24.2612 19.7094 24.3089 19.7734 24.3616 19.8335C24.5469 20.0486 24.05 19.3969 24.2086 19.6396C24.501 20.0858 24.8164 20.5149 25.0993 20.9679C25.8073 22.1011 26.5106 23.2364 27.1872 24.3888C28.847 27.2154 30.5335 30.0324 32.1246 32.8982C33.0371 34.5418 33.9182 36.2026 34.7811 37.8729C35.4758 36.6622 36.1705 35.4515 36.8652 34.2417C36.8634 34.2417 36.8613 34.2417 36.8594 34.2417C37.2656 34.3516 37.6717 34.4615 38.0778 34.5715C38.3292 34.7014 38.7659 35.0703 38.8575 35.3425C38.8404 35.291 38.7811 35.2337 38.7515 35.1878C38.6512 35.0282 38.5508 34.8686 38.4543 34.7071C38.1859 34.2589 37.9278 33.8051 37.6708 33.3511C37.3095 32.7119 36.8891 32.0717 36.5929 31.399C36.7027 31.8051 36.8126 32.2112 36.9226 32.6173V32.6163C35.4233 33.0224 33.924 33.4285 32.4256 33.8346C32.4896 33.9206 32.5364 34.0267 32.5881 34.1194C33.2053 35.2212 34.8078 35.6827 35.8896 34.9851C37.0057 34.2656 37.4147 32.8629 36.7553 31.6837C35.0248 28.5895 33.3802 25.4485 31.6793 22.3372C29.9554 19.1838 28.1398 16.0811 26.3768 12.9506C25.8655 12.0437 25.3582 11.135 24.8441 10.2301C24.6185 9.83255 24.3892 9.4379 24.1608 9.04229C24.1189 8.96871 24.0787 8.89226 24.0338 8.82155C23.9153 8.61801 23.771 8.43837 23.6019 8.2807C23.5111 8.18801 23.5254 8.21477 23.6458 8.36096C23.8494 8.65337 23.704 8.43741 23.6716 8.37339C23.944 8.91042 23.7873 8.65241 23.749 8.42117C22.5669 9.32992 21.3858 10.2377 20.2039 11.1465C20.2487 11.1703 20.3079 11.1914 20.3462 11.2258C20.4991 11.3634 20.0844 11.0165 20.0844 11.0165C20.1455 11.0146 20.2946 11.2296 20.3376 11.2726C20.5966 11.5335 20.0204 10.8178 20.307 11.2459C20.393 11.3739 20.4742 11.5057 20.5535 11.6376C20.8584 12.1479 21.1508 12.6573 21.4814 13.1522C22.3758 14.491 23.2931 15.8145 24.202 17.1427C25.9975 19.7686 27.6678 22.4729 29.4108 25.1332C30.3454 26.5599 31.3497 27.9445 32.072 29.4973C32.5002 30.4185 33.8561 30.9106 34.7973 30.6067C35.8608 30.2627 36.4945 29.3836 36.569 28.2799C36.6378 27.2679 36.0979 26.2456 35.7729 25.3119C35.4022 24.2473 35.0162 23.1876 34.6531 22.1203C34.2976 21.0767 33.9851 20.0209 33.6373 18.9755C33.4413 18.385 33.235 17.7982 32.9932 17.2249C32.934 17.0845 32.8757 16.9439 32.8126 16.8054C32.6454 16.4384 32.8423 16.9631 32.8957 17.0175C32.849 16.9698 32.8432 16.8522 32.8155 16.792C32.7716 16.6095 32.7706 16.6439 32.8126 16.8943C32.8929 17.2937 32.8126 17.6826 32.5709 18.0582C31.47 18.3467 30.3692 18.6353 29.2694 18.9238C29.4357 19.0185 29.5924 19.1246 29.7548 19.2268C29.9592 19.3759 29.9144 19.3376 29.6181 19.1121C29.6956 19.1742 29.772 19.2374 29.8475 19.3023C30.1552 19.568 30.4438 19.8556 30.7189 20.1547C30.998 20.4576 31.2627 20.7739 31.5198 21.0959C31.5828 21.1752 31.6459 21.2554 31.7089 21.3357C31.4863 21.0472 31.4528 21.0032 31.6067 21.2058C31.7099 21.3434 31.8131 21.4791 31.9153 21.6167C32.5136 22.4174 33.1118 23.2173 33.7405 23.9941C33.7748 24.0372 34.1896 24.5293 34.1858 24.5331C33.9488 24.2187 33.9068 24.1642 34.0596 24.3697C34.116 24.4471 34.1734 24.5235 34.2316 24.599C34.6703 25.1771 35.0687 25.6473 35.7042 26.0286C37.2455 26.9536 39.3879 25.7734 39.3354 23.9445C39.2914 22.4126 38.5231 21.03 38.0129 19.6148C37.793 19.006 37.5857 18.3964 37.3526 17.7925C37.2369 17.4925 37.1222 17.1924 37.0268 16.8857C36.9799 16.7366 36.9369 16.5865 36.9015 16.4346C36.7601 15.8317 36.9235 16.8924 36.8872 16.4241C35.5141 16.9927 34.1409 17.5622 32.7677 18.1308C33.1099 18.4164 33.3812 18.7156 33.7682 18.9688C34.5747 19.4962 35.7214 19.3414 36.4485 18.7805C37.1996 18.2005 37.5848 17.1799 37.3134 16.2435C36.9923 15.135 36.6732 14.0246 36.3855 12.9067C36.2508 12.383 36.116 11.8574 36.0148 11.3262C35.9603 11.0385 35.9135 10.7489 35.8514 10.4623C35.8313 10.3715 35.8112 10.2826 35.7863 10.1938C35.6344 9.65195 35.8294 10.08 35.6936 10.941C34.5117 11.4216 33.3306 11.9024 32.1485 12.383C32.459 12.5186 31.642 11.9129 32.0807 12.3171C32.3042 12.5225 32.5699 12.7709 32.8193 12.9124C33.4997 13.2975 34.2584 13.457 35.0295 13.2525C36.7993 12.7834 37.041 10.9582 37.0821 9.41879C37.1003 8.74511 37.0984 8.05614 37.0353 7.38532C37.0124 7.14547 36.9875 6.90563 36.9818 6.66482C36.9751 6.38866 37.108 6.03128 36.9207 6.81294C36.9293 6.75847 36.9427 6.70496 36.9598 6.6524C36.7964 7.17223 36.4935 7.57358 36.052 7.85547C35.0773 7.72933 34.1027 7.60415 33.127 7.47801C33.3143 7.65384 33.4949 7.8354 33.666 8.02651C33.751 8.12207 33.8341 8.21954 33.9154 8.31892C34.0261 8.45366 34.1638 8.75275 33.8714 8.2549C34.1169 8.67153 34.4429 9.05949 34.7113 9.4637C35.3526 10.4288 36.0062 11.3921 36.783 12.2549C37.6516 13.2191 39.3163 13.1465 40.1963 12.2549C40.8356 11.607 41.1777 10.7824 41.173 9.86886C41.1462 9.63093 41.1136 9.39394 41.0755 9.15792C41.0563 9.0356 41.0602 9.06523 41.087 9.24487C41.1701 9.62806 41.1108 9.11396 41.1098 9.04229C41.1079 8.77282 41.1023 8.50239 41.0937 8.23292C41.0544 7.10152 40.8738 5.98827 40.7974 4.86069C39.9928 5.66529 39.1883 6.46988 38.3836 7.27448C38.0177 7.30219 37.4978 7.08337 37.2475 6.89225C36.8442 6.5836 37.1835 6.8741 37.2828 6.97729C37.6392 7.34806 36.9665 6.52626 37.236 6.9085C37.3277 7.03845 37.4195 7.16841 37.5074 7.30123C37.7988 7.73985 38.0606 8.19661 38.3378 8.64286C39.15 9.95008 39.7768 11.7457 41.4758 12.1231C42.9274 12.4451 44.6139 11.4369 44.5308 9.79624C44.4888 8.97731 44.3894 8.15839 44.3311 7.34042C44.313 7.0891 44.2776 6.83969 44.2643 6.58838C44.2576 6.45938 44.2785 6.31508 44.2604 6.18895C44.3091 6.52722 44.118 7.02602 43.7645 7.33563C42.6263 7.33563 41.4892 7.33563 40.3512 7.33563C40.4027 7.39775 40.4534 7.46081 40.5041 7.52389C40.6148 7.6634 40.5719 7.60798 40.376 7.35666C40.4734 7.42928 40.548 7.58886 40.6177 7.68633C40.7935 7.93287 40.9636 8.18322 41.128 8.43741C41.4605 8.95247 41.7701 9.48281 42.0654 10.0208C42.6522 11.0882 43.1797 12.1871 43.709 13.2831C44.1916 14.2807 45.4424 14.598 46.4343 14.3926C48.3532 13.9951 48.4955 11.7342 48.5442 10.1813C48.5576 9.74655 48.5567 9.31272 48.5614 8.87793C48.5643 8.59508 48.5691 8.31128 48.5748 8.02747C48.5777 7.86789 48.5203 7.45126 48.6082 7.31747C48.5547 7.66817 48.5528 7.70926 48.6034 7.44171C48.7783 6.83682 48.4764 7.18943 47.6985 8.49953C47.2924 8.60941 46.8863 8.71931 46.4802 8.8292C46.1668 8.81773 45.8715 8.74224 45.5925 8.60081C45.2437 8.30363 45.1558 8.24438 45.3278 8.42213C44.8424 7.91472 45.1309 8.17558 45.2466 8.39059C45.3908 8.66006 45.5046 8.94386 45.6288 9.2229C45.7703 9.54205 45.9584 9.85357 46.0664 10.1852C45.8753 9.59748 46.0339 10.1144 46.0894 10.253C46.1745 10.469 46.2576 10.6859 46.3369 10.9047C46.9265 12.5244 47.5246 14.1652 48.0149 15.8183C48.29 16.7452 49.065 17.4188 50.0215 17.5469C51.0507 17.6854 51.8286 17.1952 52.4258 16.3945C52.8567 15.8164 52.8329 14.942 52.8262 14.2501C52.8224 13.9052 52.8157 13.5574 52.7908 13.2134C52.7019 11.9568 51.7445 10.7384 50.377 10.7996C49.1014 10.8569 47.9241 11.8612 47.9632 13.2134C47.9632 13.2153 47.9632 13.2172 47.9632 13.2182C49.5725 13.2182 51.1807 13.2182 52.7898 13.2182C52.7584 12.7318 52.6791 12.2491 52.6073 11.7666C52.5347 11.2802 52.5969 12.2721 52.615 11.7485C52.6207 11.5669 52.6743 11.0767 52.5634 11.7589C51.0928 11.951 49.6231 12.1431 48.1525 12.3353C48.3532 12.7719 47.968 11.8173 48.1678 12.3983C48.227 12.5703 48.2795 12.7452 48.3254 12.9209C48.4067 13.2296 48.4601 13.5421 48.5203 13.8545C48.5605 14.1202 48.5547 14.0667 48.5032 13.6921C48.5166 13.7991 48.5289 13.9062 48.5404 14.0141C48.5576 14.1756 48.5729 14.3371 48.5863 14.4987C48.6149 14.8455 48.636 15.1933 48.6551 15.5412C48.6942 16.2549 48.7335 16.9678 48.7908 17.6807C48.8223 18.0802 48.8549 18.4796 48.8863 18.879C48.8978 19.0232 48.9122 19.1667 48.9256 19.31C48.9848 19.9349 48.7229 19.8289 49.194 18.8284C50.5835 18.8284 51.9728 18.8284 53.3622 18.8284C53.1205 18.2894 53.5553 19.3272 53.3365 18.7767C53.2733 18.6171 53.2093 18.4585 53.1482 18.299C53.0354 18.0055 52.9256 17.7113 52.8128 17.4179C52.5242 16.6669 52.2213 15.9166 51.8581 15.199C51.4263 14.3457 50.3494 13.9262 49.4539 14.0466C48.5882 14.1633 47.6058 14.8464 47.4472 15.7752C47.0669 18.0103 46.9026 20.2674 46.698 22.5235C46.6063 23.5431 46.4859 24.558 46.3559 25.5728C46.3206 25.8489 46.2804 26.1241 46.2499 26.4013C46.2356 26.5274 46.1304 27.008 46.1992 27.1084C46.1496 27.0367 46.2948 26.6134 46.2145 26.9804C46.1839 27.1208 46.1572 27.2612 46.1209 27.4008C46.0559 27.6531 45.9718 27.8987 45.8782 28.1414C46.248 27.6608 46.6178 27.18 46.9876 26.6994C46.7812 26.8408 46.7373 26.7358 47.3899 26.5475C47.1108 26.6277 48.1257 26.4863 47.8753 26.4863C47.6278 26.4854 48.6675 26.6402 48.334 26.5436C48.0989 26.4758 49.0049 26.8599 48.7478 26.7147C48.3885 26.5121 49.2667 27.225 48.9303 26.8542C48.8434 26.7586 48.7583 26.6555 48.6695 26.5618C49.2571 27.1781 48.8873 26.8446 48.7401 26.6163C48.6503 26.4777 48.5662 26.3353 48.484 26.191C48.3082 25.8795 48.1467 25.5604 47.9938 25.2374C47.9222 25.0863 47.8525 24.9344 47.7845 24.7816C47.6966 24.5847 47.4043 23.8642 47.754 24.7233C47.6288 24.4146 47.5017 24.1069 47.3803 23.7964C47.151 23.2116 46.9284 22.6267 46.679 22.0496C46.4658 21.5546 45.7444 21.0558 45.237 20.9401C44.6273 20.8016 43.9135 20.8207 43.3774 21.1838C42.4162 21.8336 41.8313 22.7453 41.7931 23.9253C41.7845 24.192 41.7559 24.5675 41.8925 24.7643C41.9183 24.9411 41.9001 24.857 41.839 24.5121C41.8361 24.5704 41.8333 24.6287 41.8304 24.6869C41.796 25.0023 41.8074 25.331 41.8055 25.6473C41.8036 26.17 41.838 26.6841 41.8733 27.2049C41.8896 27.44 41.8839 27.6712 41.8877 27.9054C41.8954 28.4032 41.9756 27.3177 41.8925 27.7907C41.8208 28.2016 42.1581 27.3062 41.9183 27.6769C43.0192 27.3884 44.1199 27.0998 45.2198 26.8112C45.1558 26.7758 45.0947 26.7377 45.0344 26.6956C44.8825 26.5904 44.9532 26.645 45.2475 26.858C45.2073 26.795 45.0277 26.6105 44.9685 26.5657C45.0401 26.6574 45.1118 26.749 45.1834 26.8408C45.1319 26.7672 45.0822 26.6917 45.0353 26.6143C44.9752 26.5169 44.9198 26.4155 44.8652 26.3153C44.7545 26.1098 44.6618 25.8948 44.5528 25.6884C45 26.5293 44.6771 25.9598 44.5786 25.6989C44.1189 24.4796 43.4558 22.8093 41.9622 22.5742C41.3287 22.4748 40.6722 22.45 40.1026 22.8179C39.6134 23.1332 39.0802 23.6559 38.9933 24.2598C38.7964 25.6359 38.6856 27.0071 38.6215 28.3946C38.5948 28.9785 38.57 29.5614 38.5336 30.1443C38.5146 30.45 38.4926 30.7558 38.4648 31.0616C38.4514 31.2145 38.4372 31.3664 38.42 31.5183C38.4046 31.6636 38.3282 32.237 38.4152 31.6053C39.7597 31.2508 41.1042 30.8954 42.4486 30.5408C42.3779 30.4653 42.3101 30.3889 42.2442 30.3096C42.4601 30.5981 42.4916 30.6383 42.3388 30.4319C42.2509 30.3038 42.1639 30.1777 42.0808 30.0458C41.8877 29.7372 41.7166 29.4161 41.5552 29.0902C41.3937 28.7634 41.2446 28.4309 41.0965 28.0983C41.0334 27.9569 40.9713 27.8155 40.9083 27.6741C40.6694 27.1476 41.15 28.3382 41.0057 27.8949C40.5336 26.4471 40.0091 24.8093 38.3826 24.3239C36.7993 23.8518 35.4214 25.1313 35.3277 26.6507C35.1222 29.9751 35.7089 33.291 35.4806 36.6144C36.0711 35.8385 36.6617 35.0626 37.2522 34.2876C36.9961 34.3688 37.0936 34.365 37.5446 34.2761C38.1982 34.2838 38.6799 34.516 38.9895 34.9718C39.1232 35.1629 39.1395 35.1715 39.0382 34.9976C38.9235 34.7903 38.7782 34.6106 38.6054 34.4577C38.4811 34.3325 38.3512 34.216 38.2326 34.085C38.0893 33.9273 37.966 33.5833 38.2307 34.1089C38.097 33.8423 37.8934 33.6053 37.7558 33.3368C37.6068 33.0463 37.4701 32.7491 37.3306 32.4548C37.2321 32.2474 37.5475 32.9862 37.3382 32.474C37.2714 32.3096 37.2054 32.1453 37.1385 31.9809C36.9646 31.5537 36.7897 31.1256 36.6006 30.7052C36.2651 29.9579 35.8342 29.3254 35.3105 28.6918C34.7037 27.9569 33.4844 27.8508 32.6741 28.193C31.8207 28.5532 31.1576 29.4381 31.1901 30.3985C31.2464 32.0497 31.5752 33.6779 31.9115 35.291C32.0615 36.0095 32.2001 36.7291 32.3195 37.4534C32.418 38.0497 32.2689 36.9049 32.3262 37.506C32.3425 37.6799 32.3626 37.8529 32.3759 38.0277C32.4075 38.4348 32.417 38.8409 32.4084 39.2489C33.4271 38.4731 34.4448 37.6971 35.4634 36.9221C35.343 36.9039 34.9206 36.7549 35.3678 36.9355C35.58 36.9985 35.7606 37.1161 35.9096 37.2881C35.7434 37.1228 35.8083 37.2146 36.1037 37.5653C35.924 37.2508 36.2431 38.1586 36.1791 37.7649C36.1075 37.3234 36.0941 37.7688 36.1849 37.9207C36.1782 37.8261 36.1763 37.7314 36.1772 37.6369C36.1868 37.3512 36.137 37.0807 36.0271 36.8246C35.9727 36.6518 35.901 36.4826 35.8389 36.3116C35.7147 35.9695 35.5934 35.6264 35.4748 35.2814C34.9512 33.762 34.4782 32.2246 34.0568 30.6736C33.6325 29.1132 33.2742 27.5336 32.9206 25.956C32.7429 25.1599 32.5689 24.364 32.4008 23.5661C32.3816 23.4744 32.3615 23.3817 32.3425 23.2899C32.0701 22.6306 32.0214 22.5197 32.1954 22.9593C32.1065 22.8141 32.0921 22.6162 32.0338 22.4605C31.8571 21.9846 32.0119 22.8972 32.0167 22.4299C32.0186 22.2712 32.0854 21.5221 31.9803 22.2206C30.5097 22.4126 29.04 22.6047 27.5694 22.7968C27.877 23.2823 28.1504 23.7858 28.3912 24.3067C28.4333 24.3975 28.4676 24.5417 28.5306 24.6172C28.4103 24.3268 28.3845 24.2655 28.4523 24.4318C28.4743 24.4844 28.4953 24.5369 28.5164 24.5895C28.6214 24.8522 28.7208 25.117 28.8174 25.3836C29.1968 26.4289 29.5303 27.4897 29.9297 28.5274C30.1619 29.1304 30.4619 29.6321 31.039 29.9694C31.556 30.2723 32.3186 30.4004 32.8986 30.2131C34.2307 29.7821 34.8308 28.5771 34.5843 27.244C34.2651 25.5192 33.988 23.7878 33.7462 22.0515C33.729 21.9272 33.7118 21.804 33.6947 21.6797C33.707 21.7696 33.7185 21.8594 33.7309 21.9492C33.6966 21.7017 33.665 21.4533 33.6334 21.2048C33.578 20.77 33.5236 20.3362 33.4719 19.9005C33.3716 19.0615 33.2779 18.2216 33.1901 17.3816C33.0095 15.6645 32.8499 13.9453 32.7008 12.2253C32.6243 11.3452 32.5555 10.4642 32.4944 9.58314C32.481 9.39394 32.4705 9.20474 32.4562 9.01649C32.4419 8.73746 32.4094 8.4613 32.3578 8.18609C32.3224 8.0934 32.2928 7.99881 32.2689 7.90133C32.2841 8.02747 32.2985 8.15456 32.3138 8.2807C32.3138 8.01982 32.2937 8.11633 32.2536 8.57024C32.0587 8.9668 32.0224 9.05853 32.1427 8.84544C32.0195 9.07573 31.8456 9.25634 31.62 9.3863C30.8078 9.3863 29.9956 9.3863 29.1843 9.3863C29.0897 9.31368 28.7896 9.15409 29.0409 9.31081C29.0725 9.34616 29.1041 9.38247 29.1355 9.41783C28.9196 9.13021 28.8633 9.0614 28.9683 9.21143C29.0849 9.4035 29.2177 9.58888 29.3458 9.77331C29.9105 10.5865 30.7342 11.0624 31.75 10.9257C32.6339 10.8072 33.5742 10.1269 33.7568 9.1971C34.0253 7.82489 33.792 6.59125 33.3229 5.29739C33.0582 4.56924 32.6492 4.0389 31.9259 3.73312C31.2817 3.46173 30.3768 3.40727 29.7778 3.85447C28.8001 4.58644 28.3634 5.38817 28.2297 6.58933C28.1772 7.05661 28.2211 7.51433 28.2718 7.98065C28.3252 8.47563 28.3549 8.97349 28.4055 9.46943C28.4342 9.7542 28.4619 10.039 28.4686 10.3247C28.4724 10.4757 28.4609 10.6247 28.459 10.7757C28.4438 10.9697 28.4571 10.8732 28.4992 10.4871C28.4819 10.576 28.459 10.662 28.4294 10.748C29.9812 10.748 31.5321 10.748 33.084 10.748C32.8603 9.84306 32.6703 8.93145 32.5212 8.01218C32.4954 7.85451 32.5107 7.5172 32.4256 7.38819C32.4801 7.73985 32.4992 7.78189 32.4801 7.51624C32.4743 7.40539 32.4657 7.2955 32.4542 7.18561C32.396 6.58551 32.3042 5.99401 32.1217 5.4197C31.7558 4.26825 30.6846 3.52862 29.4738 3.69108C28.223 3.85926 27.4901 4.84828 27.3811 6.0609C27.2177 7.88796 27.298 9.72362 27.2187 11.5545C27.1661 12.7537 28.1772 13.7724 29.3114 13.9243C30.4676 14.0801 31.6621 13.3672 31.9593 12.1957C32.396 10.4785 33.0706 8.85213 33.6105 7.16936C33.7873 6.61895 33.9422 6.06185 34.1208 5.51144C34.2909 4.98683 33.8857 5.97586 34.0826 5.58407C34.1523 5.44551 34.2173 5.30695 34.2985 5.17508C34.609 4.66863 33.9794 5.49615 34.246 5.23433C34.5231 4.96294 33.665 5.58503 34.1542 5.30982C33.1796 5.18369 32.2048 5.0585 31.2292 4.93237C31.3219 5.02697 31.5112 5.33371 31.6267 5.37576C31.4022 5.08048 31.3639 5.03556 31.514 5.24102C31.5704 5.32128 31.6248 5.4025 31.6793 5.48374C31.8675 5.76849 32.0433 6.06281 32.2249 6.3514C32.695 7.09866 33.2168 7.84878 33.8895 8.42785C35.1471 9.51052 36.7295 9.26303 37.6803 7.93956C38.1629 7.26684 38.4428 6.46033 38.6435 5.66242C38.7276 5.32797 38.8021 4.9897 38.9111 4.66289C38.9713 4.48325 39.0994 4.28162 39.127 4.09528C38.2049 4.45745 37.2837 4.81866 36.3617 5.18081C36.7381 5.39869 37.1442 5.50858 37.58 5.51048C37.1624 5.43882 37.0496 5.43118 37.2408 5.4866C37.4137 5.54298 37.3268 5.5038 36.977 5.36906C37.0314 5.45125 37.258 5.52195 37.3526 5.5812C37.4949 5.67102 37.6296 5.77136 37.7673 5.86882C37.9173 5.98063 37.8428 5.9233 37.5446 5.69491C37.6068 5.74364 37.6679 5.79239 37.73 5.84208C38.0635 6.11633 38.3692 6.41446 38.7305 6.65718C39.2923 7.03558 39.8915 7.15312 40.5566 7.23625C41.3793 7.33946 42.2403 6.70114 42.6407 6.04083C42.9207 5.57929 43.1118 5.07092 43.3077 4.56924C43.3354 4.49854 43.3621 4.42783 43.3899 4.35711C43.4864 4.11631 43.4644 4.16981 43.323 4.51478C43.3431 4.51478 43.6011 4.03221 43.6345 3.98444C42.5336 4.27302 41.4329 4.5616 40.333 4.85019C40.4104 4.89796 40.4859 4.94861 40.5585 5.00213C40.2518 4.75845 40.1925 4.71928 40.3817 4.88363C40.5041 5.01646 40.6321 5.1445 40.7554 5.27732C40.914 5.47131 40.8729 5.41685 40.633 5.11201C40.6876 5.18655 40.742 5.26108 40.7935 5.33753C40.8863 5.47131 40.9751 5.60796 41.063 5.74556C41.5389 6.489 42.0043 7.21045 42.5604 7.90037C43.0564 8.51577 44.1783 8.78142 44.9083 8.5215C46.1075 8.0934 47.1137 7.27353 47.451 5.99306C47.5294 5.69587 47.5753 5.35377 47.5973 5.05946C47.6068 4.9725 47.6116 4.88459 47.6116 4.79667C47.6269 4.52911 47.6125 4.6027 47.5667 5.01742C47.5839 4.93045 47.6058 4.84541 47.6345 4.76227C47.4625 5.1359 47.4357 5.2133 47.5543 4.99447C47.2934 5.30695 47.2466 5.37002 47.4129 5.18464C47.5944 5.01837 47.5351 5.06042 47.2332 5.30887C46.2585 5.18273 45.2838 5.05755 44.3082 4.93141C43.9068 4.43833 44.2614 4.87216 44.3311 4.97346C44.4076 5.08526 44.4792 5.20089 44.549 5.31651C44.7009 5.56973 44.8376 5.83061 44.9637 6.09721C44.9857 6.14594 45.0086 6.19372 45.0306 6.24246C45.1357 6.48231 45.1185 6.43739 44.978 6.10772C45.0545 6.19086 45.087 6.3791 45.1271 6.48135C45.2351 6.75847 45.3383 7.03845 45.4414 7.31747C45.6364 7.8421 45.8448 8.35905 46.0521 8.87889C46.3053 9.51435 46.5337 10.1928 46.9131 10.7671C47.2064 11.2134 47.5906 11.7514 48.0779 12.0093C48.5147 12.2397 49.1242 12.4671 49.6231 12.3514C49.4415 12.3935 47.8753 11.8497 47.8562 11.1703C47.8629 11.4122 48.1019 11.7437 48.2337 11.9463C48.3952 12.1938 48.5404 12.4508 48.6752 12.7136C48.7754 12.9095 49.0039 13.2316 49.021 13.4513C48.8854 13.1255 48.8672 13.0843 48.9676 13.3281C48.9876 13.3787 49.0087 13.4293 49.0287 13.48C49.0899 13.6319 49.1491 13.7848 49.2083 13.9377C49.4798 14.6343 49.7569 15.3262 50.054 16.0122C50.3847 16.7748 51.3641 17.1943 52.1382 17.2077C53.4913 17.2316 54.7019 16.3754 55.0297 15.0443C55.0948 14.7795 55.1262 14.4728 55.1214 14.1909C55.0938 13.9358 55.0603 13.6806 55.0211 13.4264C54.98 13.1828 54.9839 13.2478 55.0316 13.6214C55.0364 13.6204 55.0115 13.1293 55.0364 13.1331C54.9791 13.5086 54.9791 13.5651 55.0345 13.3023C55.1157 13.0548 55.09 13.0948 54.9552 13.4226C53.6919 13.585 52.4287 13.7484 51.1645 13.911C50.7105 13.3509 51.1195 13.8765 51.2036 14.0246C51.2514 14.1097 51.2972 14.1957 51.3393 14.2826C51.4472 14.5158 51.4244 14.4585 51.2724 14.1087C51.2647 14.2549 51.4234 14.5234 51.4683 14.6677C51.5208 14.8341 51.5677 15.0023 51.6135 15.1713C51.8152 15.9147 51.9767 16.6677 52.2471 17.3912C52.6724 18.5273 53.6374 19.2889 54.895 19.1198C56.1554 18.9506 56.8654 17.9626 56.9877 16.7499C57.0575 16.062 56.832 15.4236 56.5232 14.8226C55.7464 13.309 53.0938 13.1828 52.355 14.8226C52.0244 15.5584 51.7129 16.3028 51.4999 17.0816C51.3221 17.7294 51.2064 18.3897 51.0191 19.0357C50.849 19.6205 50.6885 20.3515 50.377 20.879C50.681 20.3649 50.3952 20.8321 50.3398 20.9554C50.3034 21.0367 50.2661 21.1179 50.228 21.1981C50.1439 21.3577 50.1916 21.3148 50.3703 21.0701C50.3454 21.1761 50.0837 21.3558 50.0111 21.4284C49.8916 21.5479 49.7713 21.6673 49.6518 21.7868C50.0063 21.5795 50.3617 21.373 50.7162 21.1656C50.6044 21.2106 50.4889 21.246 50.3713 21.2698C50.571 21.201 50.7697 21.202 50.9695 21.2717C50.893 21.159 49.7788 21.0825 49.9881 21.0825C49.2714 21.0825 48.5595 21.4065 48.0425 21.8891C47.5017 22.3946 47.1788 23.0415 46.9656 23.7429C46.6952 24.6344 46.6904 25.5765 46.5968 26.495C46.5404 27.0492 46.9016 27.8327 47.3039 28.2016C47.7023 28.5676 48.1505 28.7931 48.6894 28.8657C49.8343 29.0195 51.0545 28.3115 51.3374 27.1371C51.3374 27.1361 51.3384 27.1352 51.3384 27.1342C49.7865 27.1342 48.2356 27.1342 46.6838 27.1342C46.4477 26.1462 46.6082 26.5149 46.5978 26.9297C46.5911 27.224 46.5758 27.5193 46.548 27.8127C46.5413 27.8872 46.5051 27.998 46.5212 28.0678C46.5146 28.041 46.6369 27.3434 46.5672 27.719C46.5404 27.8614 46.5185 28.0037 46.4802 28.1433C46.463 28.2073 46.4315 28.278 46.4191 28.343C46.5308 27.7286 46.6961 27.7658 46.5643 27.9828C46.5547 27.997 46.5461 28.0114 46.5365 28.0257C46.7191 27.7133 46.9656 27.4648 47.279 27.2823C47.709 27.0654 48.5882 26.9153 48.9093 27.0415C48.3846 26.835 47.5113 26.9871 47.0497 27.2852C46.5079 27.634 46.14 28.1079 45.9403 28.7272C45.796 29.1762 45.6689 29.6302 45.5246 30.0802C45.4587 30.2866 45.3784 30.4882 45.3115 30.6946C45.2131 30.9966 45.5142 30.2905 45.3621 30.5772C45.2953 30.7033 45.237 30.8341 45.1701 30.9613C45.8648 30.5628 46.5595 30.1643 47.2542 29.7658C47.1596 29.7811 47.0641 29.7869 46.9675 29.785C47.2255 29.7821 47.4635 29.8499 47.6803 29.9885C47.2781 29.7735 48.0799 30.3286 47.755 30.021C47.4577 29.739 47.1089 29.503 46.8041 29.226C46.4009 28.8599 46.0243 28.514 45.4797 28.364C45.0163 28.236 44.5346 28.2617 44.075 28.3879C43.3259 28.5943 42.6694 29.0806 42.2785 29.7534C42.0177 30.2016 41.9307 30.5972 41.8973 31.1084C41.8601 31.6693 41.9833 30.7931 41.9402 31.0883C41.8561 31.657 41.7626 32.2217 41.69 32.7931C41.6086 33.4285 41.7969 32.473 41.6325 32.9594C41.5398 33.2356 41.495 33.5385 41.4567 33.8241C41.3975 34.2694 41.3994 34.2522 41.4605 33.7706C41.387 34.0143 41.4233 33.935 41.5714 33.5327C41.7071 33.3044 41.8906 33.1276 42.1237 33.0004C41.9126 33.1218 41.9928 33.095 42.3626 32.9192C42.9828 33.0004 43.6021 33.0816 44.2222 33.1629C44.1314 33.1199 44.0435 33.0722 43.9584 33.0196C43.7463 32.8772 43.7902 32.9154 44.0903 33.1362C44.0158 33.0722 43.945 33.0033 43.8781 32.9307C44.2279 33.3569 44.1754 33.2824 43.7224 32.7081C43.1883 32.1519 42.4821 31.8118 41.7004 31.8212C40.4572 31.8375 39.5283 32.6068 39.1328 33.7592C39.0515 33.9971 38.9789 34.2369 38.8968 34.4749C38.8481 34.6144 38.7887 34.751 38.742 34.8906C38.9914 34.1395 38.8614 34.6154 38.7563 34.8094C38.6893 34.9336 38.6034 35.0444 38.5336 35.1658C38.8548 34.6001 38.806 34.8037 38.6445 34.9804C38.3798 35.269 39.191 34.5581 38.7247 34.8801C39.15 34.7157 39.2456 34.6679 39.0105 34.7368C39.4749 34.6889 39.5791 34.6746 39.321 34.6918C38.9101 34.6794 39.9938 34.8657 39.3707 34.6861C39.1299 34.6173 38.9188 34.5715 38.6665 34.538C37.2503 34.3478 35.9966 35.0177 35.3783 36.3144C35.2446 36.5953 35.1327 36.8887 35.0143 37.1763C35.1825 36.7912 35.2139 36.7081 35.1107 36.9288C34.9866 37.1439 35.0553 37.0692 35.3172 36.7052C35.1337 36.8839 35.1911 36.8505 35.4892 36.6058C35.4147 36.6574 35.3373 36.7062 35.258 36.7511C35.1232 36.8304 34.9818 36.9002 34.8461 36.9795C33.7978 37.5881 33.0773 38.5352 32.9111 39.7468C32.8298 40.3392 32.7582 40.9422 32.7333 41.5404C32.7142 41.8042 32.7256 41.7258 32.7658 41.3063C32.6923 41.5481 32.7285 41.484 32.8747 41.1114C32.8356 41.1945 32.7896 41.2748 32.74 41.3512C32.9817 41.0569 33.0181 41.0072 32.8471 41.2012C33.6296 40.9938 34.4123 40.7874 35.1948 40.58C35.0831 40.5629 34.0922 40.4712 34.0778 40.4099C34.3425 40.5533 34.3998 40.5781 34.2498 40.4846C34.1772 40.4377 34.1056 40.3899 34.0338 40.3412C33.8905 40.2446 33.7491 40.1453 33.6096 40.045C33.5398 39.9943 33.47 39.9437 33.4012 39.8921C33.2599 39.786 33.3085 39.8242 33.5484 40.0077C33.4978 39.914 33.2312 39.7516 33.148 39.6809C32.8843 39.4582 32.631 39.2251 32.3788 38.989C31.858 38.5036 31.3535 38.0201 30.7716 37.6044C30.0529 37.0912 29.2187 36.8466 28.3415 36.8027C27.5025 36.7606 26.6721 37.2929 26.2574 37.9981C25.9496 38.5208 25.705 39.1018 25.6105 39.7029C25.5054 40.3651 25.5025 40.9614 25.8542 41.5624C26.1475 42.0632 26.7208 42.5409 27.2961 42.6718C28.4523 42.9356 30.0539 42.3193 30.2651 40.9861C30.2927 40.8095 30.3454 40.6441 30.3826 40.4712C30.4419 40.2972 30.4074 40.3737 30.2785 40.6995C30.3224 40.6087 30.3711 40.5199 30.4256 40.4339C29.7309 40.8323 29.0361 41.2309 28.3415 41.6293C28.2879 41.6264 27.7471 41.4659 28.0921 41.5949C28.1733 41.6255 28.3864 41.7086 28.0491 41.5605C27.6506 41.3857 28.1341 41.636 28.2249 41.6924C28.5536 41.8987 28.0778 41.6044 28.0615 41.5652C28.0787 41.6073 28.2488 41.7297 28.2699 41.7487C28.4065 41.873 28.5383 42.001 28.6721 42.1281C29.3802 42.7999 30.1159 43.421 30.8967 44.0077C31.2168 44.2485 31.5436 44.4931 31.8876 44.6996C32.4743 45.0532 33.0706 45.1085 33.7271 45.207C34.3483 45.2997 34.8805 45.3685 35.4844 45.1133C35.8666 44.9518 36.1897 44.7139 36.4504 44.3909C36.8833 43.8558 37.2178 43.3302 37.4042 42.6527C37.5494 42.1272 37.5503 41.5624 37.601 41.0215C37.6097 40.9288 37.6239 40.8333 37.6239 40.7406C37.6258 40.3813 37.5427 41.1888 37.5857 40.884C37.5953 40.8152 37.6124 40.7453 37.6182 40.6766C37.6698 40.4892 37.6555 40.4988 37.5743 40.7062C37.5408 40.8181 37.4815 40.9145 37.3975 40.9948C37.1948 41.3569 37.5963 40.8639 37.2513 41.1391C36.9636 41.3684 37.1509 41.2136 37.2245 41.1792C37.364 41.1123 37.4997 41.0282 37.6354 40.9508C38.1629 40.6517 38.611 40.2724 38.9799 39.7956C39.1222 39.6121 39.2293 39.463 39.3287 39.2594C39.4348 39.0416 39.5417 38.7654 39.6211 38.5725C39.6526 38.495 39.7444 38.2752 39.5953 38.6317C39.408 39.0807 39.6718 38.5524 39.6794 38.4836C39.6584 38.667 39.2475 38.9527 39.085 39.0464C38.7964 39.1324 38.5079 39.2175 38.2192 39.3035C38.0903 39.2901 37.9622 39.2767 37.8332 39.2633C37.8074 39.3426 39.3191 39.5165 39.2618 39.5175C39.9202 39.5108 40.4773 39.3521 41.0688 39.0855C42.7152 38.3431 43.2933 36.516 43.8189 34.9441C43.4491 35.4247 43.0793 35.9055 42.7095 36.3861C42.2174 36.4568 41.7253 36.5265 41.2322 36.5972C40.8776 36.3899 40.5221 36.1835 40.1677 35.9762C40.3397 36.1175 40.2804 36.0401 39.9899 35.7421C40.1208 35.9321 40.2633 36.1137 40.4161 36.2867C40.5327 36.4156 40.656 36.5303 40.7907 36.6412C41.2561 37.0225 41.7702 37.4094 42.3626 37.5728C43.7157 37.9456 45.1577 37.0244 45.7931 35.8634C45.9088 35.6513 46.0406 35.3178 46.1151 35.0531C46.1658 34.7979 46.2031 34.5409 46.226 34.2819C46.2174 34.3889 46.2078 34.4968 46.1992 34.6039C46.162 34.5733 46.3388 34.0411 46.354 33.9685C46.4325 33.6101 46.4267 33.2365 46.5051 32.8801C46.4926 32.9756 46.4792 33.0711 46.4668 33.1657C46.484 33.0473 46.5012 32.9297 46.5204 32.8113C46.548 32.6345 46.5806 32.4577 46.6111 32.2809C46.6656 31.9665 46.7554 31.6512 46.7133 31.332C46.721 30.7291 46.5337 31.14 46.1524 32.5628C45.2857 32.9623 45.0621 33.1132 45.4816 33.0157C44.699 32.8084 43.9164 32.602 43.1338 32.3947C43.5896 32.8228 44.0875 33.203 44.5404 33.6302C45.3688 34.4118 46.4678 34.6956 47.5772 34.5466C49.6546 34.2675 50.0627 31.6712 50.5977 30.0085C49.6078 30.5705 48.6187 31.1323 47.6288 31.6942C48.7975 32.1547 50.1381 31.4218 50.7354 30.4175C51.0164 29.9455 51.1606 29.4122 51.2428 28.8772C51.388 27.9292 51.5686 26.8064 51.3403 25.8499C51.1042 24.8618 50.0387 24.0324 49.0135 24.0782C47.9738 24.1251 46.9417 24.7902 46.6866 25.8499C46.6866 25.8508 46.6856 25.8518 46.6856 25.8527C48.2662 26.0668 49.8458 26.2809 51.4263 26.4939C51.4425 26.3315 51.4482 26.1681 51.4597 26.0056C51.4692 25.8633 51.4807 25.7219 51.4951 25.5805C51.5018 25.5183 51.5094 25.4552 51.5152 25.3932C51.5486 25.0233 51.4206 25.978 51.4759 25.6951C51.5313 25.4112 51.6279 25.1313 51.6813 24.8503C51.7148 24.6707 51.433 25.3177 51.5409 25.1886C51.5562 25.1704 51.646 25.0424 51.6422 25.0176C51.6413 25.0118 51.2285 25.5317 51.4072 25.3434C51.2371 25.5317 51.0344 25.6635 50.7984 25.7391C50.5452 25.8298 50.4908 25.8566 50.6341 25.8213C50.206 25.8213 49.7788 25.8213 49.3507 25.8213C50.0808 26.0792 50.9064 26.105 51.6585 25.9225C52.3904 25.7447 52.9093 25.3558 53.4282 24.8398C53.8706 24.3984 54.251 23.9665 54.5119 23.3903C54.744 22.8771 54.9638 22.3563 55.1674 21.8307C55.4865 21.0032 55.757 20.1499 55.948 19.2832C56.034 18.8914 56.1143 18.5024 56.229 18.1174C56.2939 17.8995 56.3665 17.6835 56.4449 17.4705C56.4841 17.3634 56.5252 17.2573 56.5682 17.1523C56.4334 17.4657 56.4201 17.501 56.528 17.2583C55.1387 17.2583 53.7493 17.2583 52.3598 17.2583C52.269 17.1092 52.2184 16.9487 52.2069 16.7777C52.1878 16.5512 52.1736 16.5416 52.1649 16.7499C53.7455 16.5359 55.325 16.3219 56.9055 16.1087C56.5997 15.2917 56.4353 14.4355 56.1907 13.6004C55.8497 12.4345 55.3421 11.4388 54.5806 10.4986C53.6786 9.3863 51.3641 9.63093 50.7898 10.9869C50.4468 11.7972 50.1849 12.5588 50.1993 13.457C50.2012 13.5679 50.2127 13.6777 50.2222 13.7877C50.2318 14.0304 50.2661 14.2683 50.3264 14.5024C50.3569 14.6382 50.3541 14.5989 50.3207 14.383C50.2987 14.1537 50.291 14.1269 50.2996 14.3027C50.3197 14.1518 50.3388 14.0007 50.3588 13.8507C50.6666 13.4503 50.9752 13.0509 51.2829 12.6506C52.2939 12.469 52.5797 12.3792 52.141 12.382C52.8358 12.7805 53.5304 13.1789 54.2251 13.5775C54.0025 13.0634 54.4258 14.0925 54.2213 13.5641C54.1726 13.4379 54.1219 13.3137 54.0723 13.1875C53.9633 12.9086 53.8562 12.6286 53.7464 12.3495C53.4798 11.6749 53.2074 10.9984 52.8825 10.3505C52.7622 10.1097 52.6331 9.87459 52.4908 9.64526C52.2968 9.33278 52.4048 9.51435 52.4697 9.74559C52.423 9.57837 52.2481 9.16174 52.1161 8.94387C51.8543 8.51386 51.4673 8.13067 51.0287 7.88604C50.6456 7.67104 50.164 7.5277 49.7225 7.53153C49.4386 7.53439 49.4215 7.40444 49.9412 7.59938C50.2958 7.80674 50.6513 8.01314 51.0058 8.2205C50.6933 7.88413 51.2476 8.66484 51.0459 8.27401C50.98 8.14596 50.9017 8.02461 50.8386 7.8956C50.7659 7.74845 50.6207 7.28977 50.8453 7.93383C50.7984 7.79814 50.7383 7.6634 50.6848 7.53057C50.4448 6.93239 50.2117 6.3342 49.9872 5.73027C49.41 4.1832 48.7716 2.80335 47.7253 1.51906C47.1062 0.759373 45.6011 0.571125 44.8003 1.1416C43.8753 1.80095 43.1252 2.64759 42.9035 3.80192C42.8414 4.12682 42.7945 4.46413 42.7869 4.79667C42.7754 5.27159 42.9656 4.19561 42.7993 4.70972C42.742 4.89414 42.7888 4.78616 42.9389 4.38769C42.8108 4.59314 42.8748 4.51382 43.1309 4.15167C42.9551 4.31315 43.0334 4.25296 43.3679 3.9701C43.1539 4.0819 43.2399 4.0475 43.6278 3.8669C44.4104 4.07426 45.193 4.28066 45.9757 4.48802C46.0282 4.55301 46.29 4.91898 46.1046 4.65429C46.0521 4.5788 45.9986 4.50522 45.9469 4.42973C45.8429 4.27685 45.7425 4.12012 45.6431 3.96341C45.431 3.62801 45.2265 3.28782 45.0029 2.96006C44.3817 2.0494 43.7042 1.28303 42.7717 0.682927C41.6115 -0.0633769 40.1907 0.516656 39.4701 1.54867C39.1586 1.99398 38.9684 2.50139 38.7668 3.00401C38.7142 3.13589 38.5747 3.35758 38.5738 3.49709C38.7219 3.15499 38.741 3.10149 38.6301 3.33656C38.5834 3.4283 38.5326 3.51716 38.4773 3.60411C39.172 3.20564 39.8666 2.80717 40.5614 2.40869C41.408 2.71352 41.6469 2.76512 41.2799 2.56541C41.5685 2.79952 41.6431 2.85686 41.5026 2.73742C41.4042 2.64567 41.301 2.55681 41.1977 2.4708C40.8604 2.18795 40.5069 1.91753 40.1514 1.65857C39.3659 1.08618 38.5432 0.807152 37.5838 0.682927C37.9899 0.792818 38.396 0.902709 38.8021 1.0126C37.861 0.555835 36.7525 0.394343 35.8246 1.00782C34.9923 1.55728 34.6063 2.38958 34.287 3.30025C34.1389 3.72452 34.052 4.16791 33.9374 4.60078C33.8819 4.80814 33.7634 5.03939 33.7328 5.24962C33.7654 5.03366 33.9345 4.82916 33.7424 5.1617C33.6736 5.28115 33.5972 5.392 33.5169 5.5038C34.7801 5.34135 36.0434 5.17794 37.3076 5.0155C37.1567 4.88555 37.0134 4.75177 36.8786 4.60556C36.8126 4.53389 36.7486 4.45936 36.6875 4.38387C36.913 4.68201 36.9512 4.72883 36.8002 4.52434C36.6073 4.2434 36.4238 3.95768 36.2441 3.66814C35.774 2.91037 35.2741 2.16025 34.6483 1.52001C33.8914 0.745995 32.6511 0.620814 31.7232 1.14256C30.0902 2.06087 29.5455 3.91276 29.0515 5.58789C28.5221 7.3815 27.772 9.09485 27.3094 10.9123C28.89 11.1264 30.4695 11.3404 32.05 11.5536C32.1294 9.72266 32.0491 7.887 32.2125 6.05995C30.632 6.27399 29.0524 6.48804 27.4719 6.70114C27.5388 6.91136 27.5847 7.12446 27.6429 7.33755C27.6898 7.60415 27.686 7.55255 27.6324 7.18465C27.6449 7.29454 27.6535 7.40539 27.6583 7.51529C27.687 8.11347 27.7749 8.70402 27.8713 9.29456C28.0204 10.2148 28.2105 11.1264 28.4342 12.0304C28.6779 13.0175 29.7299 13.8488 30.761 13.802C31.8456 13.7532 32.7677 13.0835 33.0878 12.0304C33.449 10.8436 33.2216 9.66055 33.1451 8.45844C33.1222 8.10487 33.0697 7.75418 33.0448 7.40157C33.0295 7.18465 33.0496 6.96965 33.04 6.75369C33.0304 6.53009 32.8938 7.37768 33.0191 7.02794C32.9617 7.1598 32.9044 7.29263 32.8471 7.42451C33.0611 7.07477 32.8509 7.27353 32.2173 8.0227C31.0352 7.54203 29.8542 7.06138 28.6721 6.58073C28.8068 6.95149 28.9464 7.32226 29.0428 7.70449C29.0639 7.78571 29.083 7.86693 29.0983 7.95006C29.1336 8.13545 29.125 8.05901 29.0735 7.72073C29.1891 7.758 28.9435 8.74511 29.106 7.91472C30.5766 7.72264 32.0462 7.53057 33.5169 7.3385C33.2885 7.00978 33.0735 6.6782 32.8279 6.36095C32.46 5.88412 32.1169 5.59649 31.6248 5.21999C31.0037 4.74412 29.815 4.77947 29.1891 5.21999C28.1178 5.97394 27.3926 7.0461 27.5063 8.41065C27.4882 8.19278 27.7663 9.99404 27.6343 9.0184C27.6678 9.26685 27.6688 9.52391 27.686 9.77427C27.7175 10.2148 27.75 10.6553 27.7853 11.0958C27.9373 13.0069 28.1159 14.9163 28.3099 16.8236C28.7103 20.7424 29.2187 24.6555 29.9354 28.5293C31.4872 28.1012 33.0381 27.6741 34.59 27.2459C33.7003 24.9287 33.0831 22.4787 31.7433 20.362C31.2197 19.5345 30.3176 19.0786 29.3391 19.2096C28.4858 19.3243 27.4728 20.0103 27.3324 20.9382C27.1518 22.1337 27.1585 23.2727 27.6171 24.4088C27.9153 25.0549 27.9535 25.1714 27.7337 24.7576C27.7596 24.88 27.7853 25.0032 27.8121 25.1256C27.8513 25.31 27.8904 25.4934 27.9306 25.6779C28.0233 26.1069 28.117 26.536 28.2124 26.9641C28.6099 28.7529 29.0171 30.5418 29.5064 32.3087C29.9755 34.0038 30.5078 35.6818 31.0993 37.3378C31.1681 37.5318 31.2206 37.7554 31.3162 37.9369C31.4003 38.2131 31.4137 38.1615 31.3573 37.7822C31.3592 37.872 31.3658 37.9628 31.3764 38.0516C31.4328 38.7024 31.5455 39.2413 31.8475 39.8251C32.2994 40.6986 33.2034 41.4248 34.1868 41.5757C34.9799 41.6981 35.6373 41.6485 36.2909 41.1439C36.8958 40.6766 37.2264 40.0191 37.2417 39.2489C37.2752 37.6025 36.9751 35.9599 36.6445 34.3535C36.4964 33.634 36.3387 32.9154 36.2106 32.192C36.1801 32.0191 36.1524 31.8451 36.1236 31.6722C36.0319 31.1256 36.1657 32.1261 36.1141 31.6197C36.073 31.2126 36.0367 30.8084 36.0233 30.3994C34.6502 30.968 33.2771 31.5375 31.9039 32.106C31.4424 31.548 31.8694 32.0707 31.9583 32.214C32.0625 32.3832 32.1581 32.5571 32.2469 32.7349C32.3148 32.8695 32.3759 33.0062 32.439 33.1429C32.5422 33.3798 32.5212 33.3272 32.3749 32.9843C32.4142 33.0778 32.4523 33.1715 32.4896 33.2661C32.8241 34.0898 33.1633 34.9096 33.5589 35.7067C33.728 36.0478 33.9316 36.3622 34.1581 36.6679C34.1791 36.6957 34.9971 37.8586 35.1413 37.8222C34.9197 37.5222 34.8766 37.4697 35.0124 37.6636C35.15 37.8672 35.3019 38.0583 35.4672 38.2379C35.6622 38.431 35.8915 38.5992 36.1303 38.7319C36.849 39.1324 37.7625 39.2184 38.5393 38.9432C39.6115 38.5648 40.2336 37.7439 40.311 36.6164C40.5394 33.2919 39.9526 29.9771 40.1581 26.6526C39.1395 27.4285 38.1218 28.2044 37.1032 28.9794C36.6196 28.8351 36.0797 28.4328 35.9622 28.1529C35.9966 28.2341 36.0491 28.3249 36.095 28.4004C36.1753 28.5322 35.8437 27.7562 36.0376 28.2684C36.0769 28.3717 36.1141 28.4768 36.1504 28.5809C36.3406 29.1256 36.5403 29.6522 36.7764 30.1815C37.3879 31.5499 38.0196 32.8332 39.0401 33.9551C39.6115 34.5828 40.5882 34.796 41.3879 34.5762C42.117 34.3755 42.9627 33.6913 43.0736 32.8906C43.2628 31.5164 43.3707 30.1491 43.4347 28.7644C43.4615 28.1805 43.4873 27.5967 43.5246 27.0128C43.5447 26.7061 43.5676 26.3994 43.5963 26.0926C43.6107 25.9397 43.6259 25.7868 43.6431 25.6339C43.6594 25.4887 43.7415 24.9153 43.6517 25.5432C42.6617 26.105 41.6727 26.6669 40.6828 27.2288C40.9092 27.2718 40.7792 27.1877 40.2928 26.9765C39.8486 26.6697 39.7166 26.6 39.9001 26.7672C39.8543 26.7157 39.5274 26.1939 39.7071 26.5283C39.8151 26.73 40.0578 27.3568 39.7683 26.5751C39.9536 27.0739 40.1428 27.5794 40.3626 28.064C40.9016 29.2527 41.6498 30.2962 42.7869 30.9795C43.9423 31.6731 45.3861 31.1982 46.0884 30.1137C46.785 29.0387 46.7315 27.7993 46.6551 26.5828C46.6226 26.0688 46.6292 25.5499 46.6455 25.0357C46.6608 24.558 46.6761 24.1862 46.593 23.696C46.5327 23.3415 46.6206 23.8384 46.6226 23.9244C46.6379 24.4595 46.2451 25.0616 45.8161 25.3511C44.7152 25.0625 43.6144 24.7739 42.5146 24.4854C42.0253 23.352 42.5269 24.5589 42.6416 24.8532C42.8844 25.4792 43.1405 26.0993 43.4033 26.7166C43.8906 27.8604 44.4315 28.9383 45.2121 29.912C46.2088 31.1534 47.9862 31.7926 49.4272 30.8647C50.7649 30.0028 50.9561 28.1203 51.0545 26.6697C51.1233 25.656 51.3145 24.6449 51.4206 23.633C51.5438 22.4586 51.6317 21.2803 51.7378 20.105C51.7874 19.5488 51.842 18.9918 51.906 18.4365C51.9203 18.3133 51.9355 18.19 51.9499 18.0668C52.0225 17.4351 51.8677 18.5999 51.9614 17.9712C52.0063 17.6653 52.0541 17.3596 52.1056 17.0548C50.635 17.2469 49.1654 17.4389 47.6947 17.631C47.7711 17.7829 47.8467 17.9348 47.9174 18.0896C47.9527 18.167 47.9881 18.2445 48.0215 18.3229C48.0932 18.4882 48.0674 18.427 47.9441 18.1394C48.1046 18.3754 48.1849 18.7518 48.2852 19.0175C48.572 19.7734 48.8682 20.5235 49.1988 21.2612C49.9165 22.8618 52.635 22.8188 53.367 21.2612C53.6661 20.6239 53.8248 20.0094 53.7579 19.3071C53.7206 18.9181 53.6919 18.5283 53.6604 18.1384C53.5907 17.2717 53.5352 16.406 53.4874 15.5383C53.3794 13.5765 53.152 11.6969 52.3264 9.89753C51.9307 9.0356 50.785 8.62948 49.9222 8.74511C49.0612 8.86073 48.0674 9.54492 47.9155 10.4737C47.8247 11.0318 47.7674 11.522 47.8266 12.0744C47.861 12.3964 47.9117 12.7251 47.9594 13.0471C47.9996 13.3176 47.9938 13.2669 47.9431 12.8971C47.9556 13.0021 47.9651 13.1082 47.9699 13.2153C48.0521 14.4728 49.021 15.6892 50.3837 15.6291C51.6594 15.5718 52.8367 14.5675 52.7975 13.2153C52.7975 13.2134 52.7975 13.2115 52.7975 13.2105C51.1883 13.2105 49.5801 13.2105 47.9709 13.2105C47.991 13.4924 47.9967 13.7752 48.0034 14.0581C48.0082 14.2721 48.0111 14.4872 48.0034 14.7012C48.0005 14.7767 47.9929 14.8512 47.9919 14.9267C47.9671 15.1694 47.9891 15.0108 48.0559 14.4499C47.9958 14.6725 48.0655 14.5081 48.2653 13.9559C49.7359 14.148 51.2055 14.34 52.6762 14.5321C52.2423 13.0691 51.6909 11.6396 51.1998 10.1947C50.7229 8.79098 50.1458 7.39392 49.4807 6.06758C49.0316 5.17221 48.3149 4.45362 47.3545 4.12968C45.8657 3.62801 44.4114 4.59218 43.9881 6.03032C43.6651 7.12636 43.7501 8.33421 43.7387 9.46848C43.7339 9.93671 43.7243 10.4059 43.6908 10.8741C43.6833 10.9831 43.6718 11.091 43.6632 11.199C43.6259 11.6472 43.7921 10.5559 43.6927 10.9611C43.6756 11.0318 43.6498 11.1111 43.6402 11.1827C43.6307 11.2555 43.474 11.5898 43.7262 10.9898C43.9718 10.404 44.506 9.86982 45.1577 9.73412C46.0664 10.1039 46.9742 10.4737 47.883 10.8436C46.699 8.4011 45.4893 6.02649 43.7655 3.91755C43.4119 3.48563 42.6016 3.18654 42.0588 3.21042C41.3946 3.24004 40.8548 3.47799 40.3521 3.91755C39.4691 4.68965 39.3707 5.95483 39.4777 7.04037C39.5676 7.95198 39.6584 8.87602 39.7051 9.79146C40.7238 9.01554 41.7415 8.23961 42.7602 7.46464C42.4945 7.40539 43.2475 7.71022 43.3383 7.78189C43.6889 8.05614 43.5055 7.90993 43.4272 7.8354C43.128 7.54586 43.6058 8.059 43.5867 8.06283C43.5705 8.0657 43.4759 7.9042 43.4634 7.887C43.2647 7.58982 43.0946 7.27353 42.9274 6.95819C42.7171 6.56162 42.4916 6.1813 42.2604 5.79716C41.945 5.27351 41.623 4.75463 41.2532 4.26729C40.5661 3.36045 39.6526 2.34658 38.3846 2.44405C37.1528 2.53865 35.8771 3.47416 35.9708 4.85783C36.0348 5.80385 36.1934 6.74127 36.2441 7.6892C36.268 8.13928 36.2813 8.58935 36.2842 9.03943C36.287 9.45223 36.2937 9.79911 36.3683 10.2205C36.4381 10.489 36.4324 10.4145 36.3492 9.99787C36.354 9.54588 36.4983 9.15982 36.783 8.83876C37.9211 8.83876 39.0582 8.83876 40.1963 8.83876C40.1495 8.7862 39.6946 8.25394 39.7004 8.25107C39.7118 8.24343 40.0597 8.73078 39.753 8.30746C39.6775 8.2033 39.603 8.09723 39.5293 7.99116C39.2484 7.58695 38.9808 7.17415 38.7075 6.76516C38.0664 5.80863 37.3831 4.85115 36.5403 4.06089C35.6984 3.27157 34.6196 3.2066 33.6154 3.68343C32.246 4.33418 32.0787 6.01599 32.2029 7.33373C32.246 7.7924 32.2469 8.25394 32.2546 8.71453C32.2603 9.03464 32.2622 9.35572 32.245 9.67583C32.2412 9.7628 32.2345 9.84976 32.2268 9.93671C32.2087 10.1221 32.2211 10.0533 32.2613 9.72744C32.2956 9.85835 32.1839 10.1192 32.1533 10.2415C32.7151 9.67966 33.2771 9.11778 33.8389 8.55591C34.3397 8.63521 34.8394 8.71453 35.3401 8.79384C35.6698 9.06905 35.7625 9.14262 35.6172 9.01554C35.5551 8.94865 35.4777 8.88176 35.4099 8.82155C35.1557 8.59508 34.8967 8.34855 34.5833 8.2119C33.8475 7.88987 33.1986 7.76851 32.4352 8.09054C31.8083 8.35523 31.1509 8.93718 31.0381 9.65482C30.9511 10.209 30.9187 10.6983 31.0601 11.2497C31.125 11.502 31.1976 11.7437 31.2474 12.0008C31.3658 12.6161 31.4872 13.2249 31.6401 13.8325C31.9506 15.0701 32.3023 16.297 32.6578 17.523C33.8399 16.6143 35.021 15.7065 36.203 14.7977C36.8146 15.1971 36.3253 14.8359 36.1791 14.7136C35.4137 14.0763 34.5021 13.8097 33.5426 14.2148C32.7189 14.5627 31.9841 15.4724 32.0587 16.4202C32.1743 17.8928 32.7601 19.1828 33.2388 20.5589C33.4719 21.2288 33.73 21.8891 33.9908 22.5494C34.1169 22.8695 34.2479 23.1876 34.3673 23.5106C34.418 23.6483 34.4667 23.7858 34.505 23.9272C34.6598 24.5073 34.4935 23.4351 34.5078 23.9406C35.7185 23.2459 36.9293 22.5513 38.139 21.8565C37.9278 21.7257 37.9823 21.7696 38.3014 21.9913C38.2336 21.9253 38.1705 21.8556 38.1103 21.783C38.3387 22.0839 38.3769 22.1327 38.225 21.9301C38.1705 21.8556 38.1141 21.781 38.0578 21.7084C37.6946 21.2307 37.3048 20.7758 36.9321 20.3057C36.8594 20.2139 36.7878 20.1231 36.7161 20.0304C36.9149 20.2884 36.935 20.3133 36.7745 20.103C36.6425 19.9262 36.5088 19.7514 36.3769 19.5747C36.161 19.2851 35.9459 18.9945 35.7262 18.707C34.5785 17.2019 33.3764 15.7065 31.7032 14.7529C30.653 14.1546 28.953 14.4202 28.4017 15.6185C28.0166 16.4547 27.8866 17.2946 28.1963 18.1842C28.3099 18.5101 28.4494 18.8292 28.5976 19.1408C28.7763 19.5144 28.524 18.9296 28.4877 18.8665C28.5622 18.9945 28.5986 19.16 28.6482 19.2975C29.0572 20.4212 29.3897 21.5699 29.7634 22.7061C30.1246 23.8059 30.5193 24.8953 30.9043 25.9875C31.0907 26.5159 31.2589 27.053 31.4604 27.5748C31.5321 27.761 31.6114 27.9445 31.6784 28.1328C31.7166 28.2398 31.7424 28.3497 31.7796 28.4567C31.9201 28.859 31.7663 27.8776 31.7386 28.2761C33.2379 27.87 34.7371 27.4639 36.2355 27.0578C35.5905 25.6721 34.719 24.427 33.879 23.1562C32.9617 21.7686 32.073 20.363 31.1805 18.9602C29.4184 16.1919 27.5207 13.5163 25.6975 10.7881C24.8068 9.45606 24.1293 7.75226 22.6376 6.97252C21.7633 6.51576 20.7504 6.54824 19.9572 7.16076C19.1383 7.79335 18.9291 8.70975 19.0925 9.69782C19.1708 10.1699 19.3801 10.6505 19.6591 11.0375C19.8053 11.2411 19.9984 11.4264 20.1331 11.6357C20.1225 11.6195 19.8942 11.2325 19.9917 11.4733C20.0739 11.6758 20.2219 11.8727 20.3309 12.0629C20.7762 12.836 21.2119 13.6147 21.6496 14.3926C22.5622 16.0141 23.4747 17.6358 24.3969 19.2516C26.1924 22.3993 27.9477 25.5642 29.6631 28.7558C30.6262 30.5475 31.5924 32.3392 32.5852 34.1147C33.9746 33.3024 35.364 32.4901 36.7534 31.6789C36.7008 31.5852 36.655 31.4802 36.591 31.3942C35.9641 30.558 34.9578 29.9311 33.8656 30.2847C32.8938 30.5991 32.0301 31.5279 32.0941 32.6115C32.1619 33.7678 33.0248 34.9431 33.5838 35.9283C33.8552 36.407 34.1275 36.8868 34.4161 37.355C35.0047 38.3116 35.6363 38.9728 36.8642 39.0646C37.6946 39.1257 38.5432 38.5618 38.9483 37.8691C39.4013 37.0941 39.3507 36.2112 38.9483 35.4333C37.3774 32.3927 35.7319 29.3961 33.9803 26.4567C32.4142 23.8288 30.911 21.1675 29.2922 18.5713C28.4992 17.2985 27.6382 15.9578 26.3578 15.1264C25.4967 14.5684 24.1283 14.7462 23.4327 15.5038C22.6673 16.3381 22.565 17.4246 23.0552 18.4289C24.3806 21.1447 25.6936 23.8632 27.0868 26.5456C27.7548 27.8317 28.4026 29.1294 29.0162 30.4424C29.2961 31.0425 29.5675 31.6464 29.8513 32.2436C29.9326 32.4146 30.0138 32.5857 30.0921 32.7587C30.1265 32.8332 30.1599 32.9088 30.1933 32.9833C30.0692 32.6832 30.0414 32.6163 30.1103 32.7835C30.2316 33.0998 30.3463 33.4113 30.4314 33.74C31.7759 32.9575 33.1203 32.1748 34.4648 31.3923C34.2966 31.2498 34.1533 31.0931 33.9985 30.9383C33.6344 30.5742 34.2469 31.2986 33.9698 30.9115C33.7347 30.5838 33.4949 30.2608 33.2627 29.9311C32.7783 29.2421 32.3157 28.5379 31.8552 27.8317C30.9062 26.3783 29.9516 24.9277 29.0075 23.4715C28.0797 22.04 27.1547 20.6066 26.2392 19.1667C25.3113 17.7065 24.3252 16.2588 23.1059 15.0251C22.502 14.4146 21.5846 14.1766 20.7581 14.4041C20.0098 14.6104 19.209 15.2851 19.0724 16.0896C18.9396 16.8713 18.9243 17.5785 19.2368 18.319C19.4384 18.7958 19.6964 19.2364 19.9057 19.7132C20.0853 20.1231 20.2974 20.5359 20.4427 20.9602C20.438 20.9478 20.2717 20.5465 20.3748 20.8006C20.4761 21.0501 20.5841 21.2975 20.6893 21.546C20.7858 21.7734 20.8832 22.0008 20.9807 22.2283C21.7241 23.9636 22.4838 25.6913 23.2378 27.4218C23.6266 28.3134 24.0089 29.2068 24.3883 30.1022C24.437 30.2178 24.4857 30.3334 24.5344 30.4491C24.6415 30.7033 24.4819 30.3238 24.4743 30.3058C24.5746 30.5351 24.6692 30.7682 24.7658 30.9994C24.9597 31.462 25.1537 31.9254 25.3467 32.388C26.1274 34.2589 26.9062 36.1319 27.6965 37.999C28.1197 38.9995 28.5565 39.9933 28.9875 40.99C29.0859 41.2175 29.1843 41.4458 29.2817 41.6732C29.3305 41.787 29.3792 41.9016 29.428 42.0153C29.5455 42.2906 29.2608 41.6111 29.4376 42.0393C29.6497 42.5553 29.8609 43.0712 30.0634 43.592C31.4079 42.8095 32.7524 42.0268 34.0969 41.2442C33.9326 41.0683 34.0577 41.0656 34.201 41.4047C34.1753 41.3436 34.1179 41.2815 34.0826 41.2242C33.9928 41.0798 33.9125 40.9298 33.8332 40.7798C33.6755 40.4798 33.5265 40.1778 33.3449 39.8911C32.8862 39.1629 32.4352 38.4329 32.01 37.6847C31.1585 36.1825 30.3329 34.666 29.4719 33.1686C27.7682 30.2064 25.9889 27.2861 24.1637 24.3975C23.0839 22.6879 21.9344 21.0252 20.63 19.4781C19.9725 18.6984 18.5449 18.5598 17.7049 19.1006C16.7772 19.6988 16.3443 20.7453 16.5956 21.826C16.9606 23.396 17.8187 24.8886 18.4713 26.3573C19.0944 27.761 19.7404 29.1553 20.3786 30.5513C21.6907 33.4199 22.9836 36.2982 24.3691 39.1334C25.1422 40.7158 25.9764 42.2705 26.6922 43.8807C27.9554 42.9059 29.2187 41.9312 30.4829 40.9556C30.353 40.8294 30.2268 40.6995 30.1074 40.5629C30.0472 40.494 29.8418 40.216 30.0452 40.5017C30.2412 40.7769 30.0787 40.5467 30.0405 40.4921C29.8102 40.1605 29.5866 39.827 29.3744 39.4831C28.9455 38.7865 28.5202 38.0898 28.0787 37.4019C27.1098 35.8911 26.117 34.3966 25.1345 32.8944C23.1948 29.9292 21.3582 26.8867 19.5703 23.8278C18.6013 22.1699 17.598 20.4959 16.2372 19.1226C15.512 18.3907 14.2029 18.1709 13.3122 18.7451C12.4513 19.3004 11.8454 20.4385 12.2028 21.4705C12.6022 22.6229 13.208 23.5995 13.8722 24.6076C14.4713 25.5164 15.0285 26.4538 15.5798 27.3913C16.7418 29.3654 17.8541 31.3683 18.996 33.354C21.3008 37.3617 23.6429 41.3512 25.8589 45.4076C27.0305 47.5529 28.1819 49.7164 29.6162 51.7011C30.8795 50.7264 32.1427 49.7517 33.407 48.776C33.084 48.3747 32.7639 47.9705 32.4475 47.5635C32.3988 47.5003 32.159 47.1888 32.3578 47.4478C32.59 47.7507 32.2259 47.2758 32.2134 47.2595C32.0481 47.0426 31.8828 46.8247 31.7185 46.6069C31.0783 45.7593 30.4475 44.905 29.8188 44.0498C28.5737 42.3574 27.3257 40.668 26.0481 38.9986C23.3266 35.4429 20.5985 31.892 17.7901 28.405C16.35 26.6163 14.9051 24.8122 13.1526 23.3148C12.2305 22.5264 10.9825 22.3544 9.98395 23.1265C9.58547 23.4342 9.23382 23.8747 9.11915 24.3802C8.96531 25.0568 9.09335 25.6081 9.36283 26.2398C10.069 27.8968 10.9653 29.4486 11.79 31.0473C12.6299 32.6765 13.424 34.3287 14.2362 35.9723C15.8788 39.292 17.489 42.6317 19.1766 45.9284C19.6419 46.8381 20.1206 47.7402 20.6119 48.6366C20.8355 49.0446 21.0562 49.4536 21.2597 49.8711C21.3103 49.9752 21.3572 50.0813 21.4088 50.1855C21.6095 50.5935 21.3046 49.8855 21.4031 50.1654C21.4881 50.4081 21.5789 50.646 21.6534 50.8927C23.124 50.2725 24.5937 49.6532 26.0643 49.0331C24.5296 46.0383 22.6912 43.2165 20.9454 40.344C19.2463 37.55 17.6668 34.6842 15.8865 31.9388C14.7952 30.256 13.6209 28.6297 12.3557 27.0739C12.004 26.6421 11.1899 26.3429 10.649 26.3669C10.1043 26.3917 9.62083 26.5503 9.187 26.8848C8.18938 27.656 8.03936 28.8963 8.56588 29.998C10.1579 33.333 11.9667 36.5562 13.7899 39.7678C15.6505 43.0445 17.4995 46.3288 19.2998 49.639C20.2545 51.3952 21.1069 53.2166 22.1685 54.9117C22.8383 55.981 24.352 56.499 25.47 55.7775C26.5861 55.0579 26.9951 53.6552 26.3357 52.4761C26.0701 52.0011 25.7261 51.5787 25.3887 51.1535C25.2588 50.9901 25.1288 50.8228 24.9912 50.6652C24.8183 50.4674 25.1279 50.8487 25.1279 50.8477C25.0629 50.7293 24.9587 50.6165 24.8804 50.5056C24.3443 49.7517 23.8341 48.9806 23.3343 48.2027C22.3003 46.5944 21.2808 44.9777 20.2373 43.3751C18.1254 40.1329 15.9907 36.9039 13.9573 33.612C12.8363 31.7974 11.8177 29.9445 10.3996 28.3334C9.76513 27.6129 8.59837 27.482 7.76319 27.8346C6.86304 28.214 6.31454 29.0645 6.27919 30.0401C6.24861 30.9096 6.65473 31.7066 7.08856 32.4309C7.15258 32.538 7.21851 32.6431 7.27872 32.752C7.54915 33.2375 7.15449 32.4071 7.28063 32.7062C7.49182 33.2107 7.70395 33.7143 7.92659 34.2141C8.56492 35.6455 9.26345 37.0502 9.90081 38.4826C10.0633 38.8486 10.2219 39.2155 10.3805 39.5824C10.5831 40.0507 10.2114 39.1734 10.4245 39.6866C10.4952 39.8577 10.5659 40.0277 10.6366 40.1988C10.9405 40.9394 11.2338 41.6838 11.5177 42.432C12.0661 43.8778 12.7111 45.3331 12.9816 46.863C14.3261 46.0803 15.6706 45.2978 17.0151 44.5151C16.9473 44.4444 16.8822 44.3709 16.8201 44.2954C17.0256 44.5686 17.0762 44.6317 16.9701 44.4835C16.8737 44.3316 16.7686 44.1854 16.6739 44.0316C16.5105 43.7659 16.3605 43.4936 16.2056 43.2232C15.8416 42.5839 15.4346 41.9743 15.0179 41.3694C14.1215 40.0688 13.2043 38.7874 12.3691 37.4448C11.5387 36.1109 10.7322 34.7625 9.88648 33.4381C9.04749 32.1242 8.21423 30.7797 7.0962 29.6779C6.23618 28.8303 4.87354 28.7586 3.92752 29.4896C3.00253 30.2045 2.67093 31.57 3.30639 32.6029C3.35227 32.6784 3.48126 32.9918 3.5472 33.0416C3.46406 32.9795 3.38093 32.5886 3.48413 32.9163C3.57587 33.2069 3.66473 33.4983 3.75838 33.7879C3.99346 34.5169 4.30401 35.2222 4.61266 35.9235C5.11338 37.0636 5.60073 38.2084 6.0919 39.3531C6.42348 40.1252 6.75984 40.8926 7.12105 41.6512C7.19271 41.8023 7.26056 41.9542 7.33032 42.1061C7.50519 42.4835 7.14302 41.6264 7.22903 41.8634C7.2577 41.9427 7.29209 42.0192 7.32076 42.0985C7.3781 42.2542 7.4211 42.4119 7.46887 42.5714C7.53099 42.7817 7.4383 43.0216 7.42205 42.1759C7.42205 42.196 7.42301 42.2151 7.42301 42.2351C7.43066 41.6637 7.64183 41.1629 8.05656 40.7311C9.03124 40.6049 10.0059 40.4798 10.9816 40.3536C10.7121 40.2331 11.1746 40.5294 11.2004 40.5505C10.8927 40.3087 11.3982 40.8782 11.3016 40.6919C11.2348 40.5647 11.1402 40.4396 11.058 40.3211C10.7704 39.9044 10.4503 39.5079 10.1474 39.1027C9.51094 38.2513 8.89841 37.3808 8.28589 36.5112C7.04556 34.7529 5.81764 32.9862 4.5238 31.267C4.1301 30.7453 3.73736 30.3382 3.08183 30.1577C2.50371 29.999 1.73448 30.0707 1.22228 30.4013C0.231357 31.0415 -0.452834 32.624 0.359404 33.7028V33.7028Z" fill="#FED6BB"/>
                <path fill-rule="evenodd" clip-rule="evenodd" d="M38.362 12.8424C35.7448 12.8424 33.6157 14.9715 33.6157 17.5897C33.6157 20.208 35.7448 22.337 38.362 22.337C40.9794 22.337 43.1084 20.208 43.1084 17.5897C43.1084 14.9715 40.9794 12.8424 38.362 12.8424V12.8424ZM38.4205 21.9539H38.4195C37.2413 21.9539 36.1328 21.5018 35.2986 20.681C34.4596 19.8564 33.9971 18.7574 33.9971 17.5888C33.9971 16.4201 34.4596 15.3212 35.2986 14.4965C36.1328 13.6757 37.2413 13.2238 38.4195 13.2238C40.8581 13.2246 42.841 15.1826 42.841 17.5888C42.841 19.9949 40.8581 21.9539 38.4205 21.9539V21.9539Z" fill="#284764"/>
                <path fill-rule="evenodd" clip-rule="evenodd" d="M38.3616 22.8215C35.4757 22.8215 33.127 20.4738 33.127 17.5869C33.127 14.7001 35.4747 12.3523 38.3616 12.3523C41.2483 12.3523 43.5962 14.7001 43.5962 17.5869C43.5962 20.4738 41.2483 22.8215 38.3616 22.8215V22.8215ZM38.4189 13.7102C37.3697 13.7102 36.3826 14.1125 35.6401 14.8425C34.8948 15.5755 34.4849 16.5502 34.4849 17.5869C34.4849 18.6237 34.8948 19.5994 35.6401 20.3314C36.3826 21.0614 37.3697 21.4637 38.4189 21.4637L38.4198 21.8449V21.4637C40.588 21.4628 42.353 19.7236 42.353 17.5859C42.353 15.4483 40.588 13.7111 38.4189 13.7102V13.7102Z" fill="#284764"/>
                <path fill-rule="evenodd" clip-rule="evenodd" d="M32.8533 30.1219C32.8533 30.0857 32.8438 30.0332 32.7979 29.9873C32.7587 29.9481 32.7139 29.929 32.6633 29.929C32.6125 29.929 32.5667 29.9481 32.5285 29.9873L21.1428 41.3719C21.1045 41.4102 21.0854 41.455 21.0854 41.5067C21.0854 41.5583 21.1045 41.6042 21.1428 41.6414C21.2183 41.7169 21.3367 41.7169 21.4123 41.6414L32.7979 30.2567C32.8438 30.2108 32.8533 30.1583 32.8533 30.1219V30.1219Z" fill="#284764"/>
                <path fill-rule="evenodd" clip-rule="evenodd" d="M21.2783 42.1843C21.0977 42.1843 20.9276 42.1136 20.7986 41.9845C20.6696 41.8556 20.5989 41.6855 20.5989 41.5048C20.5989 41.3242 20.6696 41.1541 20.7986 41.0252L32.1843 29.6396C32.3133 29.5105 32.4834 29.4388 32.664 29.4388C32.8446 29.4388 33.0147 29.5105 33.1436 29.6404C33.2708 29.7676 33.3415 29.9376 33.3415 30.1192C33.3415 30.3007 33.2708 30.4708 33.1436 30.5989L21.7571 41.9855C21.629 42.1136 21.4589 42.1843 21.2783 42.1843V42.1843Z" fill="#284764"/>
                <path fill-rule="evenodd" clip-rule="evenodd" d="M14.3101 34.8055C14.356 34.8513 14.4085 34.8608 14.4449 34.8608C14.4744 34.8608 14.5317 34.8532 14.5796 34.8055L25.9652 23.4197C26.0035 23.3815 26.0225 23.3366 26.0225 23.285C26.0225 23.2333 26.0035 23.1875 25.9652 23.1503C25.927 23.112 25.8811 23.0919 25.8305 23.0919C25.7798 23.0919 25.734 23.112 25.6957 23.1503L14.3101 34.536C14.2355 34.6105 14.2355 34.7308 14.3101 34.8055V34.8055Z" fill="#284764"/>
                <path fill-rule="evenodd" clip-rule="evenodd" d="M14.4454 35.3505C14.2639 35.3505 14.0938 35.2798 13.9657 35.1527C13.701 34.888 13.702 34.458 13.9657 34.1933L25.3514 22.8076C25.4814 22.6777 25.6515 22.606 25.8311 22.606C26.0108 22.606 26.1817 22.6777 26.3108 22.8076C26.4398 22.9366 26.5106 23.1067 26.5106 23.2873C26.5106 23.4679 26.4398 23.638 26.3108 23.7671L14.9252 35.1518C14.7971 35.2798 14.627 35.3505 14.4454 35.3505V35.3505Z" fill="#284764"/>
                <path fill-rule="evenodd" clip-rule="evenodd" d="M2.77541 35.454L20.4984 53.177C21.905 54.5837 24.1946 54.5837 25.6022 53.177L49.7782 29.0001C56.0716 22.7066 56.0716 12.4667 49.7782 6.17329C46.7337 3.12884 42.6812 1.45276 38.3668 1.45276C34.0495 1.45276 29.9949 3.12978 26.9515 6.17329L2.77541 30.3503C1.36881 31.7569 1.36881 34.0464 2.77541 35.454V35.454ZM27.2218 6.44372C30.2041 3.46138 34.1622 1.8197 38.3676 1.8197C42.5703 1.8197 46.5274 3.46233 49.5087 6.44372C52.4901 9.42512 54.1318 13.3821 54.1318 17.5876C54.1318 21.7921 52.4901 25.7502 49.5087 28.7315L25.3327 52.9076C24.7153 53.5239 23.906 53.8641 23.0517 53.8641C22.1975 53.8641 21.3871 53.5248 20.7708 52.9076L3.04486 35.1817C1.7663 33.9022 1.7663 31.8983 3.04486 30.6197L27.2218 6.44372V6.44372Z" fill="#284764"/>
                <path fill-rule="evenodd" clip-rule="evenodd" d="M23.0494 54.7208C22.0001 54.7208 20.9519 54.3214 20.153 53.5225L2.43 35.8004C0.83323 34.2036 0.83323 31.6044 2.43 30.0068L26.607 5.83073C29.7431 2.69454 33.92 0.966858 38.3673 0.966858C42.8116 0.966858 46.9865 2.69454 50.1228 5.83073C56.6063 12.3143 56.6063 22.8638 50.1228 29.3475L25.9467 53.5234C25.1479 54.3214 24.0986 54.7208 23.0494 54.7208V54.7208ZM27.2959 6.51971L27.5654 6.78918L3.38935 30.9652C2.30381 32.0507 2.30381 33.7517 3.38935 34.8372L21.1142 52.5622C21.6389 53.0867 22.3269 53.3753 23.0503 53.3753C23.7747 53.3753 24.4616 53.0867 24.9863 52.5622L49.1623 28.3861C52.051 25.4974 53.6421 21.6617 53.6421 17.5872C53.6421 13.5126 52.051 9.67788 49.1623 6.78823C46.2726 3.89857 42.4379 2.30658 38.3662 2.30658C34.2907 2.30658 30.455 3.89857 27.5654 6.78823L27.2959 6.51971V6.51971Z" fill="#284764"/>
                </g>
                </g>
                </svg>